<?xml version="1.0"?>
<!-- Generated by SVGo -->
<svg width="300.702mm" height="129.252mm"
     viewBox="0.000 0.000 300.702 129.252"
     xmlns="http://www.w3.org/2000/svg" 
     xmlns:xlink="http://www.w3.org/1999/xlink">
<polygon points="291.094,5.016 291.484,5.062 291.869,5.139 292.247,5.245 292.615,5.381 292.971,5.545 293.314,5.737 293.640,5.955 293.949,6.198 294.237,6.465 294.504,6.753 294.747,7.062 294.965,7.388 295.157,7.731 295.321,8.087 295.457,8.455 295.563,8.833 295.640,9.218 295.686,9.608 295.701,10.001 295.702,119.251 295.686,119.644 295.640,120.034 295.563,120.419 295.457,120.797 295.321,121.165 295.157,121.521 294.965,121.864 294.747,122.190 294.504,122.499 294.237,122.787 293.949,123.054 293.640,123.297 293.314,123.515 292.971,123.707 292.615,123.871 292.247,124.007 291.869,124.113 291.484,124.190 291.094,124.236 290.702,124.252 10.001,124.251 9.608,124.236 9.218,124.190 8.833,124.113 8.455,124.007 8.087,123.871 7.731,123.707 7.388,123.515 7.062,123.297 6.753,123.054 6.465,122.787 6.198,122.499 5.955,122.190 5.737,121.864 5.545,121.521 5.381,121.165 5.245,120.797 5.139,120.419 5.062,120.034 5.016,119.644 5.000,119.251 5.001,10.000 5.016,9.608 5.062,9.218 5.139,8.833 5.245,8.455 5.381,8.087 5.545,7.731 5.737,7.388 5.955,7.062 6.198,6.753 6.465,6.465 6.753,6.198 7.062,5.955 7.388,5.737 7.731,5.545 8.087,5.381 8.455,5.245 8.833,5.139 9.218,5.062 9.608,5.016 10.001,5.000 290.702,5.000" style="fill:none;stroke-width:0.050000mm;stroke:black"/>
<polygon points="291.392,119.300 291.114,119.442 290.892,119.664 290.750,119.942 290.702,120.251 290.750,120.561 290.892,120.839 291.114,121.061 291.392,121.203 291.702,121.251 292.011,121.203 292.289,121.061 292.511,120.839 292.653,120.561 292.702,120.251 292.653,119.942 292.511,119.664 292.289,119.442 292.011,119.300 291.702,119.251" style="fill:none;stroke-width:0.050000mm;stroke:black"/>
<polygon points="197.159,119.300 196.880,119.442 196.659,119.664 196.517,119.942 196.468,120.251 196.517,120.561 196.659,120.839 196.880,121.061 197.159,121.203 197.468,121.251 197.777,121.203 198.056,121.061 198.277,120.839 198.419,120.561 198.468,120.251 198.419,119.942 198.277,119.664 198.056,119.442 197.777,119.300 197.468,119.251" style="fill:none;stroke-width:0.050000mm;stroke:black"/>
<polygon points="102.925,119.300 102.646,119.442 102.425,119.664 102.283,119.942 102.234,120.251 102.283,120.561 102.425,120.839 102.646,121.061 102.925,121.203 103.234,121.251 103.543,121.203 103.822,121.061 104.043,120.839 104.185,120.561 104.234,120.251 104.185,119.942 104.043,119.664 103.822,119.442 103.543,119.300 103.234,119.251" style="fill:none;stroke-width:0.050000mm;stroke:black"/>
<polygon points="8.691,119.300 8.413,119.442 8.190,119.664 8.049,119.942 8.000,120.251 8.049,120.561 8.190,120.839 8.413,121.061 8.691,121.203 9.000,121.251 9.310,121.203 9.588,121.061 9.810,120.839 9.952,120.561 10.001,120.251 9.952,119.942 9.810,119.664 9.588,119.442 9.310,119.300 9.001,119.251" style="fill:none;stroke-width:0.050000mm;stroke:black"/>
<polygon points="102.925,8.049 102.646,8.190 102.425,8.413 102.283,8.691 102.234,9.001 102.283,9.310 102.425,9.588 102.646,9.810 102.925,9.952 103.234,10.001 103.543,9.952 103.822,9.810 104.043,9.588 104.185,9.310 104.234,9.001 104.185,8.691 104.043,8.413 103.822,8.190 103.543,8.049 103.234,8.001" style="fill:none;stroke-width:0.050000mm;stroke:black"/>
<polygon points="197.159,8.049 196.880,8.190 196.659,8.413 196.517,8.691 196.468,9.001 196.517,9.310 196.659,9.588 196.880,9.810 197.159,9.952 197.468,10.001 197.777,9.952 198.056,9.810 198.277,9.588 198.419,9.310 198.468,9.001 198.419,8.691 198.277,8.413 198.056,8.190 197.777,8.049 197.468,8.001" style="fill:none;stroke-width:0.050000mm;stroke:black"/>
<polygon points="291.392,8.049 291.114,8.190 290.892,8.413 290.750,8.691 290.702,9.001 290.750,9.310 290.892,9.588 291.114,9.810 291.392,9.952 291.702,10.001 292.011,9.952 292.289,9.810 292.511,9.588 292.653,9.310 292.702,9.001 292.653,8.691 292.511,8.413 292.289,8.190 292.011,8.049 291.702,8.001" style="fill:none;stroke-width:0.050000mm;stroke:black"/>
<polygon points="8.691,8.049 8.413,8.190 8.190,8.413 8.049,8.691 8.000,9.001 8.049,9.310 8.190,9.588 8.413,9.810 8.691,9.952 9.000,10.001 9.310,9.952 9.588,9.810 9.810,9.588 9.952,9.310 10.001,9.001 9.952,8.691 9.810,8.413 9.588,8.190 9.310,8.049 9.001,8.001" style="fill:none;stroke-width:0.050000mm;stroke:black"/>
</svg>
