  0
SECTION
  2
HEADER
  9
$ACADVER
  1
AC1014
  9
$HANDSEED
  5
FFFF
  9
$MEASUREMENT
 70
     1
  0
ENDSEC
  0
SECTION
  2
TABLES
  0
TABLE
  2
VPORT
  5
8
330
0
100
AcDbSymbolTable
 70
     4
  0
VPORT
  5
2E
330
8
100
AcDbSymbolTableRecord
100
AcDbViewportTableRecord
  2
*ACTIVE
 70
     0
 10
0.0
 20
0.0
 11
1.0
 21
1.0
 12
210.0
 22
148.5
 13
0.0
 23
0.0
 14
10.0
 24
10.0
 15
10.0
 25
10.0
 16
0.0
 26
0.0
 36
1.0
 17
0.0
 27
0.0
 37
0.0
 40
341.0
 41
1.24
 42
50.0
 43
0.0
 44
0.0
 50
0.0
 51
0.0
 71
     0
 72
   100
 73
     1
 74
     3
 75
     0
 76
     0
 77
     0
 78
     0
  0
ENDTAB
  0
TABLE
  2
LTYPE
  5
5
330
0
100
AcDbSymbolTable
 70
     1
  0
LTYPE
  5
14
330
5
100
AcDbSymbolTableRecord
100
AcDbLinetypeTableRecord
  2
BYBLOCK
 70
     0
  3

 72
    65
 73
     0
 40
0.0
  0
LTYPE
  5
15
330
5
100
AcDbSymbolTableRecord
100
AcDbLinetypeTableRecord
  2
BYLAYER
 70
     0
  3

 72
    65
 73
     0
 40
0.0
  0
LTYPE
  5
16
330
5
100
AcDbSymbolTableRecord
100
AcDbLinetypeTableRecord
  2
CONTINUOUS
 70
     0
  3
Solid line
 72
    65
 73
     0
 40
0.0
  0
ENDTAB
  0
TABLE
  2
LAYER
  5
2
100
AcDbSymbolTable
 70
1
  0
LAYER
  5
50
100
AcDbSymbolTableRecord
100
AcDbLayerTableRecord
  2
0
 70
0
  6
CONTINUOUS
  0
ENDTAB
  0
TABLE
  2
STYLE
  5
3
330
0
100
AcDbSymbolTable
 70
     1
  0
STYLE
  5
11
330
3
100
AcDbSymbolTableRecord
100
AcDbTextStyleTableRecord
  2
STANDARD
 70
     0
 40
0.0
 41
1.0
 50
0.0
 71
     0
 42
2.5
  3
txt
  4

  0
ENDTAB
  0
TABLE
  2
VIEW
  5
6
330
0
100
AcDbSymbolTable
 70
     0
  0
ENDTAB
  0
TABLE
  2
UCS
  5
7
330
0
100
AcDbSymbolTable
 70
     0
  0
ENDTAB
  0
TABLE
  2
APPID
  5
9
330
0
100
AcDbSymbolTable
 70
     2
  0
APPID
  5
12
330
9
100
AcDbSymbolTableRecord
100
AcDbRegAppTableRecord
  2
ACAD
 70
     0
  0
ENDTAB
  0
TABLE
  2
DIMSTYLE
  5
A
330
0
100
AcDbSymbolTable
 70
     1
  0
DIMSTYLE
105
27
330
A
100
AcDbSymbolTableRecord
100
AcDbDimStyleTableRecord
  2
ISO-25
 70
     0
  3

  4

  5

  6

  7

 40
1.0
 41
2.5
 42
0.625
 43
3.75
 44
1.25
 45
0.0
 46
0.0
 47
0.0
 48
0.0
140
2.5
141
2.5
142
0.0
143
0.03937007874016
144
1.0
145
0.0
146
1.0
147
0.625
 71
     0
 72
     0
 73
     0
 74
     0
 75
     0
 76
     0
 77
     1
 78
     8
170
     0
171
     3
172
     1
173
     0
174
     0
175
     0
176
     0
177
     0
178
     0
270
     2
271
     2
272
     2
273
     2
274
     3
340
11
275
     0
280
     0
281
     0
282
     0
283
     0
284
     8
285
     0
286
     0
287
     3
288
     0
  0
ENDTAB
  0
TABLE
  2
BLOCK_RECORD
  5
1
330
0
100
AcDbSymbolTable
 70
     1
  0
BLOCK_RECORD
  5
1F
330
1
100
AcDbSymbolTableRecord
100
AcDbBlockTableRecord
  2
*MODEL_SPACE
  0
BLOCK_RECORD
  5
1B
330
1
100
AcDbSymbolTableRecord
100
AcDbBlockTableRecord
  2
*PAPER_SPACE
  0
ENDTAB
  0
ENDSEC
  0
SECTION
  2
BLOCKS
  0
BLOCK
  5
20
330
1F
100
AcDbEntity
  8
0
100
AcDbBlockBegin
  2
*MODEL_SPACE
 70
     0
 10
0.0
 20
0.0
 30
0.0
  3
*MODEL_SPACE
  1

  0
ENDBLK
  5
21
330
1F
100
AcDbEntity
  8
0
100
AcDbBlockEnd
  0
BLOCK
  5
1C
330
1B
100
AcDbEntity
 67
     1
  8
0
100
AcDbBlockBegin
  2
*PAPER_SPACE
  1

  0
ENDBLK
  5
1D
330
1B
100
AcDbEntity
 67
     1
  8
0
100
AcDbBlockEnd
  0
ENDSEC
  0
SECTION
  2
ENTITIES
  0
LWPOLYLINE
  5
100
100
AcDbEntity
  8
0
 62
7
100
AcDbPolyline
 90
20
 70
1
 10
815.800663
 20
17.277703
 30
0.0
 10
816.676682
 20
17.138522
 30
0.0
 10
817.464713
 20
16.737164
 30
0.0
 10
818.093126
 20
16.107278
 30
0.0
 10
818.495957
 20
15.319190
 30
0.0
 10
818.635138
 20
14.443199
 30
0.0
 10
818.495957
 20
13.564317
 30
0.0
 10
818.093126
 20
12.776229
 30
0.0
 10
817.464713
 20
12.147817
 30
0.0
 10
816.676682
 20
11.744985
 30
0.0
 10
815.800663
 20
11.608639
 30
0.0
 10
814.921753
 20
11.744985
 30
0.0
 10
814.133665
 20
12.147817
 30
0.0
 10
813.503806
 20
12.776229
 30
0.0
 10
813.102392
 20
13.564317
 30
0.0
 10
812.966329
 20
14.443199
 30
0.0
 10
813.102392
 20
15.319190
 30
0.0
 10
813.503806
 20
16.107278
 30
0.0
 10
814.133665
 20
16.737164
 30
0.0
 10
814.921753
 20
17.138522
 30
0.0
  0
LWPOLYLINE
  5
101
100
AcDbEntity
  8
0
 62
7
100
AcDbPolyline
 90
20
 70
1
 10
548.680563
 20
17.277703
 30
0.0
 10
549.556554
 20
17.138522
 30
0.0
 10
550.347562
 20
16.737164
 30
0.0
 10
550.973055
 20
16.107278
 30
0.0
 10
551.375886
 20
15.319190
 30
0.0
 10
551.515067
 20
14.443199
 30
0.0
 10
551.375886
 20
13.564317
 30
0.0
 10
550.973055
 20
12.776229
 30
0.0
 10
550.347562
 20
12.147817
 30
0.0
 10
549.556554
 20
11.744985
 30
0.0
 10
548.680563
 20
11.608639
 30
0.0
 10
547.804601
 20
11.744985
 30
0.0
 10
547.013565
 20
12.147817
 30
0.0
 10
546.386627
 20
12.776229
 30
0.0
 10
545.985269
 20
13.564317
 30
0.0
 10
545.846088
 20
14.443199
 30
0.0
 10
545.985269
 20
15.319190
 30
0.0
 10
546.386627
 20
16.107278
 30
0.0
 10
547.013565
 20
16.737164
 30
0.0
 10
547.804601
 20
17.138522
 30
0.0
  0
LWPOLYLINE
  5
102
100
AcDbEntity
  8
0
 62
7
100
AcDbPolyline
 90
20
 70
1
 10
281.560470
 20
17.277703
 30
0.0
 10
282.436449
 20
17.138522
 30
0.0
 10
283.227465
 20
16.737164
 30
0.0
 10
283.852955
 20
16.107278
 30
0.0
 10
284.255787
 20
15.319190
 30
0.0
 10
284.394968
 20
14.443199
 30
0.0
 10
284.255787
 20
13.564317
 30
0.0
 10
283.852955
 20
12.776229
 30
0.0
 10
283.227465
 20
12.147817
 30
0.0
 10
282.436449
 20
11.744985
 30
0.0
 10
281.560470
 20
11.608639
 30
0.0
 10
280.684493
 20
11.744985
 30
0.0
 10
279.893474
 20
12.147817
 30
0.0
 10
279.266527
 20
12.776229
 30
0.0
 10
278.865158
 20
13.564317
 30
0.0
 10
278.726006
 20
14.443199
 30
0.0
 10
278.865158
 20
15.319190
 30
0.0
 10
279.266527
 20
16.107278
 30
0.0
 10
279.893474
 20
16.737164
 30
0.0
 10
280.684493
 20
17.138522
 30
0.0
  0
LWPOLYLINE
  5
103
100
AcDbEntity
  8
0
 62
7
100
AcDbPolyline
 90
20
 70
1
 10
14.443301
 20
17.277703
 30
0.0
 10
15.319278
 20
17.138522
 30
0.0
 10
16.107363
 20
16.737164
 30
0.0
 10
16.737246
 20
16.107278
 30
0.0
 10
17.138613
 20
15.319190
 30
0.0
 10
17.277774
 20
14.443199
 30
0.0
 10
17.138613
 20
13.564317
 30
0.0
 10
16.737246
 20
12.776229
 30
0.0
 10
16.107363
 20
12.147817
 30
0.0
 10
15.319278
 20
11.744985
 30
0.0
 10
14.440371
 20
11.608639
 30
0.0
 10
13.564395
 20
11.744985
 30
0.0
 10
12.776309
 20
12.147817
 30
0.0
 10
12.144961
 20
12.776229
 30
0.0
 10
11.745059
 20
13.564317
 30
0.0
 10
11.605898
 20
14.443199
 30
0.0
 10
11.745059
 20
15.319190
 30
0.0
 10
12.144961
 20
16.107278
 30
0.0
 10
12.776309
 20
16.737164
 30
0.0
 10
13.564395
 20
17.138522
 30
0.0
  0
LWPOLYLINE
  5
104
100
AcDbEntity
  8
0
 62
7
100
AcDbPolyline
 90
20
 70
1
 10
10.489688
 20
314.383170
 30
0.0
 10
11.365665
 20
314.246937
 30
0.0
 10
12.153750
 20
313.847034
 30
0.0
 10
12.782169
 20
313.214222
 30
0.0
 10
13.185000
 20
312.426137
 30
0.0
 10
13.324162
 20
311.547229
 30
0.0
 10
13.185000
 20
310.671253
 30
0.0
 10
12.782169
 20
309.884633
 30
0.0
 10
12.153750
 20
309.254750
 30
0.0
 10
11.365665
 20
308.851918
 30
0.0
 10
10.486759
 20
308.712765
 30
0.0
 10
9.610782
 20
308.851918
 30
0.0
 10
8.822696
 20
309.254750
 30
0.0
 10
8.189884
 20
309.884633
 30
0.0
 10
7.791446
 20
310.671253
 30
0.0
 10
7.652285
 20
311.547229
 30
0.0
 10
7.791446
 20
312.426137
 30
0.0
 10
8.189884
 20
313.214222
 30
0.0
 10
8.822696
 20
313.847034
 30
0.0
 10
9.610782
 20
314.246937
 30
0.0
  0
LWPOLYLINE
  5
105
100
AcDbEntity
  8
0
 62
7
100
AcDbPolyline
 90
47
 70
1
 10
827.138565
 20
22.765010
 30
0.0
 10
812.490109
 20
22.765010
 30
0.0
 10
17.753848
 20
22.765010
 30
0.0
 10
17.753848
 20
321.456901
 30
0.0
 10
3.105411
 20
321.456901
 30
0.0
 10
3.102492
 20
17.277703
 30
0.0
 10
3.147903
 20
16.164424
 30
0.0
 10
3.278274
 20
15.058487
 30
0.0
 10
3.496536
 20
13.967177
 30
0.0
 10
3.796829
 20
12.896362
 30
0.0
 10
4.182083
 20
11.851936
 30
0.0
 10
4.646438
 20
10.844107
 30
0.0
 10
5.191360
 20
9.871455
 30
0.0
 10
5.809524
 20
8.947162
 30
0.0
 10
6.498001
 20
8.071171
 30
0.0
 10
7.255325
 20
7.255247
 30
0.0
 10
8.071243
 20
6.497943
 30
0.0
 10
8.947219
 20
5.809464
 30
0.0
 10
9.871535
 20
5.191285
 30
0.0
 10
10.842727
 20
4.646353
 30
0.0
 10
11.852004
 20
4.182009
 30
0.0
 10
12.894973
 20
3.796753
 30
0.0
 10
13.967239
 20
3.496479
 30
0.0
 10
15.058547
 20
3.278211
 30
0.0
 10
16.164504
 20
3.147817
 30
0.0
 10
17.277785
 20
3.105297
 30
0.0
 10
812.966192
 20
3.102463
 30
0.0
 10
814.076579
 20
3.147817
 30
0.0
 10
815.182516
 20
3.278211
 30
0.0
 10
816.273855
 20
3.496479
 30
0.0
 10
817.344642
 20
3.796781
 30
0.0
 10
818.389067
 20
4.182009
 30
0.0
 10
819.396869
 20
4.646381
 30
0.0
 10
820.369520
 20
5.191313
 30
0.0
 10
821.293842
 20
5.809464
 30
0.0
 10
822.169832
 20
6.497943
 30
0.0
 10
822.985757
 20
7.255275
 30
0.0
 10
823.743032
 20
8.071171
 30
0.0
 10
824.431539
 20
8.947162
 30
0.0
 10
825.049690
 20
9.871483
 30
0.0
 10
825.594623
 20
10.844135
 30
0.0
 10
826.058966
 20
11.851936
 30
0.0
 10
826.444222
 20
12.896390
 30
0.0
 10
826.744525
 20
13.967177
 30
0.0
 10
826.962793
 20
15.058487
 30
0.0
 10
827.093186
 20
16.164453
 30
0.0
 10
827.138824
 20
17.277731
 30
0.0
  0
LWPOLYLINE
  5
106
100
AcDbEntity
  8
0
 62
7
100
AcDbPolyline
 90
48
 70
1
 10
831.712832
 20
27.511992
 30
0.0
 10
832.826111
 20
27.557347
 30
0.0
 10
833.932076
 20
27.687740
 30
0.0
 10
835.023386
 20
27.906008
 30
0.0
 10
836.095648
 20
28.206310
 30
0.0
 10
837.138627
 20
28.591567
 30
0.0
 10
838.147903
 20
29.055910
 30
0.0
 10
839.119081
 20
29.600843
 30
0.0
 10
840.043402
 20
30.218994
 30
0.0
 10
840.919392
 20
30.907472
 30
0.0
 10
841.735288
 20
31.664805
 30
0.0
 10
842.492621
 20
32.480729
 30
0.0
 10
843.181099
 20
33.356691
 30
0.0
 10
843.799250
 20
34.281012
 30
0.0
 10
844.344183
 20
35.252219
 30
0.0
 10
844.808526
 20
36.261494
 30
0.0
 10
845.193783
 20
37.304445
 30
0.0
 10
845.494085
 20
38.376707
 30
0.0
 10
845.712353
 20
39.468017
 30
0.0
 10
845.842746
 20
40.573982
 30
0.0
 10
845.885266
 20
41.684341
 30
0.0
 10
845.885266
 20
47.193616
 30
0.0
 10
831.236838
 20
47.193616
 30
0.0
 10
831.236838
 20
47.170939
 30
0.0
 10
36.500446
 20
47.170939
 30
0.0
 10
36.500446
 20
345.885476
 30
0.0
 10
21.851962
 20
345.885476
 30
0.0
 10
21.851962
 20
41.687289
 30
0.0
 10
21.894765
 20
40.574010
 30
0.0
 10
22.025159
 20
39.468045
 30
0.0
 10
22.243427
 20
38.376735
 30
0.0
 10
22.543729
 20
37.304474
 30
0.0
 10
22.929014
 20
36.261523
 30
0.0
 10
23.393329
 20
35.252219
 30
0.0
 10
23.938290
 20
34.281041
 30
0.0
 10
24.556441
 20
33.356720
 30
0.0
 10
25.244920
 20
32.480757
 30
0.0
 10
26.002195
 20
31.664833
 30
0.0
 10
26.818120
 20
30.907501
 30
0.0
 10
27.694138
 20
30.219022
 30
0.0
 10
28.618431
 20
29.600871
 30
0.0
 10
29.591111
 20
29.055939
 30
0.0
 10
30.598884
 20
28.591595
 30
0.0
 10
31.643338
 20
28.206339
 30
0.0
 10
32.714097
 20
27.906036
 30
0.0
 10
33.805435
 20
27.687769
 30
0.0
 10
34.911372
 20
27.557375
 30
0.0
 10
36.021760
 20
27.512021
 30
0.0
  0
LWPOLYLINE
  5
107
100
AcDbEntity
  8
0
 62
7
100
AcDbPolyline
 90
20
 70
1
 10
834.547308
 20
36.018338
 30
0.0
 10
833.671345
 20
36.154685
 30
0.0
 10
832.883257
 20
36.554597
 30
0.0
 10
832.253371
 20
37.185929
 30
0.0
 10
831.852013
 20
37.974017
 30
0.0
 10
831.712832
 20
38.852927
 30
0.0
 10
831.852013
 20
39.728918
 30
0.0
 10
832.253371
 20
40.517006
 30
0.0
 10
832.883257
 20
41.146892
 30
0.0
 10
833.671345
 20
41.548250
 30
0.0
 10
834.550256
 20
41.687431
 30
0.0
 10
835.426218
 20
41.548250
 30
0.0
 10
836.214306
 20
41.146892
 30
0.0
 10
836.845638
 20
40.517006
 30
0.0
 10
837.245550
 20
39.728918
 30
0.0
 10
837.384731
 20
38.852927
 30
0.0
 10
837.245550
 20
37.974017
 30
0.0
 10
836.845638
 20
37.185929
 30
0.0
 10
836.214306
 20
36.554597
 30
0.0
 10
835.426218
 20
36.154685
 30
0.0
  0
LWPOLYLINE
  5
108
100
AcDbEntity
  8
0
 62
7
100
AcDbPolyline
 90
20
 70
1
 10
567.430128
 20
36.018338
 30
0.0
 10
566.554166
 20
36.154685
 30
0.0
 10
565.763129
 20
36.554597
 30
0.0
 10
565.137665
 20
37.185929
 30
0.0
 10
564.734833
 20
37.974017
 30
0.0
 10
564.595652
 20
38.852927
 30
0.0
 10
564.734833
 20
39.728918
 30
0.0
 10
565.137665
 20
40.517006
 30
0.0
 10
565.763129
 20
41.146892
 30
0.0
 10
566.554166
 20
41.548250
 30
0.0
 10
567.430128
 20
41.687431
 30
0.0
 10
568.306118
 20
41.548250
 30
0.0
 10
569.097126
 20
41.146892
 30
0.0
 10
569.724093
 20
40.517006
 30
0.0
 10
570.125451
 20
39.728918
 30
0.0
 10
570.264632
 20
38.852927
 30
0.0
 10
570.125451
 20
37.974017
 30
0.0
 10
569.724093
 20
37.185929
 30
0.0
 10
569.097126
 20
36.554597
 30
0.0
 10
568.306118
 20
36.154685
 30
0.0
  0
LWPOLYLINE
  5
109
100
AcDbEntity
  8
0
 62
7
100
AcDbPolyline
 90
20
 70
1
 10
300.310028
 20
36.018338
 30
0.0
 10
299.434066
 20
36.154685
 30
0.0
 10
298.643058
 20
36.554597
 30
0.0
 10
298.017566
 20
37.185929
 30
0.0
 10
297.614734
 20
37.974017
 30
0.0
 10
297.475553
 20
38.852927
 30
0.0
 10
297.614734
 20
39.728918
 30
0.0
 10
298.017566
 20
40.517006
 30
0.0
 10
298.643058
 20
41.146892
 30
0.0
 10
299.434066
 20
41.548250
 30
0.0
 10
300.310028
 20
41.687431
 30
0.0
 10
301.186019
 20
41.548250
 30
0.0
 10
301.977027
 20
41.146892
 30
0.0
 10
302.603994
 20
40.517006
 30
0.0
 10
303.005351
 20
39.728918
 30
0.0
 10
303.144532
 20
38.852927
 30
0.0
 10
303.005351
 20
37.974017
 30
0.0
 10
302.603994
 20
37.185929
 30
0.0
 10
301.977027
 20
36.554597
 30
0.0
 10
301.186019
 20
36.154685
 30
0.0
  0
LWPOLYLINE
  5
10a
100
AcDbEntity
  8
0
 62
7
100
AcDbPolyline
 90
20
 70
1
 10
33.189864
 20
36.018338
 30
0.0
 10
32.313873
 20
36.154685
 30
0.0
 10
31.525842
 20
36.554597
 30
0.0
 10
30.897429
 20
37.185929
 30
0.0
 10
30.494598
 20
37.974017
 30
0.0
 10
30.355417
 20
38.852927
 30
0.0
 10
30.494598
 20
39.728918
 30
0.0
 10
30.897429
 20
40.517006
 30
0.0
 10
31.525842
 20
41.146892
 30
0.0
 10
32.313873
 20
41.548250
 30
0.0
 10
33.189864
 20
41.687431
 30
0.0
 10
34.068802
 20
41.548250
 30
0.0
 10
34.856890
 20
41.146892
 30
0.0
 10
35.486749
 20
40.517006
 30
0.0
 10
35.888135
 20
39.728918
 30
0.0
 10
36.024197
 20
38.852927
 30
0.0
 10
35.888135
 20
37.974017
 30
0.0
 10
35.486749
 20
37.185929
 30
0.0
 10
34.856890
 20
36.554597
 30
0.0
 10
34.068802
 20
36.154685
 30
0.0
  0
LWPOLYLINE
  5
10b
100
AcDbEntity
  8
0
 62
7
100
AcDbPolyline
 90
20
 70
1
 10
29.236242
 20
333.122286
 30
0.0
 10
28.360308
 20
333.258633
 30
0.0
 10
27.572220
 20
333.658544
 30
0.0
 10
26.942305
 20
334.289877
 30
0.0
 10
26.540976
 20
335.077965
 30
0.0
 10
26.401795
 20
335.956875
 30
0.0
 10
26.540976
 20
336.832866
 30
0.0
 10
26.942305
 20
337.620925
 30
0.0
 10
27.572220
 20
338.250840
 30
0.0
 10
28.360308
 20
338.653672
 30
0.0
 10
29.239162
 20
338.791436
 30
0.0
 10
30.115180
 20
338.653672
 30
0.0
 10
30.903269
 20
338.250840
 30
0.0
 10
31.534629
 20
337.620925
 30
0.0
 10
31.934513
 20
336.832866
 30
0.0
 10
32.073694
 20
335.956875
 30
0.0
 10
31.934513
 20
335.077965
 30
0.0
 10
31.534629
 20
334.289877
 30
0.0
 10
30.903269
 20
333.658544
 30
0.0
 10
30.115180
 20
333.258633
 30
0.0
  0
LWPOLYLINE
  5
10c
100
AcDbEntity
  8
0
 62
7
100
AcDbPolyline
 90
20
 70
1
 10
853.299537
 20
66.115839
 30
0.0
 10
854.175555
 20
65.976658
 30
0.0
 10
854.963587
 20
65.575301
 30
0.0
 10
855.591999
 20
64.945414
 30
0.0
 10
855.994831
 20
64.157326
 30
0.0
 10
856.134012
 20
63.281335
 30
0.0
 10
855.994831
 20
62.402425
 30
0.0
 10
855.591999
 20
61.614337
 30
0.0
 10
854.963587
 20
60.985924
 30
0.0
 10
854.175555
 20
60.583093
 30
0.0
 10
853.299537
 20
60.446746
 30
0.0
 10
852.420626
 20
60.583093
 30
0.0
 10
851.632510
 20
60.985924
 30
0.0
 10
851.002680
 20
61.614337
 30
0.0
 10
850.601266
 20
62.402425
 30
0.0
 10
850.465203
 20
63.281335
 30
0.0
 10
850.601266
 20
64.157326
 30
0.0
 10
851.002680
 20
64.945414
 30
0.0
 10
851.632510
 20
65.575301
 30
0.0
 10
852.420626
 20
65.976658
 30
0.0
  0
LWPOLYLINE
  5
10d
100
AcDbEntity
  8
0
 62
7
100
AcDbPolyline
 90
20
 70
1
 10
586.179437
 20
66.115839
 30
0.0
 10
587.055399
 20
65.976658
 30
0.0
 10
587.846407
 20
65.575301
 30
0.0
 10
588.471900
 20
64.945414
 30
0.0
 10
588.874731
 20
64.157326
 30
0.0
 10
589.013913
 20
63.281335
 30
0.0
 10
588.874731
 20
62.402425
 30
0.0
 10
588.471900
 20
61.614337
 30
0.0
 10
587.846407
 20
60.985924
 30
0.0
 10
587.055399
 20
60.583093
 30
0.0
 10
586.179437
 20
60.446746
 30
0.0
 10
585.303447
 20
60.583093
 30
0.0
 10
584.512439
 20
60.985924
 30
0.0
 10
583.885472
 20
61.614337
 30
0.0
 10
583.484114
 20
62.402425
 30
0.0
 10
583.344933
 20
63.281335
 30
0.0
 10
583.484114
 20
64.157326
 30
0.0
 10
583.885472
 20
64.945414
 30
0.0
 10
584.512439
 20
65.575301
 30
0.0
 10
585.303447
 20
65.976658
 30
0.0
  0
LWPOLYLINE
  5
10e
100
AcDbEntity
  8
0
 62
7
100
AcDbPolyline
 90
20
 70
1
 10
319.059338
 20
66.115839
 30
0.0
 10
319.935300
 20
65.976658
 30
0.0
 10
320.726336
 20
65.575301
 30
0.0
 10
321.351801
 20
64.945414
 30
0.0
 10
321.754632
 20
64.157326
 30
0.0
 10
321.893813
 20
63.281335
 30
0.0
 10
321.754632
 20
62.402425
 30
0.0
 10
321.351801
 20
61.614337
 30
0.0
 10
320.726336
 20
60.985924
 30
0.0
 10
319.935300
 20
60.583093
 30
0.0
 10
319.059338
 20
60.446746
 30
0.0
 10
318.183347
 20
60.583093
 30
0.0
 10
317.392339
 20
60.985924
 30
0.0
 10
316.765372
 20
61.614337
 30
0.0
 10
316.364015
 20
62.402425
 30
0.0
 10
316.224834
 20
63.281335
 30
0.0
 10
316.364015
 20
64.157326
 30
0.0
 10
316.765372
 20
64.945414
 30
0.0
 10
317.392339
 20
65.575301
 30
0.0
 10
318.183347
 20
65.976658
 30
0.0
  0
LWPOLYLINE
  5
10f
100
AcDbEntity
  8
0
 62
7
100
AcDbPolyline
 90
20
 70
1
 10
51.942172
 20
66.115839
 30
0.0
 10
52.818134
 20
65.976658
 30
0.0
 10
53.606222
 20
65.575301
 30
0.0
 10
54.236109
 20
64.945414
 30
0.0
 10
54.637495
 20
64.157326
 30
0.0
 10
54.776676
 20
63.281335
 30
0.0
 10
54.637495
 20
62.402425
 30
0.0
 10
54.236109
 20
61.614337
 30
0.0
 10
53.606222
 20
60.985924
 30
0.0
 10
52.818134
 20
60.583093
 30
0.0
 10
51.939252
 20
60.446746
 30
0.0
 10
51.063262
 20
60.583093
 30
0.0
 10
50.275174
 20
60.985924
 30
0.0
 10
49.643842
 20
61.614337
 30
0.0
 10
49.243930
 20
62.402425
 30
0.0
 10
49.104749
 20
63.281335
 30
0.0
 10
49.243930
 20
64.157326
 30
0.0
 10
49.643842
 20
64.945414
 30
0.0
 10
50.275174
 20
65.575301
 30
0.0
 10
51.063262
 20
65.976658
 30
0.0
  0
LWPOLYLINE
  5
110
100
AcDbEntity
  8
0
 62
7
100
AcDbPolyline
 90
20
 70
1
 10
47.988550
 20
363.221318
 30
0.0
 10
48.864541
 20
363.084971
 30
0.0
 10
49.652629
 20
362.685059
 30
0.0
 10
50.281041
 20
362.052253
 30
0.0
 10
50.683873
 20
361.264165
 30
0.0
 10
50.823054
 20
360.385255
 30
0.0
 10
50.683873
 20
359.509293
 30
0.0
 10
50.281041
 20
358.722679
 30
0.0
 10
49.652629
 20
358.092792
 30
0.0
 10
48.864541
 20
357.689961
 30
0.0
 10
47.985631
 20
357.550779
 30
0.0
 10
47.109640
 20
357.689961
 30
0.0
 10
46.321552
 20
358.092792
 30
0.0
 10
45.688746
 20
358.722679
 30
0.0
 10
45.290308
 20
359.509293
 30
0.0
 10
45.151127
 20
360.385283
 30
0.0
 10
45.290308
 20
361.264165
 30
0.0
 10
45.688746
 20
362.052253
 30
0.0
 10
46.321552
 20
362.685088
 30
0.0
 10
47.109640
 20
363.084971
 30
0.0
  0
LWPOLYLINE
  5
111
100
AcDbEntity
  8
0
 62
7
100
AcDbPolyline
 90
47
 70
1
 10
864.637438
 20
71.603146
 30
0.0
 10
849.988982
 20
71.603146
 30
0.0
 10
55.252726
 20
71.603146
 30
0.0
 10
55.252726
 20
370.295062
 30
0.0
 10
40.604270
 20
370.295062
 30
0.0
 10
40.601436
 20
66.115839
 30
0.0
 10
40.646790
 20
65.002560
 30
0.0
 10
40.777184
 20
63.896595
 30
0.0
 10
40.995451
 20
62.805285
 30
0.0
 10
41.295754
 20
61.734498
 30
0.0
 10
41.681010
 20
60.690044
 30
0.0
 10
42.145354
 20
59.682243
 30
0.0
 10
42.690286
 20
58.709591
 30
0.0
 10
43.308437
 20
57.785269
 30
0.0
 10
43.996916
 20
56.909307
 30
0.0
 10
44.754248
 20
56.093383
 30
0.0
 10
45.570172
 20
55.336051
 30
0.0
 10
46.446135
 20
54.647572
 30
0.0
 10
47.370456
 20
54.029421
 30
0.0
 10
48.341634
 20
53.484489
 30
0.0
 10
49.350938
 20
53.020145
 30
0.0
 10
50.393889
 20
52.634889
 30
0.0
 10
51.466150
 20
52.334586
 30
0.0
 10
52.557460
 20
52.116319
 30
0.0
 10
53.663426
 20
51.985925
 30
0.0
 10
54.776704
 20
51.943405
 30
0.0
 10
850.465118
 20
51.940571
 30
0.0
 10
851.575505
 20
51.985925
 30
0.0
 10
852.681442
 20
52.116319
 30
0.0
 10
853.772781
 20
52.334586
 30
0.0
 10
854.843568
 20
52.634860
 30
0.0
 10
855.887993
 20
53.020117
 30
0.0
 10
856.895766
 20
53.484460
 30
0.0
 10
857.868447
 20
54.029392
 30
0.0
 10
858.792768
 20
54.647572
 30
0.0
 10
859.668758
 20
55.336022
 30
0.0
 10
860.484683
 20
56.093355
 30
0.0
 10
861.241958
 20
56.909279
 30
0.0
 10
861.930465
 20
57.785269
 30
0.0
 10
862.548616
 20
58.709562
 30
0.0
 10
863.093549
 20
59.682214
 30
0.0
 10
863.557892
 20
60.690044
 30
0.0
 10
863.943149
 20
61.734469
 30
0.0
 10
864.243451
 20
62.805285
 30
0.0
 10
864.461719
 20
63.896567
 30
0.0
 10
864.592112
 20
65.002532
 30
0.0
 10
864.637750
 20
66.115811
 30
0.0
  0
LWPOLYLINE
  5
112
100
AcDbEntity
  8
0
 62
7
100
AcDbPolyline
 90
48
 70
1
 10
869.211791
 20
76.350157
 30
0.0
 10
870.325069
 20
76.395511
 30
0.0
 10
871.431035
 20
76.525905
 30
0.0
 10
872.522345
 20
76.744172
 30
0.0
 10
873.594635
 20
77.044446
 30
0.0
 10
874.637586
 20
77.429731
 30
0.0
 10
875.646861
 20
77.894046
 30
0.0
 10
876.618039
 20
78.439007
 30
0.0
 10
877.542332
 20
79.057158
 30
0.0
 10
878.418323
 20
79.745608
 30
0.0
 10
879.234247
 20
80.502969
 30
0.0
 10
879.991608
 20
81.318893
 30
0.0
 10
880.680030
 20
82.194856
 30
0.0
 10
881.298181
 20
83.119177
 30
0.0
 10
881.843141
 20
84.090383
 30
0.0
 10
882.307456
 20
85.099659
 30
0.0
 10
882.692741
 20
86.142610
 30
0.0
 10
882.993044
 20
87.214843
 30
0.0
 10
883.211311
 20
88.306153
 30
0.0
 10
883.341705
 20
89.412118
 30
0.0
 10
883.384508
 20
90.522506
 30
0.0
 10
883.384508
 20
96.031752
 30
0.0
 10
868.736024
 20
96.031752
 30
0.0
 10
868.736024
 20
96.009075
 30
0.0
 10
73.999394
 20
96.009075
 30
0.0
 10
73.999394
 20
394.723663
 30
0.0
 10
59.350909
 20
394.723663
 30
0.0
 10
59.350909
 20
90.525454
 30
0.0
 10
59.393712
 20
89.412175
 30
0.0
 10
59.524106
 20
88.306210
 30
0.0
 10
59.742374
 20
87.214899
 30
0.0
 10
60.042676
 20
86.142638
 30
0.0
 10
60.427961
 20
85.099687
 30
0.0
 10
60.892276
 20
84.090383
 30
0.0
 10
61.437237
 20
83.119205
 30
0.0
 10
62.055388
 20
82.194884
 30
0.0
 10
62.743867
 20
81.318922
 30
0.0
 10
63.501142
 20
80.502997
 30
0.0
 10
64.317067
 20
79.745665
 30
0.0
 10
65.193085
 20
79.057186
 30
0.0
 10
66.117378
 20
78.439035
 30
0.0
 10
67.090059
 20
77.894103
 30
0.0
 10
68.097832
 20
77.429760
 30
0.0
 10
69.142285
 20
77.044503
 30
0.0
 10
70.213044
 20
76.744201
 30
0.0
 10
71.304383
 20
76.525933
 30
0.0
 10
72.410320
 20
76.395539
 30
0.0
 10
73.520707
 20
76.350185
 30
0.0
  0
LWPOLYLINE
  5
113
100
AcDbEntity
  8
0
 62
7
100
AcDbPolyline
 90
20
 70
1
 10
872.046266
 20
84.856503
 30
0.0
 10
871.170332
 20
84.992849
 30
0.0
 10
870.382244
 20
85.392761
 30
0.0
 10
869.752301
 20
86.024093
 30
0.0
 10
869.350972
 20
86.812181
 30
0.0
 10
869.211791
 20
87.691091
 30
0.0
 10
869.350972
 20
88.567082
 30
0.0
 10
869.752301
 20
89.355170
 30
0.0
 10
870.382244
 20
89.985057
 30
0.0
 10
871.170332
 20
90.386414
 30
0.0
 10
872.049186
 20
90.525595
 30
0.0
 10
872.925176
 20
90.386414
 30
0.0
 10
873.713293
 20
89.985057
 30
0.0
 10
874.344568
 20
89.355170
 30
0.0
 10
874.744537
 20
88.567082
 30
0.0
 10
874.883718
 20
87.691091
 30
0.0
 10
874.744537
 20
86.812181
 30
0.0
 10
874.344568
 20
86.024093
 30
0.0
 10
873.713293
 20
85.392761
 30
0.0
 10
872.925176
 20
84.992849
 30
0.0
  0
LWPOLYLINE
  5
114
100
AcDbEntity
  8
0
 62
7
100
AcDbPolyline
 90
20
 70
1
 10
604.929087
 20
84.856503
 30
0.0
 10
604.053124
 20
84.992849
 30
0.0
 10
603.262088
 20
85.392761
 30
0.0
 10
602.636624
 20
86.024093
 30
0.0
 10
602.233792
 20
86.812181
 30
0.0
 10
602.094611
 20
87.691091
 30
0.0
 10
602.233792
 20
88.567082
 30
0.0
 10
602.636624
 20
89.355170
 30
0.0
 10
603.262088
 20
89.985057
 30
0.0
 10
604.053124
 20
90.386414
 30
0.0
 10
604.929087
 20
90.525595
 30
0.0
 10
605.805077
 20
90.386414
 30
0.0
 10
606.596085
 20
89.985057
 30
0.0
 10
607.223052
 20
89.355170
 30
0.0
 10
607.624409
 20
88.567082
 30
0.0
 10
607.763590
 20
87.691091
 30
0.0
 10
607.624409
 20
86.812181
 30
0.0
 10
607.223052
 20
86.024093
 30
0.0
 10
606.596085
 20
85.392761
 30
0.0
 10
605.805077
 20
84.992849
 30
0.0
  0
LWPOLYLINE
  5
115
100
AcDbEntity
  8
0
 62
7
100
AcDbPolyline
 90
20
 70
1
 10
337.808987
 20
84.856503
 30
0.0
 10
336.933025
 20
84.992849
 30
0.0
 10
336.142017
 20
85.392761
 30
0.0
 10
335.516524
 20
86.024093
 30
0.0
 10
335.113664
 20
86.812181
 30
0.0
 10
334.974483
 20
87.691091
 30
0.0
 10
335.113664
 20
88.567082
 30
0.0
 10
335.516524
 20
89.355170
 30
0.0
 10
336.142017
 20
89.985057
 30
0.0
 10
336.933025
 20
90.386414
 30
0.0
 10
337.808987
 20
90.525595
 30
0.0
 10
338.684978
 20
90.386414
 30
0.0
 10
339.475985
 20
89.985057
 30
0.0
 10
340.102952
 20
89.355170
 30
0.0
 10
340.504281
 20
88.567082
 30
0.0
 10
340.643463
 20
87.691091
 30
0.0
 10
340.504281
 20
86.812181
 30
0.0
 10
340.102952
 20
86.024093
 30
0.0
 10
339.475985
 20
85.392761
 30
0.0
 10
338.684978
 20
84.992849
 30
0.0
  0
LWPOLYLINE
  5
116
100
AcDbEntity
  8
0
 62
7
100
AcDbPolyline
 90
20
 70
1
 10
70.688811
 20
84.856503
 30
0.0
 10
69.812821
 20
84.992849
 30
0.0
 10
69.024789
 20
85.392761
 30
0.0
 10
68.396377
 20
86.024093
 30
0.0
 10
67.993545
 20
86.812181
 30
0.0
 10
67.854364
 20
87.691091
 30
0.0
 10
67.993545
 20
88.567082
 30
0.0
 10
68.396377
 20
89.355170
 30
0.0
 10
69.024789
 20
89.985057
 30
0.0
 10
69.812821
 20
90.386414
 30
0.0
 10
70.688811
 20
90.525595
 30
0.0
 10
71.567750
 20
90.386414
 30
0.0
 10
72.355838
 20
89.985057
 30
0.0
 10
72.985696
 20
89.355170
 30
0.0
 10
73.387082
 20
88.567082
 30
0.0
 10
73.523145
 20
87.691091
 30
0.0
 10
73.387082
 20
86.812181
 30
0.0
 10
72.985696
 20
86.024093
 30
0.0
 10
72.355838
 20
85.392761
 30
0.0
 10
71.567750
 20
84.992849
 30
0.0
  0
LWPOLYLINE
  5
117
100
AcDbEntity
  8
0
 62
7
100
AcDbPolyline
 90
20
 70
1
 10
66.735189
 20
381.960473
 30
0.0
 10
65.859255
 20
382.096820
 30
0.0
 10
65.071167
 20
382.496732
 30
0.0
 10
64.441252
 20
383.128064
 30
0.0
 10
64.039923
 20
383.916152
 30
0.0
 10
63.900742
 20
384.795062
 30
0.0
 10
64.039923
 20
385.671053
 30
0.0
 10
64.441252
 20
386.459112
 30
0.0
 10
65.071167
 20
387.089027
 30
0.0
 10
65.859255
 20
387.491859
 30
0.0
 10
66.738109
 20
387.629623
 30
0.0
 10
67.614128
 20
387.491859
 30
0.0
 10
68.402216
 20
387.089027
 30
0.0
 10
69.033577
 20
386.459112
 30
0.0
 10
69.433460
 20
385.671053
 30
0.0
 10
69.572641
 20
384.795062
 30
0.0
 10
69.433460
 20
383.916152
 30
0.0
 10
69.033577
 20
383.128064
 30
0.0
 10
68.402216
 20
382.496732
 30
0.0
 10
67.614128
 20
382.096820
 30
0.0
  0
LWPOLYLINE
  5
118
100
AcDbEntity
  8
0
 62
7
100
AcDbPolyline
 90
20
 70
1
 10
112.623242
 20
451.800353
 30
0.0
 10
111.747223
 20
451.939534
 30
0.0
 10
110.959191
 20
452.340892
 30
0.0
 10
110.330779
 20
452.970779
 30
0.0
 10
109.927947
 20
453.758867
 30
0.0
 10
109.788766
 20
454.634857
 30
0.0
 10
109.927947
 20
455.513767
 30
0.0
 10
110.330779
 20
456.301856
 30
0.0
 10
110.959191
 20
456.930268
 30
0.0
 10
111.747223
 20
457.333100
 30
0.0
 10
112.623242
 20
457.469446
 30
0.0
 10
113.502152
 20
457.333100
 30
0.0
 10
114.290268
 20
456.930268
 30
0.0
 10
114.920098
 20
456.301856
 30
0.0
 10
115.321512
 20
455.513767
 30
0.0
 10
115.457575
 20
454.634857
 30
0.0
 10
115.321512
 20
453.758867
 30
0.0
 10
114.920098
 20
452.970779
 30
0.0
 10
114.290268
 20
452.340892
 30
0.0
 10
113.502152
 20
451.939534
 30
0.0
  0
LWPOLYLINE
  5
119
100
AcDbEntity
  8
0
 62
7
100
AcDbPolyline
 90
20
 70
1
 10
379.743344
 20
451.800353
 30
0.0
 10
378.867382
 20
451.939534
 30
0.0
 10
378.076374
 20
452.340892
 30
0.0
 10
377.450881
 20
452.970779
 30
0.0
 10
377.048050
 20
453.758867
 30
0.0
 10
376.908868
 20
454.634857
 30
0.0
 10
377.048050
 20
455.513767
 30
0.0
 10
377.450881
 20
456.301856
 30
0.0
 10
378.076374
 20
456.930268
 30
0.0
 10
378.867382
 20
457.333100
 30
0.0
 10
379.743344
 20
457.469446
 30
0.0
 10
380.619334
 20
457.333100
 30
0.0
 10
381.410342
 20
456.930268
 30
0.0
 10
382.037309
 20
456.301856
 30
0.0
 10
382.438667
 20
455.513767
 30
0.0
 10
382.577848
 20
454.634857
 30
0.0
 10
382.438667
 20
453.758867
 30
0.0
 10
382.037309
 20
452.970779
 30
0.0
 10
381.410342
 20
452.340892
 30
0.0
 10
380.619334
 20
451.939534
 30
0.0
  0
LWPOLYLINE
  5
11a
100
AcDbEntity
  8
0
 62
7
100
AcDbPolyline
 90
20
 70
1
 10
646.863472
 20
451.800353
 30
0.0
 10
645.987481
 20
451.939534
 30
0.0
 10
645.196473
 20
452.340892
 30
0.0
 10
644.570980
 20
452.970779
 30
0.0
 10
644.168149
 20
453.758867
 30
0.0
 10
644.028968
 20
454.634857
 30
0.0
 10
644.168149
 20
455.513767
 30
0.0
 10
644.570980
 20
456.301856
 30
0.0
 10
645.196473
 20
456.930268
 30
0.0
 10
645.987481
 20
457.333100
 30
0.0
 10
646.863472
 20
457.469446
 30
0.0
 10
647.739434
 20
457.333100
 30
0.0
 10
648.530470
 20
456.930268
 30
0.0
 10
649.157409
 20
456.301856
 30
0.0
 10
649.558766
 20
455.513767
 30
0.0
 10
649.697947
 20
454.634857
 30
0.0
 10
649.558766
 20
453.758867
 30
0.0
 10
649.157409
 20
452.970779
 30
0.0
 10
648.530470
 20
452.340892
 30
0.0
 10
647.739434
 20
451.939534
 30
0.0
  0
LWPOLYLINE
  5
11b
100
AcDbEntity
  8
0
 62
7
100
AcDbPolyline
 90
20
 70
1
 10
913.980623
 20
451.800353
 30
0.0
 10
913.104661
 20
451.939534
 30
0.0
 10
912.316573
 20
452.340892
 30
0.0
 10
911.686686
 20
452.970779
 30
0.0
 10
911.285329
 20
453.758867
 30
0.0
 10
911.146148
 20
454.634857
 30
0.0
 10
911.285329
 20
455.513767
 30
0.0
 10
911.686686
 20
456.301856
 30
0.0
 10
912.316573
 20
456.930268
 30
0.0
 10
913.104661
 20
457.333100
 30
0.0
 10
913.983571
 20
457.469446
 30
0.0
 10
914.859533
 20
457.333100
 30
0.0
 10
915.647621
 20
456.930268
 30
0.0
 10
916.278982
 20
456.301856
 30
0.0
 10
916.678865
 20
455.513767
 30
0.0
 10
916.818047
 20
454.634857
 30
0.0
 10
916.678865
 20
453.758867
 30
0.0
 10
916.278982
 20
452.970779
 30
0.0
 10
915.647621
 20
452.340892
 30
0.0
 10
914.859533
 20
451.939534
 30
0.0
  0
LWPOLYLINE
  5
11c
100
AcDbEntity
  8
0
 62
7
100
AcDbPolyline
 90
20
 70
1
 10
917.934245
 20
154.694883
 30
0.0
 10
917.058254
 20
154.831230
 30
0.0
 10
916.270195
 20
155.231113
 30
0.0
 10
915.641754
 20
155.863948
 30
0.0
 10
915.238922
 20
156.652008
 30
0.0
 10
915.099741
 20
157.530918
 30
0.0
 10
915.238922
 20
158.406908
 30
0.0
 10
915.641754
 20
159.193522
 30
0.0
 10
916.270195
 20
159.823409
 30
0.0
 10
917.058254
 20
160.226240
 30
0.0
 10
917.937165
 20
160.365422
 30
0.0
 10
918.813155
 20
160.226240
 30
0.0
 10
919.601243
 20
159.823409
 30
0.0
 10
920.234050
 20
159.193522
 30
0.0
 10
920.632487
 20
158.406908
 30
0.0
 10
920.771668
 20
157.530918
 30
0.0
 10
920.632487
 20
156.652008
 30
0.0
 10
920.234050
 20
155.863948
 30
0.0
 10
919.601243
 20
155.231113
 30
0.0
 10
918.813155
 20
154.831230
 30
0.0
  0
LWPOLYLINE
  5
11d
100
AcDbEntity
  8
0
 62
7
100
AcDbPolyline
 90
47
 70
1
 10
101.285340
 20
446.313047
 30
0.0
 10
115.933796
 20
446.313047
 30
0.0
 10
910.670097
 20
446.313047
 30
0.0
 10
910.670097
 20
147.621139
 30
0.0
 10
925.318525
 20
147.621139
 30
0.0
 10
925.321360
 20
451.800353
 30
0.0
 10
925.276005
 20
452.913632
 30
0.0
 10
925.145612
 20
454.019597
 30
0.0
 10
924.927344
 20
455.110908
 30
0.0
 10
924.627041
 20
456.181695
 30
0.0
 10
924.241785
 20
457.226148
 30
0.0
 10
923.777441
 20
458.233950
 30
0.0
 10
923.232509
 20
459.206602
 30
0.0
 10
922.614358
 20
460.130923
 30
0.0
 10
921.925879
 20
461.006885
 30
0.0
 10
921.168547
 20
461.822810
 30
0.0
 10
920.352623
 20
462.580142
 30
0.0
 10
919.476661
 20
463.268621
 30
0.0
 10
918.552339
 20
463.886772
 30
0.0
 10
917.581162
 20
464.431704
 30
0.0
 10
916.571886
 20
464.896047
 30
0.0
 10
915.528906
 20
465.281304
 30
0.0
 10
914.456645
 20
465.581606
 30
0.0
 10
913.365335
 20
465.799874
 30
0.0
 10
912.259370
 20
465.930268
 30
0.0
 10
911.146091
 20
465.972787
 30
0.0
 10
115.457660
 20
465.975622
 30
0.0
 10
114.347273
 20
465.930268
 30
0.0
 10
113.241336
 20
465.799874
 30
0.0
 10
112.149998
 20
465.581606
 30
0.0
 10
111.079210
 20
465.281332
 30
0.0
 10
110.034785
 20
464.896076
 30
0.0
 10
109.027012
 20
464.431732
 30
0.0
 10
108.054332
 20
463.886800
 30
0.0
 10
107.130010
 20
463.268621
 30
0.0
 10
106.254020
 20
462.580170
 30
0.0
 10
105.438096
 20
461.822838
 30
0.0
 10
104.680820
 20
461.006914
 30
0.0
 10
103.992313
 20
460.130923
 30
0.0
 10
103.374162
 20
459.206630
 30
0.0
 10
102.829230
 20
458.233978
 30
0.0
 10
102.364886
 20
457.226148
 30
0.0
 10
101.979630
 20
456.181723
 30
0.0
 10
101.679327
 20
455.110908
 30
0.0
 10
101.461060
 20
454.019626
 30
0.0
 10
101.330666
 20
452.913660
 30
0.0
 10
101.285028
 20
451.800382
 30
0.0
  0
LWPOLYLINE
  5
11e
100
AcDbEntity
  8
0
 62
7
100
AcDbPolyline
 90
48
 70
1
 10
134.207196
 20
490.404178
 30
0.0
 10
133.093918
 20
490.358823
 30
0.0
 10
131.987952
 20
490.228430
 30
0.0
 10
130.896642
 20
490.010162
 30
0.0
 10
129.824353
 20
489.709888
 30
0.0
 10
128.781401
 20
489.324603
 30
0.0
 10
127.772126
 20
488.860288
 30
0.0
 10
126.800948
 20
488.315327
 30
0.0
 10
125.876655
 20
487.697176
 30
0.0
 10
125.000665
 20
487.008726
 30
0.0
 10
124.184740
 20
486.251365
 30
0.0
 10
123.427380
 20
485.435441
 30
0.0
 10
122.738958
 20
484.559479
 30
0.0
 10
122.120807
 20
483.635157
 30
0.0
 10
121.575846
 20
482.663951
 30
0.0
 10
121.111531
 20
481.654676
 30
0.0
 10
120.726246
 20
480.611724
 30
0.0
 10
120.425944
 20
479.539491
 30
0.0
 10
120.207676
 20
478.448181
 30
0.0
 10
120.077282
 20
477.342216
 30
0.0
 10
120.034479
 20
476.231829
 30
0.0
 10
120.034479
 20
470.722582
 30
0.0
 10
134.682963
 20
470.722582
 30
0.0
 10
134.682963
 20
470.745259
 30
0.0
 10
929.419633
 20
470.745259
 30
0.0
 10
929.419633
 20
172.030697
 30
0.0
 10
944.068118
 20
172.030697
 30
0.0
 10
944.068118
 20
476.228881
 30
0.0
 10
944.025314
 20
477.342159
 30
0.0
 10
943.894921
 20
478.448125
 30
0.0
 10
943.676653
 20
479.539435
 30
0.0
 10
943.376351
 20
480.611696
 30
0.0
 10
942.991066
 20
481.654647
 30
0.0
 10
942.526751
 20
482.663951
 30
0.0
 10
941.981790
 20
483.635129
 30
0.0
 10
941.363639
 20
484.559450
 30
0.0
 10
940.675160
 20
485.435412
 30
0.0
 10
939.917885
 20
486.251337
 30
0.0
 10
939.101960
 20
487.008669
 30
0.0
 10
938.225942
 20
487.697148
 30
0.0
 10
937.301649
 20
488.315299
 30
0.0
 10
936.328968
 20
488.860231
 30
0.0
 10
935.321195
 20
489.324574
 30
0.0
 10
934.276742
 20
489.709831
 30
0.0
 10
933.205983
 20
490.010133
 30
0.0
 10
932.114644
 20
490.228401
 30
0.0
 10
931.008707
 20
490.358795
 30
0.0
 10
929.898320
 20
490.404149
 30
0.0
  0
LWPOLYLINE
  5
11f
100
AcDbEntity
  8
0
 62
7
100
AcDbPolyline
 90
20
 70
1
 10
131.372721
 20
481.897832
 30
0.0
 10
132.248655
 20
481.761485
 30
0.0
 10
133.036743
 20
481.361573
 30
0.0
 10
133.666686
 20
480.730241
 30
0.0
 10
134.068015
 20
479.942153
 30
0.0
 10
134.207196
 20
479.063243
 30
0.0
 10
134.068015
 20
478.187252
 30
0.0
 10
133.666686
 20
477.399164
 30
0.0
 10
133.036743
 20
476.769277
 30
0.0
 10
132.248655
 20
476.367920
 30
0.0
 10
131.369801
 20
476.228739
 30
0.0
 10
130.493811
 20
476.367920
 30
0.0
 10
129.705694
 20
476.769277
 30
0.0
 10
129.074419
 20
477.399164
 30
0.0
 10
128.674450
 20
478.187252
 30
0.0
 10
128.535269
 20
479.063243
 30
0.0
 10
128.674450
 20
479.942153
 30
0.0
 10
129.074419
 20
480.730241
 30
0.0
 10
129.705694
 20
481.361573
 30
0.0
 10
130.493811
 20
481.761485
 30
0.0
  0
LWPOLYLINE
  5
120
100
AcDbEntity
  8
0
 62
7
100
AcDbPolyline
 90
20
 70
1
 10
398.489904
 20
481.897832
 30
0.0
 10
399.365866
 20
481.761485
 30
0.0
 10
400.156902
 20
481.361573
 30
0.0
 10
400.782366
 20
480.730241
 30
0.0
 10
401.185198
 20
479.942153
 30
0.0
 10
401.324379
 20
479.063243
 30
0.0
 10
401.185198
 20
478.187252
 30
0.0
 10
400.782366
 20
477.399164
 30
0.0
 10
400.156902
 20
476.769277
 30
0.0
 10
399.365866
 20
476.367920
 30
0.0
 10
398.489904
 20
476.228739
 30
0.0
 10
397.613913
 20
476.367920
 30
0.0
 10
396.822905
 20
476.769277
 30
0.0
 10
396.195938
 20
477.399164
 30
0.0
 10
395.794581
 20
478.187252
 30
0.0
 10
395.655400
 20
479.063243
 30
0.0
 10
395.794581
 20
479.942153
 30
0.0
 10
396.195938
 20
480.730241
 30
0.0
 10
396.822905
 20
481.361573
 30
0.0
 10
397.613913
 20
481.761485
 30
0.0
  0
LWPOLYLINE
  5
121
100
AcDbEntity
  8
0
 62
7
100
AcDbPolyline
 90
20
 70
1
 10
665.610003
 20
481.897832
 30
0.0
 10
666.485965
 20
481.761485
 30
0.0
 10
667.276973
 20
481.361573
 30
0.0
 10
667.902466
 20
480.730241
 30
0.0
 10
668.305326
 20
479.942153
 30
0.0
 10
668.444507
 20
479.063243
 30
0.0
 10
668.305326
 20
478.187252
 30
0.0
 10
667.902466
 20
477.399164
 30
0.0
 10
667.276973
 20
476.769277
 30
0.0
 10
666.485965
 20
476.367920
 30
0.0
 10
665.610003
 20
476.228739
 30
0.0
 10
664.734013
 20
476.367920
 30
0.0
 10
663.943005
 20
476.769277
 30
0.0
 10
663.316038
 20
477.399164
 30
0.0
 10
662.914709
 20
478.187252
 30
0.0
 10
662.775528
 20
479.063243
 30
0.0
 10
662.914709
 20
479.942153
 30
0.0
 10
663.316038
 20
480.730241
 30
0.0
 10
663.943005
 20
481.361573
 30
0.0
 10
664.734013
 20
481.761485
 30
0.0
  0
LWPOLYLINE
  5
122
100
AcDbEntity
  8
0
 62
7
100
AcDbPolyline
 90
20
 70
1
 10
932.730216
 20
481.897832
 30
0.0
 10
933.606206
 20
481.761485
 30
0.0
 10
934.394238
 20
481.361573
 30
0.0
 10
935.022650
 20
480.730241
 30
0.0
 10
935.425482
 20
479.942153
 30
0.0
 10
935.564663
 20
479.063243
 30
0.0
 10
935.425482
 20
478.187252
 30
0.0
 10
935.022650
 20
477.399164
 30
0.0
 10
934.394238
 20
476.769277
 30
0.0
 10
933.606206
 20
476.367920
 30
0.0
 10
932.730216
 20
476.228739
 30
0.0
 10
931.851277
 20
476.367920
 30
0.0
 10
931.063189
 20
476.769277
 30
0.0
 10
930.433331
 20
477.399164
 30
0.0
 10
930.031945
 20
478.187252
 30
0.0
 10
929.895882
 20
479.063243
 30
0.0
 10
930.031945
 20
479.942153
 30
0.0
 10
930.433331
 20
480.730241
 30
0.0
 10
931.063189
 20
481.361573
 30
0.0
 10
931.851277
 20
481.761485
 30
0.0
  0
LWPOLYLINE
  5
123
100
AcDbEntity
  8
0
 62
7
100
AcDbPolyline
 90
20
 70
1
 10
936.683838
 20
184.793886
 30
0.0
 10
937.559771
 20
184.657540
 30
0.0
 10
938.347860
 20
184.257628
 30
0.0
 10
938.977775
 20
183.626296
 30
0.0
 10
939.379104
 20
182.838208
 30
0.0
 10
939.518285
 20
181.959298
 30
0.0
 10
939.379104
 20
181.083307
 30
0.0
 10
938.977775
 20
180.295247
 30
0.0
 10
938.347860
 20
179.665332
 30
0.0
 10
937.559771
 20
179.262501
 30
0.0
 10
936.680918
 20
179.124737
 30
0.0
 10
935.804899
 20
179.262501
 30
0.0
 10
935.016811
 20
179.665332
 30
0.0
 10
934.385450
 20
180.295247
 30
0.0
 10
933.985567
 20
181.083307
 30
0.0
 10
933.846386
 20
181.959298
 30
0.0
 10
933.985567
 20
182.838208
 30
0.0
 10
934.385450
 20
183.626296
 30
0.0
 10
935.016811
 20
184.257628
 30
0.0
 10
935.804899
 20
184.657540
 30
0.0
  0
LWPOLYLINE
  5
124
100
AcDbEntity
  8
0
 62
7
100
AcDbPolyline
 90
20
 70
1
 10
150.122200
 20
500.638523
 30
0.0
 10
149.246181
 20
500.777705
 30
0.0
 10
148.458150
 20
501.179062
 30
0.0
 10
147.829737
 20
501.808949
 30
0.0
 10
147.426906
 20
502.597037
 30
0.0
 10
147.287725
 20
503.473027
 30
0.0
 10
147.426906
 20
504.351937
 30
0.0
 10
147.829737
 20
505.140026
 30
0.0
 10
148.458150
 20
505.768438
 30
0.0
 10
149.246181
 20
506.171270
 30
0.0
 10
150.122200
 20
506.307616
 30
0.0
 10
151.001111
 20
506.171270
 30
0.0
 10
151.789227
 20
505.768438
 30
0.0
 10
152.419057
 20
505.140026
 30
0.0
 10
152.820471
 20
504.351937
 30
0.0
 10
152.956534
 20
503.473027
 30
0.0
 10
152.820471
 20
502.597037
 30
0.0
 10
152.419057
 20
501.808949
 30
0.0
 10
151.789227
 20
501.179062
 30
0.0
 10
151.001111
 20
500.777705
 30
0.0
  0
LWPOLYLINE
  5
125
100
AcDbEntity
  8
0
 62
7
100
AcDbPolyline
 90
20
 70
1
 10
417.242303
 20
500.638523
 30
0.0
 10
416.366340
 20
500.777705
 30
0.0
 10
415.575333
 20
501.179062
 30
0.0
 10
414.949840
 20
501.808949
 30
0.0
 10
414.547008
 20
502.597037
 30
0.0
 10
414.407827
 20
503.473027
 30
0.0
 10
414.547008
 20
504.351937
 30
0.0
 10
414.949840
 20
505.140026
 30
0.0
 10
415.575333
 20
505.768438
 30
0.0
 10
416.366340
 20
506.171270
 30
0.0
 10
417.242303
 20
506.307616
 30
0.0
 10
418.118293
 20
506.171270
 30
0.0
 10
418.909301
 20
505.768438
 30
0.0
 10
419.536268
 20
505.140026
 30
0.0
 10
419.937625
 20
504.351937
 30
0.0
 10
420.076806
 20
503.473027
 30
0.0
 10
419.937625
 20
502.597037
 30
0.0
 10
419.536268
 20
501.808949
 30
0.0
 10
418.909301
 20
501.179062
 30
0.0
 10
418.118293
 20
500.777705
 30
0.0
  0
LWPOLYLINE
  5
126
100
AcDbEntity
  8
0
 62
7
100
AcDbPolyline
 90
20
 70
1
 10
684.362430
 20
500.638523
 30
0.0
 10
683.486468
 20
500.777705
 30
0.0
 10
682.695432
 20
501.179062
 30
0.0
 10
682.069968
 20
501.808949
 30
0.0
 10
681.667108
 20
502.597037
 30
0.0
 10
681.527927
 20
503.473027
 30
0.0
 10
681.667108
 20
504.351937
 30
0.0
 10
682.069968
 20
505.140026
 30
0.0
 10
682.695432
 20
505.768438
 30
0.0
 10
683.486468
 20
506.171270
 30
0.0
 10
684.362430
 20
506.307616
 30
0.0
 10
685.238421
 20
506.171270
 30
0.0
 10
686.029429
 20
505.768438
 30
0.0
 10
686.656367
 20
505.140026
 30
0.0
 10
687.057753
 20
504.351937
 30
0.0
 10
687.196934
 20
503.473027
 30
0.0
 10
687.057753
 20
502.597037
 30
0.0
 10
686.656367
 20
501.808949
 30
0.0
 10
686.029429
 20
501.179062
 30
0.0
 10
685.238421
 20
500.777705
 30
0.0
  0
LWPOLYLINE
  5
127
100
AcDbEntity
  8
0
 62
7
100
AcDbPolyline
 90
20
 70
1
 10
951.479582
 20
500.638523
 30
0.0
 10
950.603591
 20
500.777705
 30
0.0
 10
949.815503
 20
501.179062
 30
0.0
 10
949.185617
 20
501.808949
 30
0.0
 10
948.784259
 20
502.597037
 30
0.0
 10
948.645078
 20
503.473027
 30
0.0
 10
948.784259
 20
504.351937
 30
0.0
 10
949.185617
 20
505.140026
 30
0.0
 10
949.815503
 20
505.768438
 30
0.0
 10
950.603591
 20
506.171270
 30
0.0
 10
951.482501
 20
506.307616
 30
0.0
 10
952.358464
 20
506.171270
 30
0.0
 10
953.146552
 20
505.768438
 30
0.0
 10
953.777912
 20
505.140026
 30
0.0
 10
954.177796
 20
504.351937
 30
0.0
 10
954.316977
 20
503.473027
 30
0.0
 10
954.177796
 20
502.597037
 30
0.0
 10
953.777912
 20
501.808949
 30
0.0
 10
953.146552
 20
501.179062
 30
0.0
 10
952.358464
 20
500.777705
 30
0.0
  0
LWPOLYLINE
  5
128
100
AcDbEntity
  8
0
 62
7
100
AcDbPolyline
 90
20
 70
1
 10
955.433175
 20
203.533048
 30
0.0
 10
954.557213
 20
203.669394
 30
0.0
 10
953.769125
 20
204.069306
 30
0.0
 10
953.140712
 20
204.702112
 30
0.0
 10
952.737881
 20
205.490200
 30
0.0
 10
952.598700
 20
206.369110
 30
0.0
 10
952.737881
 20
207.245101
 30
0.0
 10
953.140712
 20
208.031715
 30
0.0
 10
953.769125
 20
208.661602
 30
0.0
 10
954.557213
 20
209.064433
 30
0.0
 10
955.436123
 20
209.203614
 30
0.0
 10
956.312085
 20
209.064433
 30
0.0
 10
957.100174
 20
208.661602
 30
0.0
 10
957.732980
 20
208.031715
 30
0.0
 10
958.131418
 20
207.245101
 30
0.0
 10
958.270599
 20
206.369110
 30
0.0
 10
958.131418
 20
205.490200
 30
0.0
 10
957.732980
 20
204.702112
 30
0.0
 10
957.100174
 20
204.069306
 30
0.0
 10
956.312085
 20
203.669394
 30
0.0
  0
LWPOLYLINE
  5
129
100
AcDbEntity
  8
0
 62
7
100
AcDbPolyline
 90
47
 70
1
 10
138.784299
 20
495.151217
 30
0.0
 10
153.432755
 20
495.151217
 30
0.0
 10
948.169028
 20
495.151217
 30
0.0
 10
948.169028
 20
196.459331
 30
0.0
 10
962.817455
 20
196.459331
 30
0.0
 10
962.820290
 20
500.638523
 30
0.0
 10
962.774936
 20
501.751802
 30
0.0
 10
962.644542
 20
502.857767
 30
0.0
 10
962.426274
 20
503.949078
 30
0.0
 10
962.125972
 20
505.019865
 30
0.0
 10
961.740715
 20
506.064318
 30
0.0
 10
961.276372
 20
507.072120
 30
0.0
 10
960.731440
 20
508.044772
 30
0.0
 10
960.113288
 20
508.969093
 30
0.0
 10
959.424810
 20
509.845055
 30
0.0
 10
958.667477
 20
510.660980
 30
0.0
 10
957.851581
 20
511.418312
 30
0.0
 10
956.975591
 20
512.106791
 30
0.0
 10
956.051270
 20
512.724942
 30
0.0
 10
955.080092
 20
513.269874
 30
0.0
 10
954.070816
 20
513.734217
 30
0.0
 10
953.027837
 20
514.119474
 30
0.0
 10
951.955575
 20
514.419776
 30
0.0
 10
950.864265
 20
514.638044
 30
0.0
 10
949.758300
 20
514.768437
 30
0.0
 10
948.645021
 20
514.810957
 30
0.0
 10
152.956619
 20
514.813792
 30
0.0
 10
151.846232
 20
514.768437
 30
0.0
 10
150.740295
 20
514.638044
 30
0.0
 10
149.648956
 20
514.419776
 30
0.0
 10
148.578169
 20
514.119502
 30
0.0
 10
147.533744
 20
513.734246
 30
0.0
 10
146.525971
 20
513.269902
 30
0.0
 10
145.553290
 20
512.724970
 30
0.0
 10
144.628969
 20
512.106791
 30
0.0
 10
143.752979
 20
511.418340
 30
0.0
 10
142.937054
 20
510.661008
 30
0.0
 10
142.179779
 20
509.845084
 30
0.0
 10
141.491272
 20
508.969093
 30
0.0
 10
140.873121
 20
508.044800
 30
0.0
 10
140.328188
 20
507.072148
 30
0.0
 10
139.863845
 20
506.064318
 30
0.0
 10
139.478588
 20
505.019893
 30
0.0
 10
139.178286
 20
503.949078
 30
0.0
 10
138.960018
 20
502.857796
 30
0.0
 10
138.829625
 20
501.751830
 30
0.0
 10
138.783987
 20
500.638552
 30
0.0
  0
LWPOLYLINE
  5
12a
100
AcDbEntity
  8
0
 62
7
100
AcDbPolyline
 90
48
 70
1
 10
171.706127
 20
539.242361
 30
0.0
 10
170.592848
 20
539.197007
 30
0.0
 10
169.486883
 20
539.066613
 30
0.0
 10
168.395573
 20
538.848345
 30
0.0
 10
167.323283
 20
538.548071
 30
0.0
 10
166.280332
 20
538.162786
 30
0.0
 10
165.271056
 20
537.698471
 30
0.0
 10
164.299878
 20
537.153511
 30
0.0
 10
163.375585
 20
536.535360
 30
0.0
 10
162.499595
 20
535.846909
 30
0.0
 10
161.683671
 20
535.089549
 30
0.0
 10
160.926310
 20
534.273624
 30
0.0
 10
160.237888
 20
533.397662
 30
0.0
 10
159.619737
 20
532.473341
 30
0.0
 10
159.074776
 20
531.502135
 30
0.0
 10
158.610461
 20
530.492859
 30
0.0
 10
158.225176
 20
529.449908
 30
0.0
 10
157.924874
 20
528.377675
 30
0.0
 10
157.706606
 20
527.286365
 30
0.0
 10
157.576213
 20
526.180400
 30
0.0
 10
157.533409
 20
525.070012
 30
0.0
 10
157.533409
 20
519.560766
 30
0.0
 10
172.181894
 20
519.560766
 30
0.0
 10
172.181894
 20
519.583443
 30
0.0
 10
966.918564
 20
519.583443
 30
0.0
 10
966.918564
 20
220.868889
 30
0.0
 10
981.567048
 20
220.868889
 30
0.0
 10
981.567048
 20
525.067064
 30
0.0
 10
981.524245
 20
526.180343
 30
0.0
 10
981.393851
 20
527.286308
 30
0.0
 10
981.175583
 20
528.377618
 30
0.0
 10
980.875281
 20
529.449880
 30
0.0
 10
980.489996
 20
530.492831
 30
0.0
 10
980.025681
 20
531.502135
 30
0.0
 10
979.480720
 20
532.473313
 30
0.0
 10
978.862569
 20
533.397634
 30
0.0
 10
978.174091
 20
534.273596
 30
0.0
 10
977.416815
 20
535.089520
 30
0.0
 10
976.600891
 20
535.846853
 30
0.0
 10
975.724872
 20
536.535331
 30
0.0
 10
974.800579
 20
537.153483
 30
0.0
 10
973.827899
 20
537.698415
 30
0.0
 10
972.820126
 20
538.162758
 30
0.0
 10
971.775672
 20
538.548015
 30
0.0
 10
970.704913
 20
538.848317
 30
0.0
 10
969.613575
 20
539.066585
 30
0.0
 10
968.507638
 20
539.196979
 30
0.0
 10
967.397250
 20
539.242333
 30
0.0
  0
LWPOLYLINE
  5
12b
100
AcDbEntity
  8
0
 62
7
100
AcDbPolyline
 90
20
 70
1
 10
168.871651
 20
530.736015
 30
0.0
 10
169.747585
 20
530.599669
 30
0.0
 10
170.535673
 20
530.199757
 30
0.0
 10
171.165617
 20
529.568425
 30
0.0
 10
171.566946
 20
528.780337
 30
0.0
 10
171.706127
 20
527.901426
 30
0.0
 10
171.566946
 20
527.025436
 30
0.0
 10
171.165617
 20
526.237348
 30
0.0
 10
170.535673
 20
525.607461
 30
0.0
 10
169.747585
 20
525.206104
 30
0.0
 10
168.868732
 20
525.066923
 30
0.0
 10
167.992741
 20
525.206104
 30
0.0
 10
167.204625
 20
525.607461
 30
0.0
 10
166.573349
 20
526.237348
 30
0.0
 10
166.173381
 20
527.025436
 30
0.0
 10
166.034200
 20
527.901426
 30
0.0
 10
166.173381
 20
528.780337
 30
0.0
 10
166.573349
 20
529.568425
 30
0.0
 10
167.204625
 20
530.199757
 30
0.0
 10
167.992741
 20
530.599669
 30
0.0
  0
LWPOLYLINE
  5
12c
100
AcDbEntity
  8
0
 62
7
100
AcDbPolyline
 90
20
 70
1
 10
435.988834
 20
530.736015
 30
0.0
 10
436.864796
 20
530.599669
 30
0.0
 10
437.655832
 20
530.199757
 30
0.0
 10
438.281297
 20
529.568425
 30
0.0
 10
438.684128
 20
528.780337
 30
0.0
 10
438.823309
 20
527.901426
 30
0.0
 10
438.684128
 20
527.025436
 30
0.0
 10
438.281297
 20
526.237348
 30
0.0
 10
437.655832
 20
525.607461
 30
0.0
 10
436.864796
 20
525.206104
 30
0.0
 10
435.988834
 20
525.066923
 30
0.0
 10
435.112843
 20
525.206104
 30
0.0
 10
434.321836
 20
525.607461
 30
0.0
 10
433.694869
 20
526.237348
 30
0.0
 10
433.293511
 20
527.025436
 30
0.0
 10
433.154330
 20
527.901426
 30
0.0
 10
433.293511
 20
528.780337
 30
0.0
 10
433.694869
 20
529.568425
 30
0.0
 10
434.321836
 20
530.199757
 30
0.0
 10
435.112843
 20
530.599669
 30
0.0
  0
LWPOLYLINE
  5
12d
100
AcDbEntity
  8
0
 62
7
100
AcDbPolyline
 90
20
 70
1
 10
703.108990
 20
530.736015
 30
0.0
 10
703.984952
 20
530.599669
 30
0.0
 10
704.775960
 20
530.199757
 30
0.0
 10
705.401453
 20
529.568425
 30
0.0
 10
705.804313
 20
528.780337
 30
0.0
 10
705.943494
 20
527.901426
 30
0.0
 10
705.804313
 20
527.025436
 30
0.0
 10
705.401453
 20
526.237348
 30
0.0
 10
704.775960
 20
525.607461
 30
0.0
 10
703.984952
 20
525.206104
 30
0.0
 10
703.108990
 20
525.066923
 30
0.0
 10
702.233000
 20
525.206104
 30
0.0
 10
701.441992
 20
525.607461
 30
0.0
 10
700.815025
 20
526.237348
 30
0.0
 10
700.413696
 20
527.025436
 30
0.0
 10
700.274515
 20
527.901426
 30
0.0
 10
700.413696
 20
528.780337
 30
0.0
 10
700.815025
 20
529.568425
 30
0.0
 10
701.441992
 20
530.199757
 30
0.0
 10
702.233000
 20
530.599669
 30
0.0
  0
LWPOLYLINE
  5
12e
100
AcDbEntity
  8
0
 62
7
100
AcDbPolyline
 90
20
 70
1
 10
970.229146
 20
530.736015
 30
0.0
 10
971.105137
 20
530.599669
 30
0.0
 10
971.893168
 20
530.199757
 30
0.0
 10
972.521581
 20
529.568425
 30
0.0
 10
972.924412
 20
528.780337
 30
0.0
 10
973.063593
 20
527.901426
 30
0.0
 10
972.924412
 20
527.025436
 30
0.0
 10
972.521581
 20
526.237348
 30
0.0
 10
971.893168
 20
525.607461
 30
0.0
 10
971.105137
 20
525.206104
 30
0.0
 10
970.229146
 20
525.066923
 30
0.0
 10
969.350208
 20
525.206104
 30
0.0
 10
968.562119
 20
525.607461
 30
0.0
 10
967.932261
 20
526.237348
 30
0.0
 10
967.530875
 20
527.025436
 30
0.0
 10
967.394812
 20
527.901426
 30
0.0
 10
967.530875
 20
528.780337
 30
0.0
 10
967.932261
 20
529.568425
 30
0.0
 10
968.562119
 20
530.199757
 30
0.0
 10
969.350208
 20
530.599669
 30
0.0
  0
LWPOLYLINE
  5
12f
100
AcDbEntity
  8
0
 62
7
100
AcDbPolyline
 90
20
 70
1
 10
974.182768
 20
233.632079
 30
0.0
 10
975.058702
 20
233.495733
 30
0.0
 10
975.846790
 20
233.095821
 30
0.0
 10
976.476705
 20
232.464489
 30
0.0
 10
976.878034
 20
231.676400
 30
0.0
 10
977.017215
 20
230.797490
 30
0.0
 10
976.878034
 20
229.921500
 30
0.0
 10
976.476705
 20
229.133440
 30
0.0
 10
975.846790
 20
228.503525
 30
0.0
 10
975.058702
 20
228.100694
 30
0.0
 10
974.179848
 20
227.962930
 30
0.0
 10
973.303829
 20
228.100694
 30
0.0
 10
972.515741
 20
228.503525
 30
0.0
 10
971.884381
 20
229.133440
 30
0.0
 10
971.484497
 20
229.921500
 30
0.0
 10
971.345316
 20
230.797490
 30
0.0
 10
971.484497
 20
231.676400
 30
0.0
 10
971.884381
 20
232.464489
 30
0.0
 10
972.515741
 20
233.095821
 30
0.0
 10
973.303829
 20
233.495733
 30
0.0
  0
LWPOLYLINE
  5
130
100
AcDbEntity
  8
0
 62
7
100
AcDbPolyline
 90
20
 70
1
 10
88.957662
 20
412.835648
 30
0.0
 10
89.833653
 20
412.699415
 30
0.0
 10
90.621712
 20
412.299514
 30
0.0
 10
91.250153
 20
411.666702
 30
0.0
 10
91.652985
 20
410.878617
 30
0.0
 10
91.792166
 20
409.999710
 30
0.0
 10
91.652985
 20
409.123733
 30
0.0
 10
91.250153
 20
408.337113
 30
0.0
 10
90.621712
 20
407.707233
 30
0.0
 10
89.833653
 20
407.304401
 30
0.0
 10
88.954742
 20
407.165248
 30
0.0
 10
88.078752
 20
407.304401
 30
0.0
 10
87.290652
 20
407.707233
 30
0.0
 10
86.657846
 20
408.337113
 30
0.0
 10
86.259408
 20
409.123733
 30
0.0
 10
86.120227
 20
409.999710
 30
0.0
 10
86.259408
 20
410.878617
 30
0.0
 10
86.657846
 20
411.666702
 30
0.0
 10
87.290652
 20
412.299514
 30
0.0
 10
88.078752
 20
412.699415
 30
0.0
  0
LWPOLYLINE
  5
131
100
AcDbEntity
  8
0
 62
7
100
AcDbPolyline
 90
20
 70
1
 10
90.117231
 20
428.208137
 30
0.0
 10
90.256128
 20
427.332229
 30
0.0
 10
90.655813
 20
426.544198
 30
0.0
 10
91.287939
 20
425.914906
 30
0.0
 10
92.075971
 20
425.512387
 30
0.0
 10
92.951876
 20
425.373489
 30
0.0
 10
93.830616
 20
425.512387
 30
0.0
 10
94.618648
 20
425.914906
 30
0.0
 10
95.247939
 20
426.544198
 30
0.0
 10
95.650459
 20
427.332229
 30
0.0
 10
95.789356
 20
428.208137
 30
0.0
 10
95.650459
 20
429.086877
 30
0.0
 10
95.247939
 20
429.874909
 30
0.0
 10
94.618648
 20
430.507035
 30
0.0
 10
93.830616
 20
430.906720
 30
0.0
 10
92.954711
 20
431.042783
 30
0.0
 10
92.075971
 20
430.906720
 30
0.0
 10
91.287939
 20
430.507035
 30
0.0
 10
90.655813
 20
429.874909
 30
0.0
 10
90.256128
 20
429.086877
 30
0.0
  0
LWPOLYLINE
  5
132
100
AcDbEntity
  8
0
 62
7
100
AcDbPolyline
 90
20
 70
1
 10
891.477308
 20
428.208137
 30
0.0
 10
891.613371
 20
427.332229
 30
0.0
 10
892.015890
 20
426.544198
 30
0.0
 10
892.645182
 20
425.914906
 30
0.0
 10
893.433213
 20
425.512387
 30
0.0
 10
894.311953
 20
425.373489
 30
0.0
 10
895.187859
 20
425.512387
 30
0.0
 10
895.975890
 20
425.914906
 30
0.0
 10
896.605182
 20
426.544198
 30
0.0
 10
897.007701
 20
427.332229
 30
0.0
 10
897.146599
 20
428.208137
 30
0.0
 10
897.007701
 20
429.086877
 30
0.0
 10
896.605182
 20
429.874909
 30
0.0
 10
895.975890
 20
430.507035
 30
0.0
 10
895.187859
 20
430.906720
 30
0.0
 10
894.311953
 20
431.042783
 30
0.0
 10
893.433213
 20
430.906720
 30
0.0
 10
892.645182
 20
430.507035
 30
0.0
 10
892.015890
 20
429.874909
 30
0.0
 10
891.613371
 20
429.086877
 30
0.0
  0
LWPOLYLINE
  5
133
100
AcDbEntity
  8
0
 62
7
100
AcDbPolyline
 90
20
 70
1
 10
624.357322
 20
428.208137
 30
0.0
 10
624.496219
 20
427.332229
 30
0.0
 10
624.898739
 20
426.544198
 30
0.0
 10
625.525196
 20
425.914906
 30
0.0
 10
626.316062
 20
425.512387
 30
0.0
 10
627.191967
 20
425.373489
 30
0.0
 10
628.067873
 20
425.512387
 30
0.0
 10
628.858739
 20
425.914906
 30
0.0
 10
629.485195
 20
426.544198
 30
0.0
 10
629.887715
 20
427.332229
 30
0.0
 10
630.026613
 20
428.208137
 30
0.0
 10
629.887715
 20
429.086877
 30
0.0
 10
629.485195
 20
429.874909
 30
0.0
 10
628.858739
 20
430.507035
 30
0.0
 10
628.067873
 20
430.906720
 30
0.0
 10
627.191967
 20
431.042783
 30
0.0
 10
626.316062
 20
430.906720
 30
0.0
 10
625.525196
 20
430.507035
 30
0.0
 10
624.898739
 20
429.874909
 30
0.0
 10
624.496219
 20
429.086877
 30
0.0
  0
LWPOLYLINE
  5
134
100
AcDbEntity
  8
0
 62
7
100
AcDbPolyline
 90
20
 70
1
 10
357.237336
 20
428.208137
 30
0.0
 10
357.376233
 20
427.332229
 30
0.0
 10
357.778753
 20
426.544198
 30
0.0
 10
358.405210
 20
425.914906
 30
0.0
 10
359.196076
 20
425.512387
 30
0.0
 10
360.071981
 20
425.373489
 30
0.0
 10
360.947887
 20
425.512387
 30
0.0
 10
361.738753
 20
425.914906
 30
0.0
 10
362.365209
 20
426.544198
 30
0.0
 10
362.767729
 20
427.332229
 30
0.0
 10
362.906627
 20
428.208137
 30
0.0
 10
362.767729
 20
429.086877
 30
0.0
 10
362.365209
 20
429.874909
 30
0.0
 10
361.738753
 20
430.507035
 30
0.0
 10
360.947887
 20
430.906720
 30
0.0
 10
360.071981
 20
431.042783
 30
0.0
 10
359.196076
 20
430.906720
 30
0.0
 10
358.405210
 20
430.507035
 30
0.0
 10
357.778753
 20
429.874909
 30
0.0
 10
357.376233
 20
429.086877
 30
0.0
  0
LWPOLYLINE
  5
135
100
AcDbEntity
  8
0
 62
7
100
AcDbPolyline
 90
20
 70
1
 10
90.117231
 20
112.853956
 30
0.0
 10
90.256128
 20
111.975216
 30
0.0
 10
90.655813
 20
111.187213
 30
0.0
 10
91.287939
 20
110.557922
 30
0.0
 10
92.075971
 20
110.155402
 30
0.0
 10
92.951876
 20
110.019339
 30
0.0
 10
93.830616
 20
110.155402
 30
0.0
 10
94.618648
 20
110.557922
 30
0.0
 10
95.247939
 20
111.187213
 30
0.0
 10
95.650459
 20
111.975216
 30
0.0
 10
95.789356
 20
112.853956
 30
0.0
 10
95.650459
 20
113.729862
 30
0.0
 10
95.247939
 20
114.517893
 30
0.0
 10
94.618648
 20
115.147185
 30
0.0
 10
93.830616
 20
115.549704
 30
0.0
 10
92.954711
 20
115.688602
 30
0.0
 10
92.075971
 20
115.549704
 30
0.0
 10
91.287939
 20
115.147185
 30
0.0
 10
90.655813
 20
114.517893
 30
0.0
 10
90.256128
 20
113.729862
 30
0.0
  0
LWPOLYLINE
  5
136
100
AcDbEntity
  8
0
 62
7
100
AcDbPolyline
 90
20
 70
1
 10
357.237336
 20
112.853956
 30
0.0
 10
357.376233
 20
111.975216
 30
0.0
 10
357.778753
 20
111.187213
 30
0.0
 10
358.405210
 20
110.557922
 30
0.0
 10
359.196076
 20
110.155402
 30
0.0
 10
360.071981
 20
110.019339
 30
0.0
 10
360.947887
 20
110.155402
 30
0.0
 10
361.738753
 20
110.557922
 30
0.0
 10
362.365209
 20
111.187213
 30
0.0
 10
362.767729
 20
111.975216
 30
0.0
 10
362.906627
 20
112.853956
 30
0.0
 10
362.767729
 20
113.729862
 30
0.0
 10
362.365209
 20
114.517893
 30
0.0
 10
361.738753
 20
115.147185
 30
0.0
 10
360.947887
 20
115.549704
 30
0.0
 10
360.071981
 20
115.688602
 30
0.0
 10
359.196076
 20
115.549704
 30
0.0
 10
358.405210
 20
115.147185
 30
0.0
 10
357.778753
 20
114.517893
 30
0.0
 10
357.376233
 20
113.729862
 30
0.0
  0
LWPOLYLINE
  5
137
100
AcDbEntity
  8
0
 62
7
100
AcDbPolyline
 90
20
 70
1
 10
624.357322
 20
112.853956
 30
0.0
 10
624.496219
 20
111.975216
 30
0.0
 10
624.898739
 20
111.187213
 30
0.0
 10
625.525196
 20
110.557922
 30
0.0
 10
626.316062
 20
110.155402
 30
0.0
 10
627.191967
 20
110.019339
 30
0.0
 10
628.067873
 20
110.155402
 30
0.0
 10
628.858739
 20
110.557922
 30
0.0
 10
629.485195
 20
111.187213
 30
0.0
 10
629.887715
 20
111.975216
 30
0.0
 10
630.026613
 20
112.853956
 30
0.0
 10
629.887715
 20
113.729862
 30
0.0
 10
629.485195
 20
114.517893
 30
0.0
 10
628.858739
 20
115.147185
 30
0.0
 10
628.067873
 20
115.549704
 30
0.0
 10
627.191967
 20
115.688602
 30
0.0
 10
626.316062
 20
115.549704
 30
0.0
 10
625.525196
 20
115.147185
 30
0.0
 10
624.898739
 20
114.517893
 30
0.0
 10
624.496219
 20
113.729862
 30
0.0
  0
LWPOLYLINE
  5
138
100
AcDbEntity
  8
0
 62
7
100
AcDbPolyline
 90
20
 70
1
 10
891.477308
 20
112.853956
 30
0.0
 10
891.613371
 20
111.975216
 30
0.0
 10
892.015890
 20
111.187213
 30
0.0
 10
892.645182
 20
110.557922
 30
0.0
 10
893.433213
 20
110.155402
 30
0.0
 10
894.311953
 20
110.019339
 30
0.0
 10
895.187859
 20
110.155402
 30
0.0
 10
895.975890
 20
110.557922
 30
0.0
 10
896.605182
 20
111.187213
 30
0.0
 10
897.007701
 20
111.975216
 30
0.0
 10
897.146599
 20
112.853956
 30
0.0
 10
897.007701
 20
113.729862
 30
0.0
 10
896.605182
 20
114.517893
 30
0.0
 10
895.975890
 20
115.147185
 30
0.0
 10
895.187859
 20
115.549704
 30
0.0
 10
894.311953
 20
115.688602
 30
0.0
 10
893.433213
 20
115.549704
 30
0.0
 10
892.645182
 20
115.147185
 30
0.0
 10
892.015890
 20
114.517893
 30
0.0
 10
891.613371
 20
113.729862
 30
0.0
  0
LWPOLYLINE
  5
139
100
AcDbEntity
  8
0
 62
7
100
AcDbPolyline
 90
84
 70
1
 10
896.899985
 20
438.469560
 30
0.0
 10
897.909118
 20
438.004675
 30
0.0
 10
898.881402
 20
437.460423
 30
0.0
 10
899.805496
 20
436.842470
 30
0.0
 10
900.681402
 20
436.153652
 30
0.0
 10
901.497780
 20
435.396801
 30
0.0
 10
902.254630
 20
434.580423
 30
0.0
 10
902.943449
 20
433.704518
 30
0.0
 10
903.561402
 20
432.780421
 30
0.0
 10
904.105654
 20
431.808137
 30
0.0
 10
904.570535
 20
430.799003
 30
0.0
 10
904.956047
 20
429.755854
 30
0.0
 10
905.256520
 20
428.684358
 30
0.0
 10
905.474787
 20
427.593016
 30
0.0
 10
905.605181
 20
426.487505
 30
0.0
 10
905.647701
 20
425.373489
 30
0.0
 10
905.650535
 20
115.688602
 30
0.0
 10
905.605181
 20
114.574586
 30
0.0
 10
905.474787
 20
113.469074
 30
0.0
 10
905.256520
 20
112.377736
 30
0.0
 10
904.956047
 20
111.306268
 30
0.0
 10
904.570535
 20
110.263119
 30
0.0
 10
904.105654
 20
109.253985
 30
0.0
 10
903.561402
 20
108.281701
 30
0.0
 10
902.943449
 20
107.357607
 30
0.0
 10
902.254630
 20
106.481730
 30
0.0
 10
901.497780
 20
105.665352
 30
0.0
 10
900.681402
 20
104.908502
 30
0.0
 10
899.805496
 20
104.219683
 30
0.0
 10
898.881402
 20
103.601730
 30
0.0
 10
897.909118
 20
103.057478
 30
0.0
 10
896.899985
 20
102.592596
 30
0.0
 10
895.856835
 20
102.207084
 30
0.0
 10
894.785339
 20
101.906612
 30
0.0
 10
893.694001
 20
101.688344
 30
0.0
 10
892.588489
 20
101.557951
 30
0.0
 10
891.477308
 20
101.512596
 30
0.0
 10
95.789356
 20
101.515431
 30
0.0
 10
94.675341
 20
101.557951
 30
0.0
 10
93.569829
 20
101.688344
 30
0.0
 10
92.478490
 20
101.906612
 30
0.0
 10
91.406994
 20
102.207084
 30
0.0
 10
90.363845
 20
102.592596
 30
0.0
 10
89.354711
 20
103.057478
 30
0.0
 10
88.382428
 20
103.601730
 30
0.0
 10
87.458330
 20
104.219683
 30
0.0
 10
86.582425
 20
104.908502
 30
0.0
 10
85.766047
 20
105.665352
 30
0.0
 10
85.009197
 20
106.481730
 30
0.0
 10
84.320378
 20
107.357607
 30
0.0
 10
83.702425
 20
108.281701
 30
0.0
 10
83.158173
 20
109.253985
 30
0.0
 10
82.693291
 20
110.263119
 30
0.0
 10
82.307779
 20
111.306268
 30
0.0
 10
82.007307
 20
112.377736
 30
0.0
 10
81.789039
 20
113.469074
 30
0.0
 10
81.658645
 20
114.574586
 30
0.0
 10
81.613291
 20
115.688602
 30
0.0
 10
81.616126
 20
425.376324
 30
0.0
 10
81.658645
 20
426.487505
 30
0.0
 10
81.789039
 20
427.593016
 30
0.0
 10
82.007307
 20
428.684358
 30
0.0
 10
82.307779
 20
429.755854
 30
0.0
 10
82.693291
 20
430.799003
 30
0.0
 10
83.158173
 20
431.808137
 30
0.0
 10
83.702425
 20
432.780421
 30
0.0
 10
84.320378
 20
433.704518
 30
0.0
 10
85.009197
 20
434.580423
 30
0.0
 10
85.766047
 20
435.396801
 30
0.0
 10
86.582425
 20
436.153652
 30
0.0
 10
87.458330
 20
436.842470
 30
0.0
 10
88.382428
 20
437.460423
 30
0.0
 10
89.354711
 20
438.004675
 30
0.0
 10
90.363845
 20
438.469560
 30
0.0
 10
91.406994
 20
438.855072
 30
0.0
 10
92.478490
 20
439.155544
 30
0.0
 10
93.569829
 20
439.373812
 30
0.0
 10
94.675341
 20
439.504205
 30
0.0
 10
95.789356
 20
439.549560
 30
0.0
 10
891.477308
 20
439.549560
 30
0.0
 10
892.588489
 20
439.504205
 30
0.0
 10
893.694001
 20
439.373812
 30
0.0
 10
894.785339
 20
439.155544
 30
0.0
 10
895.856835
 20
438.855072
 30
0.0
  0
LWPOLYLINE
  5
13a
100
AcDbEntity
  8
0
 62
7
100
AcDbPolyline
 90
20
 70
1
 10
898.359402
 20
128.198204
 30
0.0
 10
897.483411
 20
128.334551
 30
0.0
 10
896.695352
 20
128.734434
 30
0.0
 10
896.066911
 20
129.367269
 30
0.0
 10
895.664079
 20
130.155329
 30
0.0
 10
895.524898
 20
131.034239
 30
0.0
 10
895.664079
 20
131.910229
 30
0.0
 10
896.066911
 20
132.696843
 30
0.0
 10
896.695352
 20
133.326730
 30
0.0
 10
897.483411
 20
133.729562
 30
0.0
 10
898.362322
 20
133.868743
 30
0.0
 10
899.238312
 20
133.729562
 30
0.0
 10
900.026400
 20
133.326730
 30
0.0
 10
900.659206
 20
132.696843
 30
0.0
 10
901.057644
 20
131.910229
 30
0.0
 10
901.196825
 20
131.034239
 30
0.0
 10
901.057644
 20
130.155329
 30
0.0
 10
900.659206
 20
129.367269
 30
0.0
 10
900.026400
 20
128.734434
 30
0.0
 10
899.238312
 20
128.334551
 30
0.0
  0
ENDSEC
  0
SECTION
  2
OBJECTS
  0
DICTIONARY
  5
C
330
0
100
AcDbDictionary
  3
ACAD_GROUP
350
D
  3
ACAD_MLINESTYLE
350
17
  0
DICTIONARY
  5
D
330
C
100
AcDbDictionary
  0
DICTIONARY
  5
1A
330
C
100
AcDbDictionary
  0
DICTIONARY
  5
17
330
C
100
AcDbDictionary
  3
STANDARD
350
18
  0
DICTIONARY
  5
19
330
C
100
AcDbDictionary
  0
ENDSEC
  0
EOF
