<?xml version="1.0" encoding="UTF-8" standalone="no"?>
<svg
   xmlns:dc="http://purl.org/dc/elements/1.1/"
   xmlns:cc="http://creativecommons.org/ns#"
   xmlns:rdf="http://www.w3.org/1999/02/22-rdf-syntax-ns#"
   xmlns:svg="http://www.w3.org/2000/svg"
   xmlns="http://www.w3.org/2000/svg"
   id="svg1044"
   version="1.1"
   viewBox="0 0 347.36955 191.32723"
   height="191.32722mm"
   width="347.36954mm">
  <metadata
     id="metadata1050">
    <rdf:RDF>
      <cc:Work
         rdf:about="">
        <dc:format>image/svg+xml</dc:format>
        <dc:type
           rdf:resource="http://purl.org/dc/dcmitype/StillImage" />
        <dc:title></dc:title>
      </cc:Work>
    </rdf:RDF>
  </metadata>
  <defs
     id="defs1048" />
  <path
     d="m 287.79636,185.23203 0.30904,0.0491 0.278,0.14159 0.22169,0.22221 0.14211,0.27802 0.0491,0.30903 -0.0491,0.31005 -0.14211,0.27802 -0.22169,0.22169 -0.278,0.14211 -0.30904,0.0481 -0.31006,-0.0481 -0.27802,-0.14211 -0.2222,-0.22169 -0.14161,-0.27802 -0.048,-0.31005 0.048,-0.30903 0.14161,-0.27802 0.2222,-0.22221 0.27802,-0.14159 z m -94.23404,0 0.30903,0.0491 0.27905,0.14159 0.22066,0.22221 0.14211,0.27802 0.0491,0.30903 -0.0491,0.31005 -0.14211,0.27802 -0.22066,0.22169 -0.27905,0.14211 -0.30903,0.0481 -0.30902,-0.0481 -0.27906,-0.14211 -0.22117,-0.22169 -0.14159,-0.27802 -0.0491,-0.31005 0.0491,-0.30903 0.14159,-0.27802 0.22117,-0.22221 0.27906,-0.14159 z m -94.234038,0 0.309026,0.0491 0.279053,0.14159 0.220659,0.22221 0.14211,0.27802 0.0491,0.30903 -0.0491,0.31005 -0.14211,0.27802 -0.220659,0.22169 -0.279053,0.14211 -0.309026,0.0481 -0.309025,-0.0481 -0.279054,-0.14211 -0.221173,-0.22169 -0.141594,-0.27802 -0.04909,-0.31005 0.04909,-0.30903 0.141594,-0.27802 0.221173,-0.22221 0.279054,-0.14159 z m -94.2330061,0 0.3090251,0.0491 0.2780191,0.14159 0.2222087,0.22221 0.1415934,0.27802 0.049093,0.30903 -0.049093,0.31005 -0.1415934,0.27802 -0.2222087,0.22169 -0.2780191,0.14211 -0.3100586,0.0481 -0.3090251,-0.0481 -0.2780192,-0.14211 -0.2227254,-0.22169 -0.1410766,-0.27802 -0.049093,-0.31005 0.049093,-0.30903 0.1410766,-0.27802 0.2227254,-0.22221 0.2780192,-0.14159 z M 3.7005291,80.419818 l 0.3090251,0.04806 0.2780191,0.141077 0.221692,0.223242 0.1421101,0.278019 0.049093,0.310059 -0.049093,0.309025 -0.1421101,0.277502 -0.221692,0.222209 -0.2780191,0.14211 -0.3100586,0.04909 L 3.3904705,82.371121 3.1124513,82.229011 2.8892092,82.006802 2.7486493,81.7293 2.6995563,81.420275 2.7486493,81.110216 2.8892092,80.832197 3.1124513,80.608955 3.3904705,80.467878 Z M 291.79612,183.29623 H 286.62847 6.2631633 V 77.924363 H 1.0955202 l -0.00103,107.307667 0.01602,0.39274 0.045992,0.39015 0.076998,0.38499 0.1059368,0.37776 0.1359091,0.36845 0.1638141,0.35554 0.1922365,0.34313 0.2180743,0.32607 0.2428793,0.30903 0.2671672,0.28784 0.2878378,0.26716 0.3090249,0.24288 0.3260783,0.21808 0.3426148,0.19224 0.3560506,0.16381 0.3679362,0.13591 0.3782716,0.10593 0.3849894,0.077 0.3901569,0.046 0.3927409,0.015 280.7012026,0.001 0.39172,-0.016 0.39015,-0.046 0.385,-0.077 0.37775,-0.10594 0.36845,-0.1359 0.35553,-0.16382 0.34313,-0.19224 0.32608,-0.21807 0.30903,-0.24288 0.28784,-0.26717 0.26715,-0.28783 0.24289,-0.30903 0.21807,-0.32608 0.19224,-0.34313 0.16381,-0.35553 0.13591,-0.36846 0.10594,-0.37775 0.077,-0.38499 0.046,-0.39016 0.0161,-0.39274 z"
     style="fill:none;stroke:#000000;stroke-width:0.05mm"
     id="path1596" />
  <path
     d="m 293.40982,181.6216 0.39274,-0.016 0.39016,-0.046 0.38499,-0.077 0.37827,-0.10594 0.36794,-0.13591 0.35605,-0.16381 0.34261,-0.19224 0.32608,-0.21807 0.30903,-0.24288 0.28783,-0.26717 0.26717,-0.28784 0.24288,-0.30902 0.21807,-0.32608 0.19224,-0.34262 0.16381,-0.35605 0.13591,-0.36793 0.10594,-0.37827 0.077,-0.38499 0.046,-0.39016 0.015,-0.39171 v -1.94355 h -5.16764 v 0.008 H 12.876547 V 69.306504 H 7.7088871 V 176.62087 l 0.0151,0.39274 0.046,0.39016 0.077,0.38499 0.10594,0.37827 0.13592,0.36793 0.1638,0.35606 0.19225,0.34261 0.21807,0.32608 0.24288,0.30902 0.26715,0.28784 0.28784,0.26717 0.30904,0.24288 0.3260699,0.21807 0.34314,0.19224 0.35552,0.16381 0.36846,0.13591 0.37774,0.10594 0.385,0.077 0.39015,0.046 0.39172,0.016 z m 0.99994,-3.00085 -0.30902,-0.0481 -0.27802,-0.14108 -0.22221,-0.22272 -0.14159,-0.27802 -0.0491,-0.31006 0.0491,-0.30903 0.14159,-0.27802 0.22221,-0.22221 0.27802,-0.14159 0.31006,-0.0491 0.30902,0.0491 0.27802,0.14159 0.22272,0.22221 0.14108,0.27802 0.0491,0.30903 -0.0491,0.31006 -0.14108,0.27802 -0.22272,0.22272 -0.27802,0.14108 z m -94.23301,0 -0.30902,-0.0481 -0.27906,-0.14108 -0.22065,-0.22272 -0.14211,-0.27802 -0.0491,-0.31006 0.0491,-0.30903 0.14211,-0.27802 0.22065,-0.22221 0.27906,-0.14159 0.30902,-0.0491 0.30903,0.0491 0.27905,0.14159 0.22118,0.22221 0.14159,0.27802 0.0491,0.30903 -0.0491,0.31006 -0.14159,0.27802 -0.22118,0.22272 -0.27905,0.14108 z m -94.23404,0 -0.30902,-0.0481 -0.27905,-0.14108 -0.22066,-0.22272 -0.14211,-0.27802 -0.0491,-0.31006 0.0491,-0.30903 0.14211,-0.27802 0.22066,-0.22221 0.27905,-0.14159 0.30902,-0.0491 0.30903,0.0491 0.27905,0.14159 0.22118,0.22221 0.14159,0.27802 0.0491,0.30903 -0.0491,0.31006 -0.14159,0.27802 -0.22118,0.22272 -0.27905,0.14108 z m -94.234063,0 -0.30903,-0.0481 -0.278,-0.14108 -0.22169,-0.22272 -0.14211,-0.27802 -0.0491,-0.31006 0.0491,-0.30903 0.14211,-0.27802 0.22169,-0.22221 0.278,-0.14159 0.30903,-0.0491 0.31007,0.0491 0.27802,0.14159 0.2222,0.22221 0.1416,0.27802 0.048,0.30903 -0.048,0.31006 -0.1416,0.27802 -0.2222,0.22272 -0.27802,0.14108 z m -1.39475,-104.811676 -0.30901,-0.0481 -0.2780199,-0.14108 -0.22222,-0.22272 -0.14158,-0.27802 -0.0491,-0.31006 0.0491,-0.30903 0.14158,-0.27801 0.22222,-0.22222 0.2780199,-0.14211 0.31004,-0.0486 0.30904,0.0486 0.27802,0.14211 0.22273,0.22222 0.14107,0.27801 0.0491,0.30903 -0.0491,0.31006 -0.14107,0.27802 -0.22273,0.22272 -0.27802,0.14108 z"
     style="fill:none;stroke:#000000;stroke-width:0.05mm"
     id="path1519-7-0" />
  <path
     d="m 301.02513,168.00302 0.30904,0.0491 0.278,0.14159 0.22169,0.22221 0.14211,0.27802 0.0491,0.30903 -0.0491,0.31006 -0.14211,0.27802 -0.22169,0.22169 -0.278,0.14211 -0.30904,0.0481 -0.31006,-0.0481 -0.27803,-0.14211 -0.22219,-0.22169 -0.14161,-0.27802 -0.048,-0.31006 0.048,-0.30903 0.14161,-0.27802 0.22219,-0.22221 0.27803,-0.14159 z m -94.23404,0 0.30902,0.0491 0.27905,0.14159 0.22066,0.22221 0.14211,0.27802 0.0491,0.30903 -0.0491,0.31006 -0.14211,0.27802 -0.22066,0.22169 -0.27905,0.14211 -0.30902,0.0481 -0.30903,-0.0481 -0.27905,-0.14211 -0.22118,-0.22169 -0.14159,-0.27802 -0.0491,-0.31006 0.0491,-0.30903 0.14159,-0.27802 0.22118,-0.22221 0.27905,-0.14159 z m -94.23404,0 0.30902,0.0491 0.27906,0.14159 0.22065,0.22221 0.14211,0.27802 0.0491,0.30903 -0.0491,0.31006 -0.14211,0.27802 -0.22065,0.22169 -0.27906,0.14211 -0.30902,0.0481 -0.30903,-0.0481 -0.27905,-0.14211 -0.22118,-0.22169 -0.14159,-0.27802 -0.0491,-0.31006 0.0491,-0.30903 0.14159,-0.27802 0.22118,-0.22221 0.27905,-0.14159 z m -94.233005,0 0.30902,0.0491 0.27802,0.14159 0.22221,0.22221 0.1416,0.27802 0.0491,0.30903 -0.0491,0.31006 -0.1416,0.27802 -0.22221,0.22169 -0.27802,0.14211 -0.31005,0.0481 -0.30903,-0.0481 -0.27802,-0.14211 -0.22272,-0.22169 -0.14108,-0.27802 -0.0491,-0.31006 0.0491,-0.30903 0.14108,-0.27802 0.22272,-0.22221 0.27802,-0.14159 z m -1.39475,-104.812216 0.30903,0.0481 0.27802,0.14108 0.22169,0.22324 0.14211,0.27802 0.0491,0.31006 -0.0491,0.30902 -0.14211,0.2775 -0.22169,0.22221 -0.27802,0.14211 -0.31006,0.0491 -0.30903,-0.0491 -0.27802,-0.14211 -0.22324,-0.22221 -0.14056,-0.2775 -0.0491,-0.30903 0.0491,-0.31005 0.14056,-0.27802 0.22324,-0.22325 0.27802,-0.14107 z M 305.02489,166.06722 H 299.85724 19.491935 V 60.695344 h -5.16765 l -10e-4,107.307676 0.016,0.39274 0.046,0.39016 0.077,0.38499 0.10594,0.37775 0.13591,0.36846 0.16381,0.35553 0.19224,0.34313 0.21807,0.32608 0.24288,0.30902 0.26717,0.28784 0.28784,0.26717 0.30902,0.24288 0.32608,0.21807 0.34261,0.19224 0.35606,0.16381 0.36793,0.13591 0.37827,0.10594 0.38499,0.077 0.39016,0.046 0.39274,0.015 280.701205,0.001 0.39172,-0.016 0.39015,-0.046 0.385,-0.077 0.37775,-0.10593 0.36845,-0.13591 0.35552,-0.16381 0.34314,-0.19224 0.32608,-0.21808 0.30903,-0.24287 0.28784,-0.26717 0.26715,-0.28784 0.24289,-0.30903 0.21807,-0.32607 0.19224,-0.34313 0.16381,-0.35554 0.13591,-0.36845 0.10594,-0.37776 0.077,-0.38498 0.046,-0.39016 0.0161,-0.39274 z"
     style="fill:none;stroke:#000000;stroke-width:0.05mm"
     id="path1596-7" />
  <path
     d="m 306.63862,164.39258 0.39274,-0.016 0.39016,-0.046 0.38499,-0.077 0.37828,-0.10593 0.36793,-0.13592 0.35605,-0.1638 0.34261,-0.19225 0.32607,-0.21807 0.30903,-0.24287 0.28784,-0.26718 0.26718,-0.28784 0.24286,-0.30902 0.21807,-0.32608 0.19225,-0.34262 0.1638,-0.35605 0.13592,-0.36793 0.10594,-0.37826 0.077,-0.38499 0.046,-0.39016 0.0151,-0.39172 v -1.94354 h -5.16766 v 0.008 H 26.105343 V 52.077476 h -5.16766 V 159.39185 l 0.0151,0.39274 0.046,0.39016 0.077,0.38499 0.10594,0.37827 0.13592,0.36793 0.1638,0.35606 0.19225,0.34261 0.21807,0.32608 0.24288,0.30902 0.26715,0.28784 0.28784,0.26717 0.30904,0.24288 0.32607,0.21807 0.34314,0.19224 0.35552,0.16381 0.36846,0.13591 0.37774,0.10594 0.385,0.077 0.39015,0.046 0.39172,0.016 z m 0.99994,-3.00085 -0.30901,-0.0481 -0.27802,-0.14108 -0.22223,-0.22272 -0.14158,-0.27802 -0.0491,-0.31006 0.0491,-0.30903 0.14158,-0.27802 0.22223,-0.22221 0.27802,-0.14159 0.31004,-0.0491 0.30903,0.0491 0.27803,0.14159 0.2227,0.22221 0.1411,0.27802 0.0491,0.30903 -0.0491,0.31006 -0.1411,0.27802 -0.2227,0.22272 -0.27803,0.14108 z m -94.23301,0 -0.30902,-0.0481 -0.27906,-0.14108 -0.22065,-0.22272 -0.14211,-0.27802 -0.0491,-0.31006 0.0491,-0.30903 0.14211,-0.27802 0.22065,-0.22221 0.27906,-0.14159 0.30902,-0.0491 0.30903,0.0491 0.27905,0.14159 0.22118,0.22221 0.14159,0.27802 0.0491,0.30903 -0.0491,0.31006 -0.14159,0.27802 -0.22118,0.22272 -0.27905,0.14108 z m -94.23404,0 -0.30902,-0.0481 -0.27905,-0.14108 -0.22066,-0.22272 -0.14212,-0.27802 -0.0491,-0.31006 0.0491,-0.30903 0.14212,-0.27802 0.22066,-0.22221 0.27905,-0.14159 0.30902,-0.0491 0.30903,0.0491 0.27905,0.14159 0.22118,0.22221 0.14158,0.27802 0.0491,0.30903 -0.0491,0.31006 -0.14158,0.27802 -0.22118,0.22272 -0.27905,0.14108 z m -94.234067,0 -0.30903,-0.0481 -0.278,-0.14108 -0.22169,-0.22272 -0.14211,-0.27802 -0.0491,-0.31006 0.0491,-0.30903 0.14211,-0.27802 0.22169,-0.22221 0.278,-0.14159 0.30903,-0.0491 0.31007,0.0491 0.27802,0.14159 0.2222,0.22221 0.1416,0.27802 0.048,0.30903 -0.048,0.31006 -0.1416,0.27802 -0.2222,0.22272 -0.27802,0.14108 z m -1.39475,-104.811684 -0.30901,-0.0481 -0.27802,-0.14108 -0.22222,-0.22272 -0.14158,-0.27802 -0.0491,-0.31006 0.0491,-0.30903 0.14158,-0.27801 0.22222,-0.22222 0.27802,-0.14211 0.31004,-0.0486 0.30904,0.0486 0.27802,0.14211 0.22273,0.22222 0.14107,0.27801 0.0491,0.30903 -0.0491,0.31006 -0.14107,0.27802 -0.22273,0.22272 -0.27802,0.14108 z"
     style="fill:none;stroke:#000000;stroke-width:0.05mm"
     id="path1519-7-0-3" />
  <path
     d="m 39.730979,31.942087 -0.30904,-0.0491 -0.278,-0.14159 -0.22169,-0.22221 -0.14211,-0.27802 -0.0491,-0.30903 0.0491,-0.31006 0.14211,-0.27802 0.22169,-0.22169 0.278,-0.14211 0.30904,-0.0481 0.31006,0.0481 0.27803,0.14211 0.22219,0.22169 0.14161,0.27802 0.048,0.31006 -0.048,0.30903 -0.14161,0.27802 -0.22219,0.22221 -0.27803,0.14159 z m 94.234041,0 -0.30902,-0.0491 -0.27905,-0.14159 -0.22066,-0.22221 -0.14211,-0.27802 -0.0491,-0.30903 0.0491,-0.31006 0.14211,-0.27802 0.22066,-0.22169 0.27905,-0.14211 0.30902,-0.0481 0.30903,0.0481 0.27905,0.14211 0.22118,0.22169 0.14159,0.27802 0.0491,0.31006 -0.0491,0.30903 -0.14159,0.27802 -0.22118,0.22221 -0.27905,0.14159 z m 94.23405,0 -0.30903,-0.0491 -0.27905,-0.14159 -0.22066,-0.22221 -0.14211,-0.27802 -0.0491,-0.30903 0.0491,-0.31006 0.14211,-0.27802 0.22066,-0.22169 0.27905,-0.14211 0.30903,-0.0481 0.30902,0.0481 0.27906,0.14211 0.22117,0.22169 0.14159,0.27802 0.0491,0.31006 -0.0491,0.30903 -0.14159,0.27802 -0.22117,0.22221 -0.27906,0.14159 z m 94.233,0 -0.30902,-0.0491 -0.27802,-0.14159 -0.22221,-0.22221 -0.14159,-0.27802 -0.0491,-0.30903 0.0491,-0.31006 0.14159,-0.27802 0.22221,-0.22169 0.27802,-0.14211 0.31006,-0.0481 0.30902,0.0481 0.27802,0.14211 0.22273,0.22169 0.14107,0.27802 0.0491,0.31006 -0.0491,0.30903 -0.14107,0.27802 -0.22273,0.22221 -0.27802,0.14159 z m 1.39475,104.812213 -0.30903,-0.0481 -0.27801,-0.14107 -0.2217,-0.22325 -0.14211,-0.27801 -0.0491,-0.31006 0.0491,-0.30903 0.14211,-0.2775 0.2217,-0.22221 0.27801,-0.14211 0.31006,-0.0491 0.30903,0.0491 0.27802,0.14211 0.22324,0.22221 0.14056,0.2775 0.0491,0.30903 -0.0491,0.31006 -0.14056,0.27801 -0.22324,0.22325 -0.27802,0.14107 z M 35.731219,33.877887 h 5.16765 280.365321 V 139.24976 h 5.16764 l 0.001,-107.307673 -0.016,-0.39274 -0.046,-0.39016 -0.077,-0.38499 -0.10594,-0.37775 -0.13591,-0.36846 -0.16381,-0.35553 -0.19224,-0.34313 -0.21807,-0.32608 -0.24288,-0.30902 -0.26717,-0.28784 -0.28784,-0.26717 -0.30902,-0.24288 -0.32608,-0.21807 -0.34261,-0.19224 -0.35605,-0.16381 -0.36794,-0.13591 -0.37827,-0.10594 -0.38499,-0.077 -0.39016,-0.046 -0.39274,-0.015 -280.701211,-0.001 -0.39172,0.016 -0.39015,0.046 -0.385,0.077 -0.37775,0.10593 -0.36845,0.13591 -0.35552,0.16381 -0.34314,0.19224 -0.32608,0.21808 -0.30903,0.24287 -0.28784,0.26717 -0.26715,0.28784 -0.24289,0.30903 -0.21807,0.32607 -0.19224,0.34313 -0.16381,0.35554 -0.13591,0.36845 -0.10594,0.37776 -0.077,0.38498 -0.046,0.39016 -0.0161,0.39274 z"
     style="fill:none;stroke:#000000;stroke-width:0.05mm"
     id="path1596-6" />
  <path
     d="m 47.345319,18.323515 -0.39274,0.016 -0.39016,0.046 -0.38499,0.077 -0.37828,0.10593 -0.36793,0.13592 -0.35605,0.1638 -0.34261,0.19225 -0.32607,0.21807 -0.30903,0.24287 -0.28784,0.26718 -0.26718,0.28784 -0.24286,0.30902 -0.21807,0.32608 -0.19225,0.34262 -0.1638,0.35605 -0.13592,0.36793 -0.10594,0.37826 -0.077,0.38499 -0.046,0.39016 -0.0151,0.39172 v 1.94354 h 5.16766 v -0.008 H 327.87861 V 130.63861 h 5.16766 V 23.324245 l -0.0151,-0.39274 -0.046,-0.39016 -0.077,-0.38499 -0.10594,-0.37827 -0.13592,-0.36793 -0.1638,-0.35606 -0.19225,-0.34261 -0.21807,-0.32608 -0.24288,-0.30902 -0.26715,-0.28784 -0.28784,-0.26717 -0.30904,-0.24288 -0.32607,-0.21807 -0.34314,-0.19224 -0.35552,-0.16381 -0.36846,-0.13591 -0.37774,-0.10594 -0.385,-0.077 -0.39015,-0.046 -0.39172,-0.016 z m -0.99994,3.00085 0.30901,0.0481 0.27802,0.14108 0.22223,0.22272 0.14158,0.27802 0.0491,0.31006 -0.0491,0.30903 -0.14158,0.27802 -0.22223,0.22221 -0.27802,0.14159 -0.31004,0.0491 -0.30903,-0.0491 -0.27803,-0.14159 -0.2227,-0.22221 -0.1411,-0.27802 -0.0491,-0.30903 0.0491,-0.31006 0.1411,-0.27802 0.2227,-0.22272 0.27803,-0.14108 z m 94.233011,0 0.30902,0.0481 0.27906,0.14108 0.22065,0.22272 0.14211,0.27802 0.0491,0.31006 -0.0491,0.30903 -0.14211,0.27802 -0.22065,0.22221 -0.27906,0.14159 -0.30902,0.0491 -0.30903,-0.0491 -0.27905,-0.14159 -0.22118,-0.22221 -0.14159,-0.27802 -0.0491,-0.30903 0.0491,-0.31006 0.14159,-0.27802 0.22118,-0.22272 0.27905,-0.14108 z m 94.23404,0 0.30902,0.0481 0.27905,0.14108 0.22066,0.22272 0.14212,0.27802 0.0491,0.31006 -0.0491,0.30903 -0.14212,0.27802 -0.22066,0.22221 -0.27905,0.14159 -0.30902,0.0491 -0.30903,-0.0491 -0.27905,-0.14159 -0.22118,-0.22221 -0.14158,-0.27802 -0.0491,-0.30903 0.0491,-0.31006 0.14158,-0.27802 0.22118,-0.22272 0.27905,-0.14108 z m 94.23408,0 0.30903,0.0481 0.278,0.14108 0.22169,0.22272 0.14211,0.27802 0.0491,0.31006 -0.0491,0.30903 -0.14211,0.27802 -0.22169,0.22221 -0.278,0.14159 -0.30903,0.0491 -0.31007,-0.0491 -0.27802,-0.14159 -0.2222,-0.22221 -0.1416,-0.27802 -0.048,-0.30903 0.048,-0.31006 0.1416,-0.27802 0.2222,-0.22272 0.27802,-0.14108 z m 1.39475,104.811675 0.30901,0.0481 0.27802,0.14108 0.22222,0.22272 0.14158,0.27802 0.0491,0.31006 -0.0491,0.30903 -0.14158,0.27801 -0.22222,0.22222 -0.27802,0.14211 -0.31004,0.0486 -0.30904,-0.0486 -0.27802,-0.14211 -0.22273,-0.22222 -0.14107,-0.27801 -0.0491,-0.30903 0.0491,-0.31006 0.14107,-0.27802 0.22273,-0.22272 0.27802,-0.14108 z"
     style="fill:none;stroke:#000000;stroke-width:0.05mm"
     id="path1519-7-0-1" />
  <path
     d="m 52.959779,14.713065 -0.30904,-0.0491 -0.278,-0.14159 -0.22169,-0.22221 -0.14211,-0.27802 -0.0491,-0.30903 0.0491,-0.31006 0.14211,-0.27802 0.22169,-0.22169 0.278,-0.14211 0.30904,-0.0481 0.31006,0.0481 0.27803,0.14211 0.22219,0.22169 0.14161,0.27802 0.048,0.31006 -0.048,0.30903 -0.14161,0.27802 -0.22219,0.22221 -0.27803,0.14159 z m 94.234041,0 -0.30902,-0.0491 -0.27905,-0.14159 -0.22066,-0.22221 -0.14211,-0.27802 -0.0491,-0.30903 0.0491,-0.31006 0.14211,-0.27802 0.22066,-0.22169 0.27905,-0.14211 0.30902,-0.0481 0.30903,0.0481 0.27905,0.14211 0.22118,0.22169 0.14159,0.27802 0.0491,0.31006 -0.0491,0.30903 -0.14159,0.27802 -0.22118,0.22221 -0.27905,0.14159 z m 94.23405,0 -0.30902,-0.0491 -0.27906,-0.14159 -0.22065,-0.22221 -0.14212,-0.27802 -0.0491,-0.30903 0.0491,-0.31006 0.14212,-0.27802 0.22065,-0.22169 0.27906,-0.14211 0.30902,-0.0481 0.30903,0.0481 0.27905,0.14211 0.22117,0.22169 0.1416,0.27802 0.0491,0.31006 -0.0491,0.30903 -0.1416,0.27802 -0.22117,0.22221 -0.27905,0.14159 z m 94.233,0 -0.30903,-0.0491 -0.27802,-0.14159 -0.22221,-0.22221 -0.14159,-0.27802 -0.0491,-0.30903 0.0491,-0.31006 0.14159,-0.27802 0.22221,-0.22169 0.27802,-0.14211 0.31006,-0.0481 0.30902,0.0481 0.27802,0.14211 0.22273,0.22169 0.14107,0.27802 0.0491,0.31006 -0.0491,0.30903 -0.14107,0.27802 -0.22273,0.22221 -0.27802,0.14159 z m 1.39474,104.812215 -0.30902,-0.0481 -0.27802,-0.14108 -0.22169,-0.22324 -0.14211,-0.27802 -0.0491,-0.31006 0.0491,-0.30903 0.14211,-0.2775 0.22169,-0.22221 0.27802,-0.14211 0.31006,-0.0491 0.30902,0.0491 0.27802,0.14211 0.22324,0.22221 0.14056,0.2775 0.0491,0.30903 -0.0491,0.31006 -0.14056,0.27802 -0.22324,0.22324 -0.27802,0.14108 z M 48.960019,16.648865 h 5.16765 280.365311 V 122.02073 h 5.16764 l 0.001,-107.307665 -0.016,-0.39274 -0.046,-0.39016 -0.077,-0.38499 -0.10594,-0.37775 -0.13591,-0.36846 -0.16381,-0.35553 -0.19224,-0.34313 -0.21807,-0.32608 -0.24288,-0.30902 -0.26717,-0.28784 -0.28783,-0.26717 -0.30903,-0.24288 -0.32608,-0.21807 -0.34261,-0.19224 -0.35605,-0.16381 -0.36794,-0.1359099 -0.37827,-0.10594 -0.38499,-0.077 -0.39016,-0.046 -0.39274,-0.015 -280.701201,-10e-4 -0.39172,0.016 -0.39015,0.046 -0.385,0.077 -0.37775,0.10593 -0.36845,0.1359099 -0.35552,0.16381 -0.34314,0.19224 -0.32608,0.21808 -0.30903,0.24287 -0.28784,0.26717 -0.26715,0.28784 -0.24289,0.30903 -0.21807,0.32607 -0.19224,0.34313 -0.16381,0.35554 -0.13591,0.36845 -0.10594,0.37776 -0.077,0.38498 -0.046,0.39016 -0.0161,0.39274 z"
     style="fill:none;stroke:#000000;stroke-width:0.05mm"
     id="path1596-2" />
  <path
     d="m 60.574109,1.0944882 -0.39274,0.016 -0.39016,0.046 -0.38499,0.077 -0.37828,0.10593 -0.36793,0.13592 -0.35605,0.1638 -0.34261,0.19225 -0.32607,0.21807 -0.30903,0.24287 -0.28784,0.26718 -0.26718,0.28784 -0.24286,0.30902 -0.21807,0.32608 -0.19225,0.34262 -0.1638,0.35605 -0.13592,0.36793 -0.10594,0.37826 -0.077,0.38499 -0.046,0.39016 -0.0151,0.39172 v 1.9435399 h 5.16766 v -0.008 H 341.1074 V 113.40958 h 5.16766 V 6.0952182 l -0.0151,-0.39274 -0.046,-0.39016 -0.077,-0.38499 -0.10594,-0.37827 -0.13592,-0.36793 -0.1638,-0.35606 -0.19225,-0.34261 -0.21807,-0.32608 -0.24288,-0.30902 -0.26715,-0.28784 -0.28784,-0.26717 -0.30904,-0.24288 -0.32607,-0.21807 -0.34314,-0.19224 -0.35552,-0.16381 -0.36846,-0.13591 -0.37774,-0.10594 -0.385,-0.077 -0.39015,-0.046 -0.39172,-0.016 z m -0.99994,3.00085 0.30901,0.0481 0.27802,0.14108 0.22223,0.22272 0.14158,0.27802 0.0491,0.31006 -0.0491,0.30903 -0.14158,0.27802 -0.22223,0.22221 -0.27802,0.14159 -0.31004,0.0491 -0.30903,-0.0491 -0.27803,-0.14159 -0.2227,-0.22221 -0.1411,-0.27802 -0.0491,-0.30903 0.0491,-0.31006 0.1411,-0.27802 0.2227,-0.22272 0.27803,-0.14108 z m 94.233011,0 0.30902,0.0481 0.27906,0.14108 0.22065,0.22272 0.14211,0.27802 0.0491,0.31006 -0.0491,0.30903 -0.14211,0.27802 -0.22065,0.22221 -0.27906,0.14159 -0.30902,0.0491 -0.30903,-0.0491 -0.27905,-0.14159 -0.22118,-0.22221 -0.14159,-0.27802 -0.0491,-0.30903 0.0491,-0.31006 0.14159,-0.27802 0.22118,-0.22272 0.27905,-0.14108 z m 94.23406,0 0.30902,0.0481 0.27905,0.14108 0.22066,0.22272 0.14212,0.27802 0.0491,0.31006 -0.0491,0.30903 -0.14212,0.27802 -0.22066,0.22221 -0.27905,0.14159 -0.30902,0.0491 -0.30903,-0.0491 -0.27905,-0.14159 -0.22118,-0.22221 -0.14158,-0.27802 -0.0491,-0.30903 0.0491,-0.31006 0.14158,-0.27802 0.22118,-0.22272 0.27905,-0.14108 z m 94.23406,0 0.30903,0.0481 0.278,0.14108 0.22169,0.22272 0.14211,0.27802 0.0491,0.31006 -0.0491,0.30903 -0.14211,0.27802 -0.22169,0.22221 -0.278,0.14159 -0.30903,0.0491 -0.31007,-0.0491 -0.27802,-0.14159 -0.2222,-0.22221 -0.1416,-0.27802 -0.048,-0.30903 0.048,-0.31006 0.1416,-0.27802 0.2222,-0.22272 0.27802,-0.14108 z m 1.39475,104.8116718 0.30901,0.0481 0.27802,0.14108 0.22222,0.22272 0.14158,0.27802 0.0491,0.31006 -0.0491,0.30903 -0.14158,0.27801 -0.22222,0.22222 -0.27802,0.14211 -0.31004,0.0486 -0.30904,-0.0486 -0.27802,-0.14211 -0.22273,-0.22222 -0.14107,-0.27801 -0.0491,-0.30903 0.0491,-0.31006 0.14107,-0.27802 0.22273,-0.22272 0.27802,-0.14108 z"
     style="fill:none;stroke:#000000;stroke-width:0.05mm"
     id="path1519-7-0-9" />
  <path
     d="m 31.382288,45.68797 0.30903,0.04806 0.27801,0.141076 0.2217,0.223242 0.14211,0.278019 0.0491,0.310059 -0.0491,0.309025 -0.14211,0.277502 -0.2217,0.222208 -0.27801,0.14211 -0.31006,0.04909 -0.30903,-0.04909 -0.278024,-0.14211 -0.22324,-0.222208 -0.14056,-0.277502 -0.0491,-0.309025 0.0491,-0.310059 0.14056,-0.278019 0.22324,-0.223242 0.278024,-0.141076 z m 0.40907,-5.423073 0.049,0.309001 0.141,0.278 0.223,0.222 0.278,0.142 0.309,0.049 0.31,-0.049 0.278,-0.142 0.222,-0.222 0.142,-0.278 0.049,-0.309001 -0.049,-0.31 -0.142,-0.278 -0.222,-0.223 -0.278,-0.141 -0.309,-0.048 -0.31,0.048 -0.278,0.141 -0.223,0.223 -0.141,0.278 z m 282.702042,0 0.048,0.309001 0.142,0.278 0.222,0.222 0.278,0.142 0.31,0.049 0.309,-0.049 0.278,-0.142 0.222,-0.222 0.142,-0.278 0.049,-0.309001 -0.049,-0.31 -0.142,-0.278 -0.222,-0.223 -0.278,-0.141 -0.309,-0.048 -0.31,0.048 -0.278,0.141 -0.222,0.223 -0.142,0.278 z m -94.234,0 0.049,0.309001 0.142,0.278 0.221,0.222 0.279,0.142 0.309,0.049 0.309,-0.049 0.279,-0.142 0.221,-0.222 0.142,-0.278 0.049,-0.309001 -0.049,-0.31 -0.142,-0.278 -0.221,-0.223 -0.279,-0.141 -0.309,-0.048 -0.309,0.048 -0.279,0.141 -0.221,0.223 -0.142,0.278 z m -94.234,0 0.049,0.309001 0.142,0.278 0.221,0.222 0.279,0.142 0.309,0.049 0.309,-0.049 0.279,-0.142 0.221,-0.222 0.142,-0.278 0.049,-0.309001 -0.049,-0.31 -0.142,-0.278 -0.221,-0.223 -0.279,-0.141 -0.309,-0.048 -0.309,0.048 -0.279,0.141 -0.221,0.223 -0.142,0.278 z m -94.234042,111.249953 0.049,0.31 0.141,0.27799 0.223,0.222 0.278,0.142 0.309,0.048 0.31,-0.048 0.278,-0.142 0.222,-0.222 0.142,-0.27799 0.049,-0.31 -0.049,-0.309 -0.142,-0.278 -0.222,-0.222 -0.278,-0.142 -0.309,-0.049 -0.31,0.049 -0.278,0.142 -0.223,0.222 -0.141,0.278 z m 94.234042,0 0.049,0.31 0.142,0.27799 0.221,0.222 0.279,0.142 0.309,0.048 0.309,-0.048 0.279,-0.142 0.221,-0.222 0.142,-0.27799 0.049,-0.31 -0.049,-0.309 -0.142,-0.278 -0.221,-0.222 -0.279,-0.142 -0.309,-0.049 -0.309,0.049 -0.279,0.142 -0.221,0.222 -0.142,0.278 z m 94.234,0 0.049,0.31 0.142,0.27799 0.221,0.222 0.279,0.142 0.309,0.048 0.309,-0.048 0.279,-0.142 0.221,-0.222 0.142,-0.27799 0.049,-0.31 -0.049,-0.309 -0.142,-0.278 -0.221,-0.222 -0.279,-0.142 -0.309,-0.049 -0.309,0.049 -0.279,0.142 -0.221,0.222 -0.142,0.278 z m 94.234,0 0.048,0.31 0.142,0.27799 0.222,0.222 0.278,0.142 0.31,0.048 0.309,-0.048 0.278,-0.142 0.222,-0.222 0.142,-0.27799 0.049,-0.31 -0.049,-0.309 -0.142,-0.278 -0.222,-0.222 -0.278,-0.142 -0.309,-0.049 -0.31,0.049 -0.278,0.142 -0.222,0.222 -0.142,0.278 z m 1.913,-114.869955 0.356,0.164001 0.343,0.192 0.326,0.218 0.309,0.243 0.288,0.267 0.267,0.288 0.243,0.309 0.218,0.326001 0.192,0.343 0.164,0.356 0.136,0.368 0.106,0.378 0.077,0.385001 0.046,0.39 0.015,0.393 0.001,109.249952 -0.016,0.393 -0.046,0.39 -0.077,0.385 -0.106,0.37799 -0.136,0.368 -0.164,0.356 -0.192,0.343 -0.218,0.326 -0.243,0.30899 -0.267,0.288 -0.288,0.267 -0.309,0.243 -0.326,0.218 -0.343,0.192 -0.356,0.164 -0.368,0.136 -0.378,0.106 -0.385,0.077 -0.39,0.046 -0.392,0.016 -280.701042,-0.001 -0.393,-0.015 -0.39,-0.046 -0.385,-0.077 -0.378,-0.106 -0.368,-0.136 -0.356,-0.164 -0.343,-0.192 -0.326001,-0.218 -0.309,-0.243 -0.288,-0.267 -0.267,-0.288 -0.243,-0.30899 -0.218,-0.326 -0.192,-0.343 -0.164,-0.356 -0.136,-0.368 -0.106,-0.37799 -0.077,-0.385 -0.046,-0.39 -0.016,-0.393 10e-4,-109.250952 0.015,-0.392 0.046,-0.39 0.077,-0.385001 0.106,-0.378 0.136,-0.368 0.164,-0.356 0.192,-0.343 0.218,-0.326001 0.243,-0.309 0.267,-0.288 0.288,-0.267 0.309,-0.243 0.326001,-0.218 0.343,-0.192 0.356,-0.164001 0.368,-0.136 0.378,-0.106 0.385,-0.077 0.39,-0.046 0.393,-0.016 H 314.4934 l 0.392,0.016 0.39,0.046 0.385,0.077 0.378,0.106 z m 0.51485,109.456845 -0.30903,-0.0481 -0.27801,-0.14107 -0.2217,-0.22325 -0.14211,-0.27801 -0.0491,-0.31006 0.0491,-0.30903 0.14211,-0.2775 0.2217,-0.22221 0.27801,-0.14211 0.31006,-0.0491 0.30903,0.0491 0.27802,0.14211 0.22324,0.22221 0.14056,0.2775 0.0491,0.30903 -0.0491,0.31006 -0.14056,0.27801 -0.22324,0.22325 -0.27802,0.14107 z"
     style="fill:none;stroke:#000000;stroke-width:0.05mm"
     id="path3411-1" />
</svg>
