<?xml version="1.0"?>
<!-- Generated by SVGo -->
<svg width="300.702mm" height="129.252mm"
     viewBox="0.000 0.000 300.702 129.252"
     xmlns="http://www.w3.org/2000/svg" 
     xmlns:xlink="http://www.w3.org/1999/xlink">
<polygon points="291.094,5.016 291.484,5.062 291.869,5.139 292.247,5.245 292.615,5.381 292.971,5.545 293.314,5.737 293.640,5.955 293.949,6.198 294.237,6.465 294.504,6.753 294.747,7.062 294.965,7.388 295.157,7.731 295.321,8.087 295.457,8.455 295.563,8.833 295.640,9.218 295.686,9.608 295.701,10.001 295.702,119.251 295.686,119.644 295.640,120.034 295.563,120.419 295.457,120.797 295.321,121.165 295.157,121.521 294.965,121.864 294.747,122.190 294.504,122.499 294.237,122.787 293.949,123.054 293.640,123.297 293.314,123.515 292.971,123.707 292.615,123.871 292.247,124.007 291.869,124.113 291.484,124.190 291.094,124.236 290.702,124.252 10.001,124.251 9.608,124.236 9.218,124.190 8.833,124.113 8.455,124.007 8.087,123.871 7.731,123.707 7.388,123.515 7.062,123.297 6.753,123.054 6.465,122.787 6.198,122.499 5.955,122.190 5.737,121.864 5.545,121.521 5.381,121.165 5.245,120.797 5.139,120.419 5.062,120.034 5.016,119.644 5.000,119.251 5.001,10.000 5.016,9.608 5.062,9.218 5.139,8.833 5.245,8.455 5.381,8.087 5.545,7.731 5.737,7.388 5.955,7.062 6.198,6.753 6.465,6.465 6.753,6.198 7.062,5.955 7.388,5.737 7.731,5.545 8.087,5.381 8.455,5.245 8.833,5.139 9.218,5.062 9.608,5.016 10.001,5.000 290.702,5.000" style="fill:none;stroke-width:0.050000mm;stroke:black"/>
<polygon points="291.392,119.300 291.114,119.442 290.892,119.664 290.750,119.942 290.702,120.251 290.750,120.561 290.892,120.839 291.114,121.061 291.392,121.203 291.702,121.251 292.011,121.203 292.289,121.061 292.511,120.839 292.653,120.561 292.702,120.251 292.653,119.942 292.511,119.664 292.289,119.442 292.011,119.300 291.702,119.251" style="fill:none;stroke-width:0.050000mm;stroke:black"/>
<polygon points="197.159,119.300 196.880,119.442 196.659,119.664 196.517,119.942 196.468,120.251 196.517,120.561 196.659,120.839 196.880,121.061 197.159,121.203 197.468,121.251 197.777,121.203 198.056,121.061 198.277,120.839 198.419,120.561 198.468,120.251 198.419,119.942 198.277,119.664 198.056,119.442 197.777,119.300 197.468,119.251" style="fill:none;stroke-width:0.050000mm;stroke:black"/>
<polygon points="102.925,119.300 102.646,119.442 102.425,119.664 102.283,119.942 102.234,120.251 102.283,120.561 102.425,120.839 102.646,121.061 102.925,121.203 103.234,121.251 103.543,121.203 103.822,121.061 104.043,120.839 104.185,120.561 104.234,120.251 104.185,119.942 104.043,119.664 103.822,119.442 103.543,119.300 103.234,119.251" style="fill:none;stroke-width:0.050000mm;stroke:black"/>
<polygon points="8.691,119.300 8.413,119.442 8.190,119.664 8.049,119.942 8.000,120.251 8.049,120.561 8.190,120.839 8.413,121.061 8.691,121.203 9.000,121.251 9.310,121.203 9.588,121.061 9.810,120.839 9.952,120.561 10.001,120.251 9.952,119.942 9.810,119.664 9.588,119.442 9.310,119.300 9.001,119.251" style="fill:none;stroke-width:0.050000mm;stroke:black"/>
<polygon points="19.526,95.726 19.526,109.726 33.526,109.726 33.526,95.726" style="fill:none;stroke-width:0.050000mm;stroke:black"/>
<polygon points="38.576,95.726 38.576,109.726 52.576,109.726 52.576,95.726" style="fill:none;stroke-width:0.050000mm;stroke:black"/>
<polygon points="60.007,95.726 60.007,109.726 74.007,109.726 74.007,95.726" style="fill:none;stroke-width:0.050000mm;stroke:black"/>
<polygon points="83.819,95.726 83.819,109.726 97.819,109.726 97.819,95.726" style="fill:none;stroke-width:0.050000mm;stroke:black"/>
<polygon points="110.013,95.726 110.013,109.726 124.013,109.726 124.013,95.726" style="fill:none;stroke-width:0.050000mm;stroke:black"/>
<polygon points="138.588,95.726 138.588,109.726 152.588,109.726 152.588,95.726" style="fill:none;stroke-width:0.050000mm;stroke:black"/>
<polygon points="164.782,95.726 164.782,109.726 178.782,109.726 178.782,95.726" style="fill:none;stroke-width:0.050000mm;stroke:black"/>
<polygon points="188.594,95.726 188.594,109.726 202.594,109.726 202.594,95.726" style="fill:none;stroke-width:0.050000mm;stroke:black"/>
<polygon points="210.025,95.726 210.025,109.726 224.025,109.726 224.025,95.726" style="fill:none;stroke-width:0.050000mm;stroke:black"/>
<polygon points="229.076,95.726 229.076,109.726 243.076,109.726 243.076,95.726" style="fill:none;stroke-width:0.050000mm;stroke:black"/>
<polygon points="248.126,95.726 248.126,109.726 262.126,109.726 262.126,95.726" style="fill:none;stroke-width:0.050000mm;stroke:black"/>
<polygon points="267.176,95.726 267.176,109.726 281.176,109.726 281.176,95.726" style="fill:none;stroke-width:0.050000mm;stroke:black"/>
<polygon points="19.526,76.676 19.526,90.676 33.526,90.676 33.526,76.676" style="fill:none;stroke-width:0.050000mm;stroke:black"/>
<polygon points="38.576,76.676 38.576,90.676 52.576,90.676 52.576,76.676" style="fill:none;stroke-width:0.050000mm;stroke:black"/>
<polygon points="57.626,76.676 57.626,90.676 71.626,90.676 71.626,76.676" style="fill:none;stroke-width:0.050000mm;stroke:black"/>
<polygon points="76.676,76.676 76.676,90.676 90.676,90.676 90.676,76.676" style="fill:none;stroke-width:0.050000mm;stroke:black"/>
<polygon points="95.726,76.676 95.726,90.676 109.726,90.676 109.726,76.676" style="fill:none;stroke-width:0.050000mm;stroke:black"/>
<polygon points="114.775,76.676 114.775,90.676 128.775,90.676 128.775,76.676" style="fill:none;stroke-width:0.050000mm;stroke:black"/>
<polygon points="133.826,76.676 133.826,90.676 147.826,90.676 147.826,76.676" style="fill:none;stroke-width:0.050000mm;stroke:black"/>
<polygon points="152.876,76.676 152.876,90.676 166.876,90.676 166.876,76.676" style="fill:none;stroke-width:0.050000mm;stroke:black"/>
<polygon points="171.926,76.676 171.926,90.676 185.926,90.676 185.926,76.676" style="fill:none;stroke-width:0.050000mm;stroke:black"/>
<polygon points="190.976,76.676 190.976,90.676 204.976,90.676 204.976,76.676" style="fill:none;stroke-width:0.050000mm;stroke:black"/>
<polygon points="210.026,76.676 210.026,90.676 224.026,90.676 224.026,76.676" style="fill:none;stroke-width:0.050000mm;stroke:black"/>
<polygon points="229.076,76.676 229.076,90.676 243.076,90.676 243.076,76.676" style="fill:none;stroke-width:0.050000mm;stroke:black"/>
<polygon points="248.126,76.676 248.126,90.676 262.126,90.676 262.126,76.676" style="fill:none;stroke-width:0.050000mm;stroke:black"/>
<polygon points="267.176,76.676 267.176,90.676 281.176,90.676 281.176,76.676" style="fill:none;stroke-width:0.050000mm;stroke:black"/>
<polygon points="19.526,57.626 19.526,71.626 33.526,71.626 33.526,57.626" style="fill:none;stroke-width:0.050000mm;stroke:black"/>
<polygon points="38.576,57.626 38.576,71.626 52.576,71.626 52.576,57.626" style="fill:none;stroke-width:0.050000mm;stroke:black"/>
<polygon points="57.626,57.626 57.626,71.626 71.626,71.626 71.626,57.626" style="fill:none;stroke-width:0.050000mm;stroke:black"/>
<polygon points="76.676,57.626 76.676,71.626 90.676,71.626 90.676,57.626" style="fill:none;stroke-width:0.050000mm;stroke:black"/>
<polygon points="95.726,57.626 95.726,71.626 109.726,71.626 109.726,57.626" style="fill:none;stroke-width:0.050000mm;stroke:black"/>
<polygon points="114.775,57.626 114.775,71.626 128.775,71.626 128.775,57.626" style="fill:none;stroke-width:0.050000mm;stroke:black"/>
<polygon points="133.826,57.626 133.826,71.626 147.826,71.626 147.826,57.626" style="fill:none;stroke-width:0.050000mm;stroke:black"/>
<polygon points="152.876,57.626 152.876,71.626 166.876,71.626 166.876,57.626" style="fill:none;stroke-width:0.050000mm;stroke:black"/>
<polygon points="171.926,57.626 171.926,71.626 185.926,71.626 185.926,57.626" style="fill:none;stroke-width:0.050000mm;stroke:black"/>
<polygon points="190.976,57.626 190.976,71.626 204.976,71.626 204.976,57.626" style="fill:none;stroke-width:0.050000mm;stroke:black"/>
<polygon points="210.026,57.626 210.026,71.626 224.026,71.626 224.026,57.626" style="fill:none;stroke-width:0.050000mm;stroke:black"/>
<polygon points="229.076,57.626 229.076,71.626 243.076,71.626 243.076,57.626" style="fill:none;stroke-width:0.050000mm;stroke:black"/>
<polygon points="248.126,57.626 248.126,71.626 262.126,71.626 262.126,57.626" style="fill:none;stroke-width:0.050000mm;stroke:black"/>
<polygon points="267.176,57.626 267.176,71.626 281.176,71.626 281.176,57.626" style="fill:none;stroke-width:0.050000mm;stroke:black"/>
<polygon points="19.526,38.576 19.526,52.576 33.526,52.576 33.526,38.576" style="fill:none;stroke-width:0.050000mm;stroke:black"/>
<polygon points="38.576,38.576 38.576,52.576 52.576,52.576 52.576,38.576" style="fill:none;stroke-width:0.050000mm;stroke:black"/>
<polygon points="57.626,38.576 57.626,52.576 71.626,52.576 71.626,38.576" style="fill:none;stroke-width:0.050000mm;stroke:black"/>
<polygon points="76.676,38.576 76.676,52.576 90.676,52.576 90.676,38.576" style="fill:none;stroke-width:0.050000mm;stroke:black"/>
<polygon points="95.726,38.576 95.726,52.576 109.726,52.576 109.726,38.576" style="fill:none;stroke-width:0.050000mm;stroke:black"/>
<polygon points="114.775,38.576 114.775,52.576 128.775,52.576 128.775,38.576" style="fill:none;stroke-width:0.050000mm;stroke:black"/>
<polygon points="133.826,38.576 133.826,52.576 147.826,52.576 147.826,38.576" style="fill:none;stroke-width:0.050000mm;stroke:black"/>
<polygon points="152.876,38.576 152.876,52.576 166.876,52.576 166.876,38.576" style="fill:none;stroke-width:0.050000mm;stroke:black"/>
<polygon points="171.926,38.576 171.926,52.576 185.926,52.576 185.926,38.576" style="fill:none;stroke-width:0.050000mm;stroke:black"/>
<polygon points="190.976,38.576 190.976,52.576 204.976,52.576 204.976,38.576" style="fill:none;stroke-width:0.050000mm;stroke:black"/>
<polygon points="210.026,38.576 210.026,52.576 224.026,52.576 224.026,38.576" style="fill:none;stroke-width:0.050000mm;stroke:black"/>
<polygon points="229.076,38.576 229.076,52.576 243.076,52.576 243.076,38.576" style="fill:none;stroke-width:0.050000mm;stroke:black"/>
<polygon points="248.126,38.576 248.126,52.576 262.126,52.576 262.126,38.576" style="fill:none;stroke-width:0.050000mm;stroke:black"/>
<polygon points="267.176,38.576 267.176,52.576 281.176,52.576 281.176,38.576" style="fill:none;stroke-width:0.050000mm;stroke:black"/>
<polygon points="19.526,19.526 19.526,33.526 33.526,33.526 33.526,19.526" style="fill:none;stroke-width:0.050000mm;stroke:black"/>
<polygon points="38.576,19.526 38.576,33.526 52.576,33.526 52.576,19.526" style="fill:none;stroke-width:0.050000mm;stroke:black"/>
<polygon points="57.626,19.526 57.626,33.526 71.626,33.526 71.626,19.526" style="fill:none;stroke-width:0.050000mm;stroke:black"/>
<polygon points="76.676,19.526 76.676,33.526 90.676,33.526 90.676,19.526" style="fill:none;stroke-width:0.050000mm;stroke:black"/>
<polygon points="95.726,19.526 95.726,33.526 109.726,33.526 109.726,19.526" style="fill:none;stroke-width:0.050000mm;stroke:black"/>
<polygon points="114.775,19.526 114.775,33.526 128.775,33.526 128.775,19.526" style="fill:none;stroke-width:0.050000mm;stroke:black"/>
<polygon points="133.826,19.526 133.826,33.526 147.826,33.526 147.826,19.526" style="fill:none;stroke-width:0.050000mm;stroke:black"/>
<polygon points="152.876,19.526 152.876,33.526 166.876,33.526 166.876,19.526" style="fill:none;stroke-width:0.050000mm;stroke:black"/>
<polygon points="171.926,19.526 171.926,33.526 185.926,33.526 185.926,19.526" style="fill:none;stroke-width:0.050000mm;stroke:black"/>
<polygon points="190.976,19.526 190.976,33.526 204.976,33.526 204.976,19.526" style="fill:none;stroke-width:0.050000mm;stroke:black"/>
<polygon points="210.026,19.526 210.026,33.526 224.026,33.526 224.026,19.526" style="fill:none;stroke-width:0.050000mm;stroke:black"/>
<polygon points="229.076,19.526 229.076,33.526 243.076,33.526 243.076,19.526" style="fill:none;stroke-width:0.050000mm;stroke:black"/>
<polygon points="248.126,19.526 248.126,33.526 262.126,33.526 262.126,19.526" style="fill:none;stroke-width:0.050000mm;stroke:black"/>
<polygon points="267.176,19.526 267.176,33.526 281.176,33.526 281.176,19.526" style="fill:none;stroke-width:0.050000mm;stroke:black"/>
<polygon points="102.925,8.049 102.646,8.190 102.425,8.413 102.283,8.691 102.234,9.001 102.283,9.310 102.425,9.588 102.646,9.810 102.925,9.952 103.234,10.001 103.543,9.952 103.822,9.810 104.043,9.588 104.185,9.310 104.234,9.001 104.185,8.691 104.043,8.413 103.822,8.190 103.543,8.049 103.234,8.001" style="fill:none;stroke-width:0.050000mm;stroke:black"/>
<polygon points="197.159,8.049 196.880,8.190 196.659,8.413 196.517,8.691 196.468,9.001 196.517,9.310 196.659,9.588 196.880,9.810 197.159,9.952 197.468,10.001 197.777,9.952 198.056,9.810 198.277,9.588 198.419,9.310 198.468,9.001 198.419,8.691 198.277,8.413 198.056,8.190 197.777,8.049 197.468,8.001" style="fill:none;stroke-width:0.050000mm;stroke:black"/>
<polygon points="291.392,8.049 291.114,8.190 290.892,8.413 290.750,8.691 290.702,9.001 290.750,9.310 290.892,9.588 291.114,9.810 291.392,9.952 291.702,10.001 292.011,9.952 292.289,9.810 292.511,9.588 292.653,9.310 292.702,9.001 292.653,8.691 292.511,8.413 292.289,8.190 292.011,8.049 291.702,8.001" style="fill:none;stroke-width:0.050000mm;stroke:black"/>
<polygon points="8.691,8.049 8.413,8.190 8.190,8.413 8.049,8.691 8.000,9.001 8.049,9.310 8.190,9.588 8.413,9.810 8.691,9.952 9.000,10.001 9.310,9.952 9.588,9.810 9.810,9.588 9.952,9.310 10.001,9.001 9.952,8.691 9.810,8.413 9.588,8.190 9.310,8.049 9.001,8.001" style="fill:none;stroke-width:0.050000mm;stroke:black"/>
</svg>
