  0
SECTION
  2
HEADER
  9
$ACADVER
  1
AC1009
  9
$EXTMIN
 10
0.0
 20
0.0
 30
0.0
  9
$EXTMAX
 10
1000.0
 20
1000.0
 30
0.0
  9
$FILLMODE
 70
 0
  9
$SPLFRAME
 70
 1
  0
ENDSEC
  0
SECTION
  2
TABLES
  0
TABLE
  2
LAYER
 70
1
  0
LAYER
  2
0
 70
     0
 62
     7
  6
CONTINUOUS
  0
ENDTAB
  0
ENDSEC
  0
SECTION
  2
ENTITIES
  0
LINE
  8
0
 62
     0
 10
286.188
 20
119.327
 30
0.0
 11
286.578
 21
119.282
 31
0.0
  0
LINE
  8
0
 62
     0
 10
286.578
 20
119.282
 30
0.0
 11
286.963
 21
119.204
 31
0.0
  0
LINE
  8
0
 62
     0
 10
286.963
 20
119.204
 30
0.0
 11
287.34
 21
119.098
 31
0.0
  0
LINE
  8
0
 62
     0
 10
287.34
 20
119.098
 30
0.0
 11
287.708
 21
118.962
 31
0.0
  0
LINE
  8
0
 62
     0
 10
287.708
 20
118.962
 30
0.0
 11
288.065
 21
118.798
 31
0.0
  0
LINE
  8
0
 62
     0
 10
288.065
 20
118.798
 30
0.0
 11
288.408
 21
118.606
 31
0.0
  0
LINE
  8
0
 62
     0
 10
288.408
 20
118.606
 30
0.0
 11
288.733
 21
118.389
 31
0.0
  0
LINE
  8
0
 62
     0
 10
288.733
 20
118.389
 30
0.0
 11
289.042
 21
118.146
 31
0.0
  0
LINE
  8
0
 62
     0
 10
289.042
 20
118.146
 30
0.0
 11
289.33
 21
117.879
 31
0.0
  0
LINE
  8
0
 62
     0
 10
289.33
 20
117.879
 30
0.0
 11
289.597
 21
117.591
 31
0.0
  0
LINE
  8
0
 62
     0
 10
289.597
 20
117.591
 30
0.0
 11
289.842
 21
117.282
 31
0.0
  0
LINE
  8
0
 62
     0
 10
289.842
 20
117.282
 30
0.0
 11
290.059
 21
116.955
 31
0.0
  0
LINE
  8
0
 62
     0
 10
290.059
 20
116.955
 30
0.0
 11
290.251
 21
116.612
 31
0.0
  0
LINE
  8
0
 62
     0
 10
290.251
 20
116.612
 30
0.0
 11
290.415
 21
116.257
 31
0.0
  0
LINE
  8
0
 62
     0
 10
290.415
 20
116.257
 30
0.0
 11
290.551
 21
115.889
 31
0.0
  0
LINE
  8
0
 62
     0
 10
290.551
 20
115.889
 30
0.0
 11
290.657
 21
115.51
 31
0.0
  0
LINE
  8
0
 62
     0
 10
290.657
 20
115.51
 30
0.0
 11
290.734
 21
115.125
 31
0.0
  0
LINE
  8
0
 62
     0
 10
290.734
 20
115.125
 30
0.0
 11
290.78
 21
114.735
 31
0.0
  0
LINE
  8
0
 62
     0
 10
290.78
 20
114.735
 30
0.0
 11
290.795
 21
114.343
 31
0.0
  0
LINE
  8
0
 62
     0
 10
290.795
 20
114.343
 30
0.0
 11
290.796
 21
5.09323
 31
0.0
  0
LINE
  8
0
 62
     0
 10
290.796
 20
5.09323
 30
0.0
 11
290.78
 21
4.69911
 31
0.0
  0
LINE
  8
0
 62
     0
 10
290.78
 20
4.69911
 30
0.0
 11
290.734
 21
4.30911
 31
0.0
  0
LINE
  8
0
 62
     0
 10
290.734
 20
4.30911
 30
0.0
 11
290.657
 21
3.92465
 31
0.0
  0
LINE
  8
0
 62
     0
 10
290.657
 20
3.92465
 30
0.0
 11
290.551
 21
3.54707
 31
0.0
  0
LINE
  8
0
 62
     0
 10
290.551
 20
3.54707
 30
0.0
 11
290.415
 21
3.17913
 31
0.0
  0
LINE
  8
0
 62
     0
 10
290.415
 20
3.17913
 30
0.0
 11
290.251
 21
2.82222
 31
0.0
  0
LINE
  8
0
 62
     0
 10
290.251
 20
2.82222
 30
0.0
 11
290.059
 21
2.47909
 31
0.0
  0
LINE
  8
0
 62
     0
 10
290.059
 20
2.47909
 30
0.0
 11
289.842
 21
2.15387
 31
0.0
  0
LINE
  8
0
 62
     0
 10
289.842
 20
2.15387
 30
0.0
 11
289.597
 21
1.84519
 31
0.0
  0
LINE
  8
0
 62
     0
 10
289.597
 20
1.84519
 30
0.0
 11
289.33
 21
1.55718
 31
0.0
  0
LINE
  8
0
 62
     0
 10
289.33
 20
1.55718
 30
0.0
 11
289.042
 21
1.28984
 31
0.0
  0
LINE
  8
0
 62
     0
 10
289.042
 20
1.28984
 30
0.0
 11
288.733
 21
1.04593
 31
0.0
  0
LINE
  8
0
 62
     0
 10
288.733
 20
1.04593
 30
0.0
 11
288.408
 21
0.828202
 31
0.0
  0
LINE
  8
0
 62
     0
 10
288.408
 20
0.828202
 30
0.0
 11
288.065
 21
0.636655
 31
0.0
  0
LINE
  8
0
 62
     0
 10
288.065
 20
0.636655
 30
0.0
 11
287.708
 21
0.472666
 31
0.0
  0
LINE
  8
0
 62
     0
 10
287.708
 20
0.472666
 30
0.0
 11
287.34
 21
0.336241
 31
0.0
  0
LINE
  8
0
 62
     0
 10
287.34
 20
0.336241
 30
0.0
 11
286.963
 21
0.230132
 31
0.0
  0
LINE
  8
0
 62
     0
 10
286.963
 20
0.230132
 30
0.0
 11
286.578
 21
0.152962
 31
0.0
  0
LINE
  8
0
 62
     0
 10
286.578
 20
0.152962
 30
0.0
 11
286.188
 21
0.107487
 31
0.0
  0
LINE
  8
0
 62
     0
 10
286.188
 20
0.107487
 30
0.0
 11
285.796
 21
0.0909507
 31
0.0
  0
LINE
  8
0
 62
     0
 10
285.796
 20
0.0909507
 30
0.0
 11
5.0946
 21
0.0923286
 31
0.0
  0
LINE
  8
0
 62
     0
 10
5.0946
 20
0.0923286
 30
0.0
 11
4.70186
 21
0.107487
 31
0.0
  0
LINE
  8
0
 62
     0
 10
4.70186
 20
0.107487
 30
0.0
 11
4.3119
 21
0.152962
 31
0.0
  0
LINE
  8
0
 62
     0
 10
4.3119
 20
0.152962
 30
0.0
 11
3.9274
 21
0.230132
 31
0.0
  0
LINE
  8
0
 62
     0
 10
3.9274
 20
0.230132
 30
0.0
 11
3.54845
 21
0.336241
 31
0.0
  0
LINE
  8
0
 62
     0
 10
3.54845
 20
0.336241
 30
0.0
 11
3.18051
 21
0.472666
 31
0.0
  0
LINE
  8
0
 62
     0
 10
3.18051
 20
0.472666
 30
0.0
 11
2.82498
 21
0.636655
 31
0.0
  0
LINE
  8
0
 62
     0
 10
2.82498
 20
0.636655
 30
0.0
 11
2.48185
 21
0.828202
 31
0.0
  0
LINE
  8
0
 62
     0
 10
2.48185
 20
0.828202
 30
0.0
 11
2.15525
 21
1.04593
 31
0.0
  0
LINE
  8
0
 62
     0
 10
2.15525
 20
1.04593
 30
0.0
 11
1.84657
 21
1.28984
 31
0.0
  0
LINE
  8
0
 62
     0
 10
1.84657
 20
1.28984
 30
0.0
 11
1.55856
 21
1.55718
 31
0.0
  0
LINE
  8
0
 62
     0
 10
1.55856
 20
1.55718
 30
0.0
 11
1.29122
 21
1.84519
 31
0.0
  0
LINE
  8
0
 62
     0
 10
1.29122
 20
1.84519
 30
0.0
 11
1.04869
 21
2.15387
 31
0.0
  0
LINE
  8
0
 62
     0
 10
1.04869
 20
2.15387
 30
0.0
 11
0.830957
 21
2.47909
 31
0.0
  0
LINE
  8
0
 62
     0
 10
0.830957
 20
2.47909
 30
0.0
 11
0.63941
 21
2.82222
 31
0.0
  0
LINE
  8
0
 62
     0
 10
0.63941
 20
2.82222
 30
0.0
 11
0.475424
 21
3.17913
 31
0.0
  0
LINE
  8
0
 62
     0
 10
0.475424
 20
3.17913
 30
0.0
 11
0.338998
 21
3.54707
 31
0.0
  0
LINE
  8
0
 62
     0
 10
0.338998
 20
3.54707
 30
0.0
 11
0.232888
 21
3.92465
 31
0.0
  0
LINE
  8
0
 62
     0
 10
0.232888
 20
3.92465
 30
0.0
 11
0.155718
 21
4.30911
 31
0.0
  0
LINE
  8
0
 62
     0
 10
0.155718
 20
4.30911
 30
0.0
 11
0.110243
 21
4.69911
 31
0.0
  0
LINE
  8
0
 62
     0
 10
0.110243
 20
4.69911
 30
0.0
 11
0.0937066
 21
5.09323
 31
0.0
  0
LINE
  8
0
 62
     0
 10
0.0937066
 20
5.09323
 30
0.0
 11
0.0950846
 21
114.344
 31
0.0
  0
LINE
  8
0
 62
     0
 10
0.0950846
 20
114.344
 30
0.0
 11
0.110243
 21
114.735
 31
0.0
  0
LINE
  8
0
 62
     0
 10
0.110243
 20
114.735
 30
0.0
 11
0.155718
 21
115.125
 31
0.0
  0
LINE
  8
0
 62
     0
 10
0.155718
 20
115.125
 30
0.0
 11
0.232888
 21
115.51
 31
0.0
  0
LINE
  8
0
 62
     0
 10
0.232888
 20
115.51
 30
0.0
 11
0.338998
 21
115.889
 31
0.0
  0
LINE
  8
0
 62
     0
 10
0.338998
 20
115.889
 30
0.0
 11
0.475424
 21
116.257
 31
0.0
  0
LINE
  8
0
 62
     0
 10
0.475424
 20
116.257
 30
0.0
 11
0.63941
 21
116.612
 31
0.0
  0
LINE
  8
0
 62
     0
 10
0.63941
 20
116.612
 30
0.0
 11
0.830957
 21
116.955
 31
0.0
  0
LINE
  8
0
 62
     0
 10
0.830957
 20
116.955
 30
0.0
 11
1.04869
 21
117.282
 31
0.0
  0
LINE
  8
0
 62
     0
 10
1.04869
 20
117.282
 30
0.0
 11
1.29122
 21
117.591
 31
0.0
  0
LINE
  8
0
 62
     0
 10
1.29122
 20
117.591
 30
0.0
 11
1.55856
 21
117.879
 31
0.0
  0
LINE
  8
0
 62
     0
 10
1.55856
 20
117.879
 30
0.0
 11
1.84657
 21
118.146
 31
0.0
  0
LINE
  8
0
 62
     0
 10
1.84657
 20
118.146
 30
0.0
 11
2.15525
 21
118.389
 31
0.0
  0
LINE
  8
0
 62
     0
 10
2.15525
 20
118.389
 30
0.0
 11
2.48185
 21
118.606
 31
0.0
  0
LINE
  8
0
 62
     0
 10
2.48185
 20
118.606
 30
0.0
 11
2.82498
 21
118.798
 31
0.0
  0
LINE
  8
0
 62
     0
 10
2.82498
 20
118.798
 30
0.0
 11
3.18051
 21
118.962
 31
0.0
  0
LINE
  8
0
 62
     0
 10
3.18051
 20
118.962
 30
0.0
 11
3.54845
 21
119.098
 31
0.0
  0
LINE
  8
0
 62
     0
 10
3.54845
 20
119.098
 30
0.0
 11
3.9274
 21
119.204
 31
0.0
  0
LINE
  8
0
 62
     0
 10
3.9274
 20
119.204
 30
0.0
 11
4.3119
 21
119.282
 31
0.0
  0
LINE
  8
0
 62
     0
 10
4.3119
 20
119.282
 30
0.0
 11
4.70186
 21
119.327
 31
0.0
  0
LINE
  8
0
 62
     0
 10
4.70186
 20
119.327
 30
0.0
 11
5.0946
 21
119.344
 31
0.0
  0
LINE
  8
0
 62
     0
 10
5.0946
 20
119.344
 30
0.0
 11
285.796
 21
119.344
 31
0.0
  0
LINE
  8
0
 62
     0
 10
285.796
 20
119.344
 30
0.0
 11
286.188
 21
119.327
 31
0.0
  0
LINE
  8
0
 62
     0
 10
286.486
 20
5.04363
 30
0.0
 11
286.208
 21
4.90167
 31
0.0
  0
LINE
  8
0
 62
     0
 10
286.208
 20
4.90167
 30
0.0
 11
285.986
 21
4.67981
 31
0.0
  0
LINE
  8
0
 62
     0
 10
285.986
 20
4.67981
 30
0.0
 11
285.844
 21
4.40147
 31
0.0
  0
LINE
  8
0
 62
     0
 10
285.844
 20
4.40147
 30
0.0
 11
285.796
 21
4.09279
 31
0.0
  0
LINE
  8
0
 62
     0
 10
285.796
 20
4.09279
 30
0.0
 11
285.844
 21
3.78273
 31
0.0
  0
LINE
  8
0
 62
     0
 10
285.844
 20
3.78273
 30
0.0
 11
285.986
 21
3.50435
 31
0.0
  0
LINE
  8
0
 62
     0
 10
285.986
 20
3.50435
 30
0.0
 11
286.208
 21
3.28249
 31
0.0
  0
LINE
  8
0
 62
     0
 10
286.208
 20
3.28249
 30
0.0
 11
286.486
 21
3.14055
 31
0.0
  0
LINE
  8
0
 62
     0
 10
286.486
 20
3.14055
 30
0.0
 11
286.796
 21
3.09232
 31
0.0
  0
LINE
  8
0
 62
     0
 10
286.796
 20
3.09232
 30
0.0
 11
287.105
 21
3.14055
 31
0.0
  0
LINE
  8
0
 62
     0
 10
287.105
 20
3.14055
 30
0.0
 11
287.383
 21
3.28249
 31
0.0
  0
LINE
  8
0
 62
     0
 10
287.383
 20
3.28249
 30
0.0
 11
287.605
 21
3.50435
 31
0.0
  0
LINE
  8
0
 62
     0
 10
287.605
 20
3.50435
 30
0.0
 11
287.747
 21
3.78273
 31
0.0
  0
LINE
  8
0
 62
     0
 10
287.747
 20
3.78273
 30
0.0
 11
287.796
 21
4.09279
 31
0.0
  0
LINE
  8
0
 62
     0
 10
287.796
 20
4.09279
 30
0.0
 11
287.747
 21
4.40147
 31
0.0
  0
LINE
  8
0
 62
     0
 10
287.747
 20
4.40147
 30
0.0
 11
287.605
 21
4.67981
 31
0.0
  0
LINE
  8
0
 62
     0
 10
287.605
 20
4.67981
 30
0.0
 11
287.383
 21
4.90167
 31
0.0
  0
LINE
  8
0
 62
     0
 10
287.383
 20
4.90167
 30
0.0
 11
287.105
 21
5.04363
 31
0.0
  0
LINE
  8
0
 62
     0
 10
287.105
 20
5.04363
 30
0.0
 11
286.796
 21
5.09323
 31
0.0
  0
LINE
  8
0
 62
     0
 10
286.796
 20
5.09323
 30
0.0
 11
286.486
 21
5.04363
 31
0.0
  0
LINE
  8
0
 62
     0
 10
192.253
 20
5.04363
 30
0.0
 11
191.973
 21
4.90167
 31
0.0
  0
LINE
  8
0
 62
     0
 10
191.973
 20
4.90167
 30
0.0
 11
191.753
 21
4.67981
 31
0.0
  0
LINE
  8
0
 62
     0
 10
191.753
 20
4.67981
 30
0.0
 11
191.611
 21
4.40147
 31
0.0
  0
LINE
  8
0
 62
     0
 10
191.611
 20
4.40147
 30
0.0
 11
191.561
 21
4.09279
 31
0.0
  0
LINE
  8
0
 62
     0
 10
191.561
 20
4.09279
 30
0.0
 11
191.611
 21
3.78273
 31
0.0
  0
LINE
  8
0
 62
     0
 10
191.611
 20
3.78273
 30
0.0
 11
191.753
 21
3.50435
 31
0.0
  0
LINE
  8
0
 62
     0
 10
191.753
 20
3.50435
 30
0.0
 11
191.973
 21
3.28249
 31
0.0
  0
LINE
  8
0
 62
     0
 10
191.973
 20
3.28249
 30
0.0
 11
192.253
 21
3.14055
 31
0.0
  0
LINE
  8
0
 62
     0
 10
192.253
 20
3.14055
 30
0.0
 11
192.562
 21
3.09232
 31
0.0
  0
LINE
  8
0
 62
     0
 10
192.562
 20
3.09232
 30
0.0
 11
192.87
 21
3.14055
 31
0.0
  0
LINE
  8
0
 62
     0
 10
192.87
 20
3.14055
 30
0.0
 11
193.15
 21
3.28249
 31
0.0
  0
LINE
  8
0
 62
     0
 10
193.15
 20
3.28249
 30
0.0
 11
193.371
 21
3.50435
 31
0.0
  0
LINE
  8
0
 62
     0
 10
193.371
 20
3.50435
 30
0.0
 11
193.512
 21
3.78273
 31
0.0
  0
LINE
  8
0
 62
     0
 10
193.512
 20
3.78273
 30
0.0
 11
193.562
 21
4.09279
 31
0.0
  0
LINE
  8
0
 62
     0
 10
193.562
 20
4.09279
 30
0.0
 11
193.512
 21
4.40147
 31
0.0
  0
LINE
  8
0
 62
     0
 10
193.512
 20
4.40147
 30
0.0
 11
193.371
 21
4.67981
 31
0.0
  0
LINE
  8
0
 62
     0
 10
193.371
 20
4.67981
 30
0.0
 11
193.15
 21
4.90167
 31
0.0
  0
LINE
  8
0
 62
     0
 10
193.15
 20
4.90167
 30
0.0
 11
192.87
 21
5.04363
 31
0.0
  0
LINE
  8
0
 62
     0
 10
192.87
 20
5.04363
 30
0.0
 11
192.562
 21
5.09323
 31
0.0
  0
LINE
  8
0
 62
     0
 10
192.562
 20
5.09323
 30
0.0
 11
192.253
 21
5.04363
 31
0.0
  0
LINE
  8
0
 62
     0
 10
98.0186
 20
5.04363
 30
0.0
 11
97.7403
 21
4.90167
 31
0.0
  0
LINE
  8
0
 62
     0
 10
97.7403
 20
4.90167
 30
0.0
 11
97.5184
 21
4.67981
 31
0.0
  0
LINE
  8
0
 62
     0
 10
97.5184
 20
4.67981
 30
0.0
 11
97.3762
 21
4.40147
 31
0.0
  0
LINE
  8
0
 62
     0
 10
97.3762
 20
4.40147
 30
0.0
 11
97.3282
 21
4.09279
 31
0.0
  0
LINE
  8
0
 62
     0
 10
97.3282
 20
4.09279
 30
0.0
 11
97.3762
 21
3.78273
 31
0.0
  0
LINE
  8
0
 62
     0
 10
97.3762
 20
3.78273
 30
0.0
 11
97.5184
 21
3.50435
 31
0.0
  0
LINE
  8
0
 62
     0
 10
97.5184
 20
3.50435
 30
0.0
 11
97.7403
 21
3.28249
 31
0.0
  0
LINE
  8
0
 62
     0
 10
97.7403
 20
3.28249
 30
0.0
 11
98.0186
 21
3.14055
 31
0.0
  0
LINE
  8
0
 62
     0
 10
98.0186
 20
3.14055
 30
0.0
 11
98.3273
 21
3.09232
 31
0.0
  0
LINE
  8
0
 62
     0
 10
98.3273
 20
3.09232
 30
0.0
 11
98.6374
 21
3.14055
 31
0.0
  0
LINE
  8
0
 62
     0
 10
98.6374
 20
3.14055
 30
0.0
 11
98.9157
 21
3.28249
 31
0.0
  0
LINE
  8
0
 62
     0
 10
98.9157
 20
3.28249
 30
0.0
 11
99.1362
 21
3.50435
 31
0.0
  0
LINE
  8
0
 62
     0
 10
99.1362
 20
3.50435
 30
0.0
 11
99.2794
 21
3.78273
 31
0.0
  0
LINE
  8
0
 62
     0
 10
99.2794
 20
3.78273
 30
0.0
 11
99.3278
 21
4.09279
 31
0.0
  0
LINE
  8
0
 62
     0
 10
99.3278
 20
4.09279
 30
0.0
 11
99.2794
 21
4.40147
 31
0.0
  0
LINE
  8
0
 62
     0
 10
99.2794
 20
4.40147
 30
0.0
 11
99.1362
 21
4.67981
 31
0.0
  0
LINE
  8
0
 62
     0
 10
99.1362
 20
4.67981
 30
0.0
 11
98.9157
 21
4.90167
 31
0.0
  0
LINE
  8
0
 62
     0
 10
98.9157
 20
4.90167
 30
0.0
 11
98.6374
 21
5.04363
 31
0.0
  0
LINE
  8
0
 62
     0
 10
98.6374
 20
5.04363
 30
0.0
 11
98.3273
 21
5.09323
 31
0.0
  0
LINE
  8
0
 62
     0
 10
98.3273
 20
5.09323
 30
0.0
 11
98.0186
 21
5.04363
 31
0.0
  0
LINE
  8
0
 62
     0
 10
3.78411
 20
5.04363
 30
0.0
 11
3.50711
 21
4.90167
 31
0.0
  0
LINE
  8
0
 62
     0
 10
3.50711
 20
4.90167
 30
0.0
 11
3.28386
 21
4.67981
 31
0.0
  0
LINE
  8
0
 62
     0
 10
3.28386
 20
4.67981
 30
0.0
 11
3.14331
 21
4.40147
 31
0.0
  0
LINE
  8
0
 62
     0
 10
3.14331
 20
4.40147
 30
0.0
 11
3.0937
 21
4.09279
 31
0.0
  0
LINE
  8
0
 62
     0
 10
3.0937
 20
4.09279
 30
0.0
 11
3.14331
 21
3.78273
 31
0.0
  0
LINE
  8
0
 62
     0
 10
3.14331
 20
3.78273
 30
0.0
 11
3.28386
 21
3.50435
 31
0.0
  0
LINE
  8
0
 62
     0
 10
3.28386
 20
3.50435
 30
0.0
 11
3.50711
 21
3.28249
 31
0.0
  0
LINE
  8
0
 62
     0
 10
3.50711
 20
3.28249
 30
0.0
 11
3.78411
 21
3.14055
 31
0.0
  0
LINE
  8
0
 62
     0
 10
3.78411
 20
3.14055
 30
0.0
 11
4.09416
 21
3.09232
 31
0.0
  0
LINE
  8
0
 62
     0
 10
4.09416
 20
3.09232
 30
0.0
 11
4.40422
 21
3.14055
 31
0.0
  0
LINE
  8
0
 62
     0
 10
4.40422
 20
3.14055
 30
0.0
 11
4.68118
 21
3.28249
 31
0.0
  0
LINE
  8
0
 62
     0
 10
4.68118
 20
3.28249
 30
0.0
 11
4.90442
 21
3.50435
 31
0.0
  0
LINE
  8
0
 62
     0
 10
4.90442
 20
3.50435
 30
0.0
 11
5.04638
 21
3.78273
 31
0.0
  0
LINE
  8
0
 62
     0
 10
5.04638
 20
3.78273
 30
0.0
 11
5.0946
 21
4.09279
 31
0.0
  0
LINE
  8
0
 62
     0
 10
5.0946
 20
4.09279
 30
0.0
 11
5.04638
 21
4.40147
 31
0.0
  0
LINE
  8
0
 62
     0
 10
5.04638
 20
4.40147
 30
0.0
 11
4.90442
 21
4.67981
 31
0.0
  0
LINE
  8
0
 62
     0
 10
4.90442
 20
4.67981
 30
0.0
 11
4.68118
 21
4.90167
 31
0.0
  0
LINE
  8
0
 62
     0
 10
4.68118
 20
4.90167
 30
0.0
 11
4.40422
 21
5.04363
 31
0.0
  0
LINE
  8
0
 62
     0
 10
4.40422
 20
5.04363
 30
0.0
 11
4.09416
 21
5.09323
 31
0.0
  0
LINE
  8
0
 62
     0
 10
4.09416
 20
5.09323
 30
0.0
 11
3.78411
 21
5.04363
 31
0.0
  0
LINE
  8
0
 62
     0
 10
14.6196
 20
28.6177
 30
0.0
 11
28.6191
 21
28.6177
 31
0.0
  0
LINE
  8
0
 62
     0
 10
28.6191
 20
28.6177
 30
0.0
 11
28.6191
 21
14.6182
 31
0.0
  0
LINE
  8
0
 62
     0
 10
28.6191
 20
14.6182
 30
0.0
 11
14.6196
 21
14.6182
 31
0.0
  0
LINE
  8
0
 62
     0
 10
14.6196
 20
14.6182
 30
0.0
 11
14.6196
 21
28.6177
 31
0.0
  0
LINE
  8
0
 62
     0
 10
33.6696
 20
28.6177
 30
0.0
 11
47.6691
 21
28.6177
 31
0.0
  0
LINE
  8
0
 62
     0
 10
47.6691
 20
28.6177
 30
0.0
 11
47.6691
 21
14.6182
 31
0.0
  0
LINE
  8
0
 62
     0
 10
47.6691
 20
14.6182
 30
0.0
 11
33.6696
 21
14.6182
 31
0.0
  0
LINE
  8
0
 62
     0
 10
33.6696
 20
14.6182
 30
0.0
 11
33.6696
 21
28.6177
 31
0.0
  0
LINE
  8
0
 62
     0
 10
55.1007
 20
28.6177
 30
0.0
 11
69.1003
 21
28.6177
 31
0.0
  0
LINE
  8
0
 62
     0
 10
69.1003
 20
28.6177
 30
0.0
 11
69.1003
 21
14.6182
 31
0.0
  0
LINE
  8
0
 62
     0
 10
69.1003
 20
14.6182
 30
0.0
 11
55.1007
 21
14.6182
 31
0.0
  0
LINE
  8
0
 62
     0
 10
55.1007
 20
14.6182
 30
0.0
 11
55.1007
 21
28.6177
 31
0.0
  0
LINE
  8
0
 62
     0
 10
78.9132
 20
28.6177
 30
0.0
 11
92.9128
 21
28.6177
 31
0.0
  0
LINE
  8
0
 62
     0
 10
92.9128
 20
28.6177
 30
0.0
 11
92.9128
 21
14.6182
 31
0.0
  0
LINE
  8
0
 62
     0
 10
92.9128
 20
14.6182
 30
0.0
 11
78.9132
 21
14.6182
 31
0.0
  0
LINE
  8
0
 62
     0
 10
78.9132
 20
14.6182
 30
0.0
 11
78.9132
 21
28.6177
 31
0.0
  0
LINE
  8
0
 62
     0
 10
105.107
 20
28.6177
 30
0.0
 11
119.107
 21
28.6177
 31
0.0
  0
LINE
  8
0
 62
     0
 10
119.107
 20
28.6177
 30
0.0
 11
119.107
 21
14.6182
 31
0.0
  0
LINE
  8
0
 62
     0
 10
119.107
 20
14.6182
 30
0.0
 11
105.107
 21
14.6182
 31
0.0
  0
LINE
  8
0
 62
     0
 10
105.107
 20
14.6182
 30
0.0
 11
105.107
 21
28.6177
 31
0.0
  0
LINE
  8
0
 62
     0
 10
133.682
 20
28.6177
 30
0.0
 11
147.682
 21
28.6177
 31
0.0
  0
LINE
  8
0
 62
     0
 10
147.682
 20
28.6177
 30
0.0
 11
147.682
 21
14.6182
 31
0.0
  0
LINE
  8
0
 62
     0
 10
147.682
 20
14.6182
 30
0.0
 11
133.682
 21
14.6182
 31
0.0
  0
LINE
  8
0
 62
     0
 10
133.682
 20
14.6182
 30
0.0
 11
133.682
 21
28.6177
 31
0.0
  0
LINE
  8
0
 62
     0
 10
159.876
 20
28.6177
 30
0.0
 11
173.875
 21
28.6177
 31
0.0
  0
LINE
  8
0
 62
     0
 10
173.875
 20
28.6177
 30
0.0
 11
173.875
 21
14.6182
 31
0.0
  0
LINE
  8
0
 62
     0
 10
173.875
 20
14.6182
 30
0.0
 11
159.876
 21
14.6182
 31
0.0
  0
LINE
  8
0
 62
     0
 10
159.876
 20
14.6182
 30
0.0
 11
159.876
 21
28.6177
 31
0.0
  0
LINE
  8
0
 62
     0
 10
183.688
 20
28.6177
 30
0.0
 11
197.688
 21
28.6177
 31
0.0
  0
LINE
  8
0
 62
     0
 10
197.688
 20
28.6177
 30
0.0
 11
197.688
 21
14.6182
 31
0.0
  0
LINE
  8
0
 62
     0
 10
197.688
 20
14.6182
 30
0.0
 11
183.688
 21
14.6182
 31
0.0
  0
LINE
  8
0
 62
     0
 10
183.688
 20
14.6182
 30
0.0
 11
183.688
 21
28.6177
 31
0.0
  0
LINE
  8
0
 62
     0
 10
205.118
 20
28.6177
 30
0.0
 11
219.119
 21
28.6177
 31
0.0
  0
LINE
  8
0
 62
     0
 10
219.119
 20
28.6177
 30
0.0
 11
219.119
 21
14.6182
 31
0.0
  0
LINE
  8
0
 62
     0
 10
219.119
 20
14.6182
 30
0.0
 11
205.118
 21
14.6182
 31
0.0
  0
LINE
  8
0
 62
     0
 10
205.118
 20
14.6182
 30
0.0
 11
205.118
 21
28.6177
 31
0.0
  0
LINE
  8
0
 62
     0
 10
224.169
 20
28.6177
 30
0.0
 11
238.169
 21
28.6177
 31
0.0
  0
LINE
  8
0
 62
     0
 10
238.169
 20
28.6177
 30
0.0
 11
238.169
 21
14.6182
 31
0.0
  0
LINE
  8
0
 62
     0
 10
238.169
 20
14.6182
 30
0.0
 11
224.169
 21
14.6182
 31
0.0
  0
LINE
  8
0
 62
     0
 10
224.169
 20
14.6182
 30
0.0
 11
224.169
 21
28.6177
 31
0.0
  0
LINE
  8
0
 62
     0
 10
243.219
 20
28.6177
 30
0.0
 11
257.219
 21
28.6177
 31
0.0
  0
LINE
  8
0
 62
     0
 10
257.219
 20
28.6177
 30
0.0
 11
257.219
 21
14.6182
 31
0.0
  0
LINE
  8
0
 62
     0
 10
257.219
 20
14.6182
 30
0.0
 11
243.219
 21
14.6182
 31
0.0
  0
LINE
  8
0
 62
     0
 10
243.219
 20
14.6182
 30
0.0
 11
243.219
 21
28.6177
 31
0.0
  0
LINE
  8
0
 62
     0
 10
262.269
 20
28.6177
 30
0.0
 11
276.269
 21
28.6177
 31
0.0
  0
LINE
  8
0
 62
     0
 10
276.269
 20
28.6177
 30
0.0
 11
276.269
 21
14.6182
 31
0.0
  0
LINE
  8
0
 62
     0
 10
276.269
 20
14.6182
 30
0.0
 11
262.269
 21
14.6182
 31
0.0
  0
LINE
  8
0
 62
     0
 10
262.269
 20
14.6182
 30
0.0
 11
262.269
 21
28.6177
 31
0.0
  0
LINE
  8
0
 62
     0
 10
14.6196
 20
47.6677
 30
0.0
 11
28.6191
 21
47.6677
 31
0.0
  0
LINE
  8
0
 62
     0
 10
28.6191
 20
47.6677
 30
0.0
 11
28.6191
 21
33.6682
 31
0.0
  0
LINE
  8
0
 62
     0
 10
28.6191
 20
33.6682
 30
0.0
 11
14.6196
 21
33.6682
 31
0.0
  0
LINE
  8
0
 62
     0
 10
14.6196
 20
33.6682
 30
0.0
 11
14.6196
 21
47.6677
 31
0.0
  0
LINE
  8
0
 62
     0
 10
33.6696
 20
47.6677
 30
0.0
 11
47.6691
 21
47.6677
 31
0.0
  0
LINE
  8
0
 62
     0
 10
47.6691
 20
47.6677
 30
0.0
 11
47.6691
 21
33.6682
 31
0.0
  0
LINE
  8
0
 62
     0
 10
47.6691
 20
33.6682
 30
0.0
 11
33.6696
 21
33.6682
 31
0.0
  0
LINE
  8
0
 62
     0
 10
33.6696
 20
33.6682
 30
0.0
 11
33.6696
 21
47.6677
 31
0.0
  0
LINE
  8
0
 62
     0
 10
52.7195
 20
47.6677
 30
0.0
 11
66.7191
 21
47.6677
 31
0.0
  0
LINE
  8
0
 62
     0
 10
66.7191
 20
47.6677
 30
0.0
 11
66.7191
 21
33.6682
 31
0.0
  0
LINE
  8
0
 62
     0
 10
66.7191
 20
33.6682
 30
0.0
 11
52.7195
 21
33.6682
 31
0.0
  0
LINE
  8
0
 62
     0
 10
52.7195
 20
33.6682
 30
0.0
 11
52.7195
 21
47.6677
 31
0.0
  0
LINE
  8
0
 62
     0
 10
71.7695
 20
47.6677
 30
0.0
 11
85.7691
 21
47.6677
 31
0.0
  0
LINE
  8
0
 62
     0
 10
85.7691
 20
47.6677
 30
0.0
 11
85.7691
 21
33.6682
 31
0.0
  0
LINE
  8
0
 62
     0
 10
85.7691
 20
33.6682
 30
0.0
 11
71.7695
 21
33.6682
 31
0.0
  0
LINE
  8
0
 62
     0
 10
71.7695
 20
33.6682
 30
0.0
 11
71.7695
 21
47.6677
 31
0.0
  0
LINE
  8
0
 62
     0
 10
90.8195
 20
47.6677
 30
0.0
 11
104.819
 21
47.6677
 31
0.0
  0
LINE
  8
0
 62
     0
 10
104.819
 20
47.6677
 30
0.0
 11
104.819
 21
33.6682
 31
0.0
  0
LINE
  8
0
 62
     0
 10
104.819
 20
33.6682
 30
0.0
 11
90.8195
 21
33.6682
 31
0.0
  0
LINE
  8
0
 62
     0
 10
90.8195
 20
33.6682
 30
0.0
 11
90.8195
 21
47.6677
 31
0.0
  0
LINE
  8
0
 62
     0
 10
109.868
 20
47.6677
 30
0.0
 11
123.869
 21
47.6677
 31
0.0
  0
LINE
  8
0
 62
     0
 10
123.869
 20
47.6677
 30
0.0
 11
123.869
 21
33.6682
 31
0.0
  0
LINE
  8
0
 62
     0
 10
123.869
 20
33.6682
 30
0.0
 11
109.868
 21
33.6682
 31
0.0
  0
LINE
  8
0
 62
     0
 10
109.868
 20
33.6682
 30
0.0
 11
109.868
 21
47.6677
 31
0.0
  0
LINE
  8
0
 62
     0
 10
128.919
 20
47.6677
 30
0.0
 11
142.919
 21
47.6677
 31
0.0
  0
LINE
  8
0
 62
     0
 10
142.919
 20
47.6677
 30
0.0
 11
142.919
 21
33.6682
 31
0.0
  0
LINE
  8
0
 62
     0
 10
142.919
 20
33.6682
 30
0.0
 11
128.919
 21
33.6682
 31
0.0
  0
LINE
  8
0
 62
     0
 10
128.919
 20
33.6682
 30
0.0
 11
128.919
 21
47.6677
 31
0.0
  0
LINE
  8
0
 62
     0
 10
147.969
 20
47.6677
 30
0.0
 11
161.969
 21
47.6677
 31
0.0
  0
LINE
  8
0
 62
     0
 10
161.969
 20
47.6677
 30
0.0
 11
161.969
 21
33.6682
 31
0.0
  0
LINE
  8
0
 62
     0
 10
161.969
 20
33.6682
 30
0.0
 11
147.969
 21
33.6682
 31
0.0
  0
LINE
  8
0
 62
     0
 10
147.969
 20
33.6682
 30
0.0
 11
147.969
 21
47.6677
 31
0.0
  0
LINE
  8
0
 62
     0
 10
167.019
 20
47.6677
 30
0.0
 11
181.019
 21
47.6677
 31
0.0
  0
LINE
  8
0
 62
     0
 10
181.019
 20
47.6677
 30
0.0
 11
181.019
 21
33.6682
 31
0.0
  0
LINE
  8
0
 62
     0
 10
181.019
 20
33.6682
 30
0.0
 11
167.019
 21
33.6682
 31
0.0
  0
LINE
  8
0
 62
     0
 10
167.019
 20
33.6682
 30
0.0
 11
167.019
 21
47.6677
 31
0.0
  0
LINE
  8
0
 62
     0
 10
186.069
 20
47.6677
 30
0.0
 11
200.069
 21
47.6677
 31
0.0
  0
LINE
  8
0
 62
     0
 10
200.069
 20
47.6677
 30
0.0
 11
200.069
 21
33.6682
 31
0.0
  0
LINE
  8
0
 62
     0
 10
200.069
 20
33.6682
 30
0.0
 11
186.069
 21
33.6682
 31
0.0
  0
LINE
  8
0
 62
     0
 10
186.069
 20
33.6682
 30
0.0
 11
186.069
 21
47.6677
 31
0.0
  0
LINE
  8
0
 62
     0
 10
205.119
 20
47.6677
 30
0.0
 11
219.119
 21
47.6677
 31
0.0
  0
LINE
  8
0
 62
     0
 10
219.119
 20
47.6677
 30
0.0
 11
219.119
 21
33.6682
 31
0.0
  0
LINE
  8
0
 62
     0
 10
219.119
 20
33.6682
 30
0.0
 11
205.119
 21
33.6682
 31
0.0
  0
LINE
  8
0
 62
     0
 10
205.119
 20
33.6682
 30
0.0
 11
205.119
 21
47.6677
 31
0.0
  0
LINE
  8
0
 62
     0
 10
224.169
 20
47.6677
 30
0.0
 11
238.169
 21
47.6677
 31
0.0
  0
LINE
  8
0
 62
     0
 10
238.169
 20
47.6677
 30
0.0
 11
238.169
 21
33.6682
 31
0.0
  0
LINE
  8
0
 62
     0
 10
238.169
 20
33.6682
 30
0.0
 11
224.169
 21
33.6682
 31
0.0
  0
LINE
  8
0
 62
     0
 10
224.169
 20
33.6682
 30
0.0
 11
224.169
 21
47.6677
 31
0.0
  0
LINE
  8
0
 62
     0
 10
243.219
 20
47.6677
 30
0.0
 11
257.219
 21
47.6677
 31
0.0
  0
LINE
  8
0
 62
     0
 10
257.219
 20
47.6677
 30
0.0
 11
257.219
 21
33.6682
 31
0.0
  0
LINE
  8
0
 62
     0
 10
257.219
 20
33.6682
 30
0.0
 11
243.219
 21
33.6682
 31
0.0
  0
LINE
  8
0
 62
     0
 10
243.219
 20
33.6682
 30
0.0
 11
243.219
 21
47.6677
 31
0.0
  0
LINE
  8
0
 62
     0
 10
262.269
 20
47.6677
 30
0.0
 11
276.269
 21
47.6677
 31
0.0
  0
LINE
  8
0
 62
     0
 10
276.269
 20
47.6677
 30
0.0
 11
276.269
 21
33.6682
 31
0.0
  0
LINE
  8
0
 62
     0
 10
276.269
 20
33.6682
 30
0.0
 11
262.269
 21
33.6682
 31
0.0
  0
LINE
  8
0
 62
     0
 10
262.269
 20
33.6682
 30
0.0
 11
262.269
 21
47.6677
 31
0.0
  0
LINE
  8
0
 62
     0
 10
14.6196
 20
66.7177
 30
0.0
 11
28.6191
 21
66.7177
 31
0.0
  0
LINE
  8
0
 62
     0
 10
28.6191
 20
66.7177
 30
0.0
 11
28.6191
 21
52.7184
 31
0.0
  0
LINE
  8
0
 62
     0
 10
28.6191
 20
52.7184
 30
0.0
 11
14.6196
 21
52.7184
 31
0.0
  0
LINE
  8
0
 62
     0
 10
14.6196
 20
52.7184
 30
0.0
 11
14.6196
 21
66.7177
 31
0.0
  0
LINE
  8
0
 62
     0
 10
33.6696
 20
66.7177
 30
0.0
 11
47.6691
 21
66.7177
 31
0.0
  0
LINE
  8
0
 62
     0
 10
47.6691
 20
66.7177
 30
0.0
 11
47.6691
 21
52.7184
 31
0.0
  0
LINE
  8
0
 62
     0
 10
47.6691
 20
52.7184
 30
0.0
 11
33.6696
 21
52.7184
 31
0.0
  0
LINE
  8
0
 62
     0
 10
33.6696
 20
52.7184
 30
0.0
 11
33.6696
 21
66.7177
 31
0.0
  0
LINE
  8
0
 62
     0
 10
52.7195
 20
66.7177
 30
0.0
 11
66.7191
 21
66.7177
 31
0.0
  0
LINE
  8
0
 62
     0
 10
66.7191
 20
66.7177
 30
0.0
 11
66.7191
 21
52.7184
 31
0.0
  0
LINE
  8
0
 62
     0
 10
66.7191
 20
52.7184
 30
0.0
 11
52.7195
 21
52.7184
 31
0.0
  0
LINE
  8
0
 62
     0
 10
52.7195
 20
52.7184
 30
0.0
 11
52.7195
 21
66.7177
 31
0.0
  0
LINE
  8
0
 62
     0
 10
71.7695
 20
66.7177
 30
0.0
 11
85.7691
 21
66.7177
 31
0.0
  0
LINE
  8
0
 62
     0
 10
85.7691
 20
66.7177
 30
0.0
 11
85.7691
 21
52.7184
 31
0.0
  0
LINE
  8
0
 62
     0
 10
85.7691
 20
52.7184
 30
0.0
 11
71.7695
 21
52.7184
 31
0.0
  0
LINE
  8
0
 62
     0
 10
71.7695
 20
52.7184
 30
0.0
 11
71.7695
 21
66.7177
 31
0.0
  0
LINE
  8
0
 62
     0
 10
90.8195
 20
66.7177
 30
0.0
 11
104.819
 21
66.7177
 31
0.0
  0
LINE
  8
0
 62
     0
 10
104.819
 20
66.7177
 30
0.0
 11
104.819
 21
52.7184
 31
0.0
  0
LINE
  8
0
 62
     0
 10
104.819
 20
52.7184
 30
0.0
 11
90.8195
 21
52.7184
 31
0.0
  0
LINE
  8
0
 62
     0
 10
90.8195
 20
52.7184
 30
0.0
 11
90.8195
 21
66.7177
 31
0.0
  0
LINE
  8
0
 62
     0
 10
109.868
 20
66.7177
 30
0.0
 11
123.869
 21
66.7177
 31
0.0
  0
LINE
  8
0
 62
     0
 10
123.869
 20
66.7177
 30
0.0
 11
123.869
 21
52.7184
 31
0.0
  0
LINE
  8
0
 62
     0
 10
123.869
 20
52.7184
 30
0.0
 11
109.868
 21
52.7184
 31
0.0
  0
LINE
  8
0
 62
     0
 10
109.868
 20
52.7184
 30
0.0
 11
109.868
 21
66.7177
 31
0.0
  0
LINE
  8
0
 62
     0
 10
128.919
 20
66.7177
 30
0.0
 11
142.919
 21
66.7177
 31
0.0
  0
LINE
  8
0
 62
     0
 10
142.919
 20
66.7177
 30
0.0
 11
142.919
 21
52.7184
 31
0.0
  0
LINE
  8
0
 62
     0
 10
142.919
 20
52.7184
 30
0.0
 11
128.919
 21
52.7184
 31
0.0
  0
LINE
  8
0
 62
     0
 10
128.919
 20
52.7184
 30
0.0
 11
128.919
 21
66.7177
 31
0.0
  0
LINE
  8
0
 62
     0
 10
147.969
 20
66.7177
 30
0.0
 11
161.969
 21
66.7177
 31
0.0
  0
LINE
  8
0
 62
     0
 10
161.969
 20
66.7177
 30
0.0
 11
161.969
 21
52.7184
 31
0.0
  0
LINE
  8
0
 62
     0
 10
161.969
 20
52.7184
 30
0.0
 11
147.969
 21
52.7184
 31
0.0
  0
LINE
  8
0
 62
     0
 10
147.969
 20
52.7184
 30
0.0
 11
147.969
 21
66.7177
 31
0.0
  0
LINE
  8
0
 62
     0
 10
167.019
 20
66.7177
 30
0.0
 11
181.019
 21
66.7177
 31
0.0
  0
LINE
  8
0
 62
     0
 10
181.019
 20
66.7177
 30
0.0
 11
181.019
 21
52.7184
 31
0.0
  0
LINE
  8
0
 62
     0
 10
181.019
 20
52.7184
 30
0.0
 11
167.019
 21
52.7184
 31
0.0
  0
LINE
  8
0
 62
     0
 10
167.019
 20
52.7184
 30
0.0
 11
167.019
 21
66.7177
 31
0.0
  0
LINE
  8
0
 62
     0
 10
186.069
 20
66.7177
 30
0.0
 11
200.069
 21
66.7177
 31
0.0
  0
LINE
  8
0
 62
     0
 10
200.069
 20
66.7177
 30
0.0
 11
200.069
 21
52.7184
 31
0.0
  0
LINE
  8
0
 62
     0
 10
200.069
 20
52.7184
 30
0.0
 11
186.069
 21
52.7184
 31
0.0
  0
LINE
  8
0
 62
     0
 10
186.069
 20
52.7184
 30
0.0
 11
186.069
 21
66.7177
 31
0.0
  0
LINE
  8
0
 62
     0
 10
205.119
 20
66.7177
 30
0.0
 11
219.119
 21
66.7177
 31
0.0
  0
LINE
  8
0
 62
     0
 10
219.119
 20
66.7177
 30
0.0
 11
219.119
 21
52.7184
 31
0.0
  0
LINE
  8
0
 62
     0
 10
219.119
 20
52.7184
 30
0.0
 11
205.119
 21
52.7184
 31
0.0
  0
LINE
  8
0
 62
     0
 10
205.119
 20
52.7184
 30
0.0
 11
205.119
 21
66.7177
 31
0.0
  0
LINE
  8
0
 62
     0
 10
224.169
 20
66.7177
 30
0.0
 11
238.169
 21
66.7177
 31
0.0
  0
LINE
  8
0
 62
     0
 10
238.169
 20
66.7177
 30
0.0
 11
238.169
 21
52.7184
 31
0.0
  0
LINE
  8
0
 62
     0
 10
238.169
 20
52.7184
 30
0.0
 11
224.169
 21
52.7184
 31
0.0
  0
LINE
  8
0
 62
     0
 10
224.169
 20
52.7184
 30
0.0
 11
224.169
 21
66.7177
 31
0.0
  0
LINE
  8
0
 62
     0
 10
243.219
 20
66.7177
 30
0.0
 11
257.219
 21
66.7177
 31
0.0
  0
LINE
  8
0
 62
     0
 10
257.219
 20
66.7177
 30
0.0
 11
257.219
 21
52.7184
 31
0.0
  0
LINE
  8
0
 62
     0
 10
257.219
 20
52.7184
 30
0.0
 11
243.219
 21
52.7184
 31
0.0
  0
LINE
  8
0
 62
     0
 10
243.219
 20
52.7184
 30
0.0
 11
243.219
 21
66.7177
 31
0.0
  0
LINE
  8
0
 62
     0
 10
262.269
 20
66.7177
 30
0.0
 11
276.269
 21
66.7177
 31
0.0
  0
LINE
  8
0
 62
     0
 10
276.269
 20
66.7177
 30
0.0
 11
276.269
 21
52.7184
 31
0.0
  0
LINE
  8
0
 62
     0
 10
276.269
 20
52.7184
 30
0.0
 11
262.269
 21
52.7184
 31
0.0
  0
LINE
  8
0
 62
     0
 10
262.269
 20
52.7184
 30
0.0
 11
262.269
 21
66.7177
 31
0.0
  0
LINE
  8
0
 62
     0
 10
14.6196
 20
85.7677
 30
0.0
 11
28.6191
 21
85.7677
 31
0.0
  0
LINE
  8
0
 62
     0
 10
28.6191
 20
85.7677
 30
0.0
 11
28.6191
 21
71.7684
 31
0.0
  0
LINE
  8
0
 62
     0
 10
28.6191
 20
71.7684
 30
0.0
 11
14.6196
 21
71.7684
 31
0.0
  0
LINE
  8
0
 62
     0
 10
14.6196
 20
71.7684
 30
0.0
 11
14.6196
 21
85.7677
 31
0.0
  0
LINE
  8
0
 62
     0
 10
33.6696
 20
85.7677
 30
0.0
 11
47.6691
 21
85.7677
 31
0.0
  0
LINE
  8
0
 62
     0
 10
47.6691
 20
85.7677
 30
0.0
 11
47.6691
 21
71.7684
 31
0.0
  0
LINE
  8
0
 62
     0
 10
47.6691
 20
71.7684
 30
0.0
 11
33.6696
 21
71.7684
 31
0.0
  0
LINE
  8
0
 62
     0
 10
33.6696
 20
71.7684
 30
0.0
 11
33.6696
 21
85.7677
 31
0.0
  0
LINE
  8
0
 62
     0
 10
52.7195
 20
85.7677
 30
0.0
 11
66.7191
 21
85.7677
 31
0.0
  0
LINE
  8
0
 62
     0
 10
66.7191
 20
85.7677
 30
0.0
 11
66.7191
 21
71.7684
 31
0.0
  0
LINE
  8
0
 62
     0
 10
66.7191
 20
71.7684
 30
0.0
 11
52.7195
 21
71.7684
 31
0.0
  0
LINE
  8
0
 62
     0
 10
52.7195
 20
71.7684
 30
0.0
 11
52.7195
 21
85.7677
 31
0.0
  0
LINE
  8
0
 62
     0
 10
71.7695
 20
85.7677
 30
0.0
 11
85.7691
 21
85.7677
 31
0.0
  0
LINE
  8
0
 62
     0
 10
85.7691
 20
85.7677
 30
0.0
 11
85.7691
 21
71.7684
 31
0.0
  0
LINE
  8
0
 62
     0
 10
85.7691
 20
71.7684
 30
0.0
 11
71.7695
 21
71.7684
 31
0.0
  0
LINE
  8
0
 62
     0
 10
71.7695
 20
71.7684
 30
0.0
 11
71.7695
 21
85.7677
 31
0.0
  0
LINE
  8
0
 62
     0
 10
90.8195
 20
85.7677
 30
0.0
 11
104.819
 21
85.7677
 31
0.0
  0
LINE
  8
0
 62
     0
 10
104.819
 20
85.7677
 30
0.0
 11
104.819
 21
71.7684
 31
0.0
  0
LINE
  8
0
 62
     0
 10
104.819
 20
71.7684
 30
0.0
 11
90.8195
 21
71.7684
 31
0.0
  0
LINE
  8
0
 62
     0
 10
90.8195
 20
71.7684
 30
0.0
 11
90.8195
 21
85.7677
 31
0.0
  0
LINE
  8
0
 62
     0
 10
109.868
 20
85.7677
 30
0.0
 11
123.869
 21
85.7677
 31
0.0
  0
LINE
  8
0
 62
     0
 10
123.869
 20
85.7677
 30
0.0
 11
123.869
 21
71.7684
 31
0.0
  0
LINE
  8
0
 62
     0
 10
123.869
 20
71.7684
 30
0.0
 11
109.868
 21
71.7684
 31
0.0
  0
LINE
  8
0
 62
     0
 10
109.868
 20
71.7684
 30
0.0
 11
109.868
 21
85.7677
 31
0.0
  0
LINE
  8
0
 62
     0
 10
128.919
 20
85.7677
 30
0.0
 11
142.919
 21
85.7677
 31
0.0
  0
LINE
  8
0
 62
     0
 10
142.919
 20
85.7677
 30
0.0
 11
142.919
 21
71.7684
 31
0.0
  0
LINE
  8
0
 62
     0
 10
142.919
 20
71.7684
 30
0.0
 11
128.919
 21
71.7684
 31
0.0
  0
LINE
  8
0
 62
     0
 10
128.919
 20
71.7684
 30
0.0
 11
128.919
 21
85.7677
 31
0.0
  0
LINE
  8
0
 62
     0
 10
147.969
 20
85.7677
 30
0.0
 11
161.969
 21
85.7677
 31
0.0
  0
LINE
  8
0
 62
     0
 10
161.969
 20
85.7677
 30
0.0
 11
161.969
 21
71.7684
 31
0.0
  0
LINE
  8
0
 62
     0
 10
161.969
 20
71.7684
 30
0.0
 11
147.969
 21
71.7684
 31
0.0
  0
LINE
  8
0
 62
     0
 10
147.969
 20
71.7684
 30
0.0
 11
147.969
 21
85.7677
 31
0.0
  0
LINE
  8
0
 62
     0
 10
167.019
 20
85.7677
 30
0.0
 11
181.019
 21
85.7677
 31
0.0
  0
LINE
  8
0
 62
     0
 10
181.019
 20
85.7677
 30
0.0
 11
181.019
 21
71.7684
 31
0.0
  0
LINE
  8
0
 62
     0
 10
181.019
 20
71.7684
 30
0.0
 11
167.019
 21
71.7684
 31
0.0
  0
LINE
  8
0
 62
     0
 10
167.019
 20
71.7684
 30
0.0
 11
167.019
 21
85.7677
 31
0.0
  0
LINE
  8
0
 62
     0
 10
186.069
 20
85.7677
 30
0.0
 11
200.069
 21
85.7677
 31
0.0
  0
LINE
  8
0
 62
     0
 10
200.069
 20
85.7677
 30
0.0
 11
200.069
 21
71.7684
 31
0.0
  0
LINE
  8
0
 62
     0
 10
200.069
 20
71.7684
 30
0.0
 11
186.069
 21
71.7684
 31
0.0
  0
LINE
  8
0
 62
     0
 10
186.069
 20
71.7684
 30
0.0
 11
186.069
 21
85.7677
 31
0.0
  0
LINE
  8
0
 62
     0
 10
205.119
 20
85.7677
 30
0.0
 11
219.119
 21
85.7677
 31
0.0
  0
LINE
  8
0
 62
     0
 10
219.119
 20
85.7677
 30
0.0
 11
219.119
 21
71.7684
 31
0.0
  0
LINE
  8
0
 62
     0
 10
219.119
 20
71.7684
 30
0.0
 11
205.119
 21
71.7684
 31
0.0
  0
LINE
  8
0
 62
     0
 10
205.119
 20
71.7684
 30
0.0
 11
205.119
 21
85.7677
 31
0.0
  0
LINE
  8
0
 62
     0
 10
224.169
 20
85.7677
 30
0.0
 11
238.169
 21
85.7677
 31
0.0
  0
LINE
  8
0
 62
     0
 10
238.169
 20
85.7677
 30
0.0
 11
238.169
 21
71.7684
 31
0.0
  0
LINE
  8
0
 62
     0
 10
238.169
 20
71.7684
 30
0.0
 11
224.169
 21
71.7684
 31
0.0
  0
LINE
  8
0
 62
     0
 10
224.169
 20
71.7684
 30
0.0
 11
224.169
 21
85.7677
 31
0.0
  0
LINE
  8
0
 62
     0
 10
243.219
 20
85.7677
 30
0.0
 11
257.219
 21
85.7677
 31
0.0
  0
LINE
  8
0
 62
     0
 10
257.219
 20
85.7677
 30
0.0
 11
257.219
 21
71.7684
 31
0.0
  0
LINE
  8
0
 62
     0
 10
257.219
 20
71.7684
 30
0.0
 11
243.219
 21
71.7684
 31
0.0
  0
LINE
  8
0
 62
     0
 10
243.219
 20
71.7684
 30
0.0
 11
243.219
 21
85.7677
 31
0.0
  0
LINE
  8
0
 62
     0
 10
262.269
 20
85.7677
 30
0.0
 11
276.269
 21
85.7677
 31
0.0
  0
LINE
  8
0
 62
     0
 10
276.269
 20
85.7677
 30
0.0
 11
276.269
 21
71.7684
 31
0.0
  0
LINE
  8
0
 62
     0
 10
276.269
 20
71.7684
 30
0.0
 11
262.269
 21
71.7684
 31
0.0
  0
LINE
  8
0
 62
     0
 10
262.269
 20
71.7684
 30
0.0
 11
262.269
 21
85.7677
 31
0.0
  0
LINE
  8
0
 62
     0
 10
14.6196
 20
104.818
 30
0.0
 11
28.6191
 21
104.818
 31
0.0
  0
LINE
  8
0
 62
     0
 10
28.6191
 20
104.818
 30
0.0
 11
28.6191
 21
90.8184
 31
0.0
  0
LINE
  8
0
 62
     0
 10
28.6191
 20
90.8184
 30
0.0
 11
14.6196
 21
90.8184
 31
0.0
  0
LINE
  8
0
 62
     0
 10
14.6196
 20
90.8184
 30
0.0
 11
14.6196
 21
104.818
 31
0.0
  0
LINE
  8
0
 62
     0
 10
33.6696
 20
104.818
 30
0.0
 11
47.6691
 21
104.818
 31
0.0
  0
LINE
  8
0
 62
     0
 10
47.6691
 20
104.818
 30
0.0
 11
47.6691
 21
90.8184
 31
0.0
  0
LINE
  8
0
 62
     0
 10
47.6691
 20
90.8184
 30
0.0
 11
33.6696
 21
90.8184
 31
0.0
  0
LINE
  8
0
 62
     0
 10
33.6696
 20
90.8184
 30
0.0
 11
33.6696
 21
104.818
 31
0.0
  0
LINE
  8
0
 62
     0
 10
52.7195
 20
104.818
 30
0.0
 11
66.7191
 21
104.818
 31
0.0
  0
LINE
  8
0
 62
     0
 10
66.7191
 20
104.818
 30
0.0
 11
66.7191
 21
90.8184
 31
0.0
  0
LINE
  8
0
 62
     0
 10
66.7191
 20
90.8184
 30
0.0
 11
52.7195
 21
90.8184
 31
0.0
  0
LINE
  8
0
 62
     0
 10
52.7195
 20
90.8184
 30
0.0
 11
52.7195
 21
104.818
 31
0.0
  0
LINE
  8
0
 62
     0
 10
71.7695
 20
104.818
 30
0.0
 11
85.7691
 21
104.818
 31
0.0
  0
LINE
  8
0
 62
     0
 10
85.7691
 20
104.818
 30
0.0
 11
85.7691
 21
90.8184
 31
0.0
  0
LINE
  8
0
 62
     0
 10
85.7691
 20
90.8184
 30
0.0
 11
71.7695
 21
90.8184
 31
0.0
  0
LINE
  8
0
 62
     0
 10
71.7695
 20
90.8184
 30
0.0
 11
71.7695
 21
104.818
 31
0.0
  0
LINE
  8
0
 62
     0
 10
90.8195
 20
104.818
 30
0.0
 11
104.819
 21
104.818
 31
0.0
  0
LINE
  8
0
 62
     0
 10
104.819
 20
104.818
 30
0.0
 11
104.819
 21
90.8184
 31
0.0
  0
LINE
  8
0
 62
     0
 10
104.819
 20
90.8184
 30
0.0
 11
90.8195
 21
90.8184
 31
0.0
  0
LINE
  8
0
 62
     0
 10
90.8195
 20
90.8184
 30
0.0
 11
90.8195
 21
104.818
 31
0.0
  0
LINE
  8
0
 62
     0
 10
109.868
 20
104.818
 30
0.0
 11
123.869
 21
104.818
 31
0.0
  0
LINE
  8
0
 62
     0
 10
123.869
 20
104.818
 30
0.0
 11
123.869
 21
90.8184
 31
0.0
  0
LINE
  8
0
 62
     0
 10
123.869
 20
90.8184
 30
0.0
 11
109.868
 21
90.8184
 31
0.0
  0
LINE
  8
0
 62
     0
 10
109.868
 20
90.8184
 30
0.0
 11
109.868
 21
104.818
 31
0.0
  0
LINE
  8
0
 62
     0
 10
128.919
 20
104.818
 30
0.0
 11
142.919
 21
104.818
 31
0.0
  0
LINE
  8
0
 62
     0
 10
142.919
 20
104.818
 30
0.0
 11
142.919
 21
90.8184
 31
0.0
  0
LINE
  8
0
 62
     0
 10
142.919
 20
90.8184
 30
0.0
 11
128.919
 21
90.8184
 31
0.0
  0
LINE
  8
0
 62
     0
 10
128.919
 20
90.8184
 30
0.0
 11
128.919
 21
104.818
 31
0.0
  0
LINE
  8
0
 62
     0
 10
147.969
 20
104.818
 30
0.0
 11
161.969
 21
104.818
 31
0.0
  0
LINE
  8
0
 62
     0
 10
161.969
 20
104.818
 30
0.0
 11
161.969
 21
90.8184
 31
0.0
  0
LINE
  8
0
 62
     0
 10
161.969
 20
90.8184
 30
0.0
 11
147.969
 21
90.8184
 31
0.0
  0
LINE
  8
0
 62
     0
 10
147.969
 20
90.8184
 30
0.0
 11
147.969
 21
104.818
 31
0.0
  0
LINE
  8
0
 62
     0
 10
167.019
 20
104.818
 30
0.0
 11
181.019
 21
104.818
 31
0.0
  0
LINE
  8
0
 62
     0
 10
181.019
 20
104.818
 30
0.0
 11
181.019
 21
90.8184
 31
0.0
  0
LINE
  8
0
 62
     0
 10
181.019
 20
90.8184
 30
0.0
 11
167.019
 21
90.8184
 31
0.0
  0
LINE
  8
0
 62
     0
 10
167.019
 20
90.8184
 30
0.0
 11
167.019
 21
104.818
 31
0.0
  0
LINE
  8
0
 62
     0
 10
186.069
 20
104.818
 30
0.0
 11
200.069
 21
104.818
 31
0.0
  0
LINE
  8
0
 62
     0
 10
200.069
 20
104.818
 30
0.0
 11
200.069
 21
90.8184
 31
0.0
  0
LINE
  8
0
 62
     0
 10
200.069
 20
90.8184
 30
0.0
 11
186.069
 21
90.8184
 31
0.0
  0
LINE
  8
0
 62
     0
 10
186.069
 20
90.8184
 30
0.0
 11
186.069
 21
104.818
 31
0.0
  0
LINE
  8
0
 62
     0
 10
205.119
 20
104.818
 30
0.0
 11
219.119
 21
104.818
 31
0.0
  0
LINE
  8
0
 62
     0
 10
219.119
 20
104.818
 30
0.0
 11
219.119
 21
90.8184
 31
0.0
  0
LINE
  8
0
 62
     0
 10
219.119
 20
90.8184
 30
0.0
 11
205.119
 21
90.8184
 31
0.0
  0
LINE
  8
0
 62
     0
 10
205.119
 20
90.8184
 30
0.0
 11
205.119
 21
104.818
 31
0.0
  0
LINE
  8
0
 62
     0
 10
224.169
 20
104.818
 30
0.0
 11
238.169
 21
104.818
 31
0.0
  0
LINE
  8
0
 62
     0
 10
238.169
 20
104.818
 30
0.0
 11
238.169
 21
90.8184
 31
0.0
  0
LINE
  8
0
 62
     0
 10
238.169
 20
90.8184
 30
0.0
 11
224.169
 21
90.8184
 31
0.0
  0
LINE
  8
0
 62
     0
 10
224.169
 20
90.8184
 30
0.0
 11
224.169
 21
104.818
 31
0.0
  0
LINE
  8
0
 62
     0
 10
243.219
 20
104.818
 30
0.0
 11
257.219
 21
104.818
 31
0.0
  0
LINE
  8
0
 62
     0
 10
257.219
 20
104.818
 30
0.0
 11
257.219
 21
90.8184
 31
0.0
  0
LINE
  8
0
 62
     0
 10
257.219
 20
90.8184
 30
0.0
 11
243.219
 21
90.8184
 31
0.0
  0
LINE
  8
0
 62
     0
 10
243.219
 20
90.8184
 30
0.0
 11
243.219
 21
104.818
 31
0.0
  0
LINE
  8
0
 62
     0
 10
262.269
 20
104.818
 30
0.0
 11
276.269
 21
104.818
 31
0.0
  0
LINE
  8
0
 62
     0
 10
276.269
 20
104.818
 30
0.0
 11
276.269
 21
90.8184
 31
0.0
  0
LINE
  8
0
 62
     0
 10
276.269
 20
90.8184
 30
0.0
 11
262.269
 21
90.8184
 31
0.0
  0
LINE
  8
0
 62
     0
 10
262.269
 20
90.8184
 30
0.0
 11
262.269
 21
104.818
 31
0.0
  0
LINE
  8
0
 62
     0
 10
98.0186
 20
116.294
 30
0.0
 11
97.7403
 21
116.153
 31
0.0
  0
LINE
  8
0
 62
     0
 10
97.7403
 20
116.153
 30
0.0
 11
97.5184
 21
115.93
 31
0.0
  0
LINE
  8
0
 62
     0
 10
97.5184
 20
115.93
 30
0.0
 11
97.3762
 21
115.653
 31
0.0
  0
LINE
  8
0
 62
     0
 10
97.3762
 20
115.653
 30
0.0
 11
97.3282
 21
115.343
 31
0.0
  0
LINE
  8
0
 62
     0
 10
97.3282
 20
115.343
 30
0.0
 11
97.3762
 21
115.033
 31
0.0
  0
LINE
  8
0
 62
     0
 10
97.3762
 20
115.033
 30
0.0
 11
97.5184
 21
114.756
 31
0.0
  0
LINE
  8
0
 62
     0
 10
97.5184
 20
114.756
 30
0.0
 11
97.7403
 21
114.533
 31
0.0
  0
LINE
  8
0
 62
     0
 10
97.7403
 20
114.533
 30
0.0
 11
98.0186
 21
114.391
 31
0.0
  0
LINE
  8
0
 62
     0
 10
98.0186
 20
114.391
 30
0.0
 11
98.3273
 21
114.343
 31
0.0
  0
LINE
  8
0
 62
     0
 10
98.3273
 20
114.343
 30
0.0
 11
98.6374
 21
114.391
 31
0.0
  0
LINE
  8
0
 62
     0
 10
98.6374
 20
114.391
 30
0.0
 11
98.9157
 21
114.533
 31
0.0
  0
LINE
  8
0
 62
     0
 10
98.9157
 20
114.533
 30
0.0
 11
99.1362
 21
114.756
 31
0.0
  0
LINE
  8
0
 62
     0
 10
99.1362
 20
114.756
 30
0.0
 11
99.2794
 21
115.033
 31
0.0
  0
LINE
  8
0
 62
     0
 10
99.2794
 20
115.033
 30
0.0
 11
99.3278
 21
115.343
 31
0.0
  0
LINE
  8
0
 62
     0
 10
99.3278
 20
115.343
 30
0.0
 11
99.2794
 21
115.653
 31
0.0
  0
LINE
  8
0
 62
     0
 10
99.2794
 20
115.653
 30
0.0
 11
99.1362
 21
115.93
 31
0.0
  0
LINE
  8
0
 62
     0
 10
99.1362
 20
115.93
 30
0.0
 11
98.9157
 21
116.153
 31
0.0
  0
LINE
  8
0
 62
     0
 10
98.9157
 20
116.153
 30
0.0
 11
98.6374
 21
116.294
 31
0.0
  0
LINE
  8
0
 62
     0
 10
98.6374
 20
116.294
 30
0.0
 11
98.3273
 21
116.342
 31
0.0
  0
LINE
  8
0
 62
     0
 10
98.3273
 20
116.342
 30
0.0
 11
98.0186
 21
116.294
 31
0.0
  0
LINE
  8
0
 62
     0
 10
192.253
 20
116.294
 30
0.0
 11
191.973
 21
116.153
 31
0.0
  0
LINE
  8
0
 62
     0
 10
191.973
 20
116.153
 30
0.0
 11
191.753
 21
115.93
 31
0.0
  0
LINE
  8
0
 62
     0
 10
191.753
 20
115.93
 30
0.0
 11
191.611
 21
115.653
 31
0.0
  0
LINE
  8
0
 62
     0
 10
191.611
 20
115.653
 30
0.0
 11
191.561
 21
115.343
 31
0.0
  0
LINE
  8
0
 62
     0
 10
191.561
 20
115.343
 30
0.0
 11
191.611
 21
115.033
 31
0.0
  0
LINE
  8
0
 62
     0
 10
191.611
 20
115.033
 30
0.0
 11
191.753
 21
114.756
 31
0.0
  0
LINE
  8
0
 62
     0
 10
191.753
 20
114.756
 30
0.0
 11
191.973
 21
114.533
 31
0.0
  0
LINE
  8
0
 62
     0
 10
191.973
 20
114.533
 30
0.0
 11
192.253
 21
114.391
 31
0.0
  0
LINE
  8
0
 62
     0
 10
192.253
 20
114.391
 30
0.0
 11
192.562
 21
114.343
 31
0.0
  0
LINE
  8
0
 62
     0
 10
192.562
 20
114.343
 30
0.0
 11
192.87
 21
114.391
 31
0.0
  0
LINE
  8
0
 62
     0
 10
192.87
 20
114.391
 30
0.0
 11
193.15
 21
114.533
 31
0.0
  0
LINE
  8
0
 62
     0
 10
193.15
 20
114.533
 30
0.0
 11
193.371
 21
114.756
 31
0.0
  0
LINE
  8
0
 62
     0
 10
193.371
 20
114.756
 30
0.0
 11
193.512
 21
115.033
 31
0.0
  0
LINE
  8
0
 62
     0
 10
193.512
 20
115.033
 30
0.0
 11
193.562
 21
115.343
 31
0.0
  0
LINE
  8
0
 62
     0
 10
193.562
 20
115.343
 30
0.0
 11
193.512
 21
115.653
 31
0.0
  0
LINE
  8
0
 62
     0
 10
193.512
 20
115.653
 30
0.0
 11
193.371
 21
115.93
 31
0.0
  0
LINE
  8
0
 62
     0
 10
193.371
 20
115.93
 30
0.0
 11
193.15
 21
116.153
 31
0.0
  0
LINE
  8
0
 62
     0
 10
193.15
 20
116.153
 30
0.0
 11
192.87
 21
116.294
 31
0.0
  0
LINE
  8
0
 62
     0
 10
192.87
 20
116.294
 30
0.0
 11
192.562
 21
116.342
 31
0.0
  0
LINE
  8
0
 62
     0
 10
192.562
 20
116.342
 30
0.0
 11
192.253
 21
116.294
 31
0.0
  0
LINE
  8
0
 62
     0
 10
286.486
 20
116.294
 30
0.0
 11
286.208
 21
116.153
 31
0.0
  0
LINE
  8
0
 62
     0
 10
286.208
 20
116.153
 30
0.0
 11
285.986
 21
115.93
 31
0.0
  0
LINE
  8
0
 62
     0
 10
285.986
 20
115.93
 30
0.0
 11
285.844
 21
115.653
 31
0.0
  0
LINE
  8
0
 62
     0
 10
285.844
 20
115.653
 30
0.0
 11
285.796
 21
115.343
 31
0.0
  0
LINE
  8
0
 62
     0
 10
285.796
 20
115.343
 30
0.0
 11
285.844
 21
115.033
 31
0.0
  0
LINE
  8
0
 62
     0
 10
285.844
 20
115.033
 30
0.0
 11
285.986
 21
114.756
 31
0.0
  0
LINE
  8
0
 62
     0
 10
285.986
 20
114.756
 30
0.0
 11
286.208
 21
114.533
 31
0.0
  0
LINE
  8
0
 62
     0
 10
286.208
 20
114.533
 30
0.0
 11
286.486
 21
114.391
 31
0.0
  0
LINE
  8
0
 62
     0
 10
286.486
 20
114.391
 30
0.0
 11
286.796
 21
114.343
 31
0.0
  0
LINE
  8
0
 62
     0
 10
286.796
 20
114.343
 30
0.0
 11
287.105
 21
114.391
 31
0.0
  0
LINE
  8
0
 62
     0
 10
287.105
 20
114.391
 30
0.0
 11
287.383
 21
114.533
 31
0.0
  0
LINE
  8
0
 62
     0
 10
287.383
 20
114.533
 30
0.0
 11
287.605
 21
114.756
 31
0.0
  0
LINE
  8
0
 62
     0
 10
287.605
 20
114.756
 30
0.0
 11
287.747
 21
115.033
 31
0.0
  0
LINE
  8
0
 62
     0
 10
287.747
 20
115.033
 30
0.0
 11
287.796
 21
115.343
 31
0.0
  0
LINE
  8
0
 62
     0
 10
287.796
 20
115.343
 30
0.0
 11
287.747
 21
115.653
 31
0.0
  0
LINE
  8
0
 62
     0
 10
287.747
 20
115.653
 30
0.0
 11
287.605
 21
115.93
 31
0.0
  0
LINE
  8
0
 62
     0
 10
287.605
 20
115.93
 30
0.0
 11
287.383
 21
116.153
 31
0.0
  0
LINE
  8
0
 62
     0
 10
287.383
 20
116.153
 30
0.0
 11
287.105
 21
116.294
 31
0.0
  0
LINE
  8
0
 62
     0
 10
287.105
 20
116.294
 30
0.0
 11
286.796
 21
116.342
 31
0.0
  0
LINE
  8
0
 62
     0
 10
286.796
 20
116.342
 30
0.0
 11
286.486
 21
116.294
 31
0.0
  0
LINE
  8
0
 62
     0
 10
3.78411
 20
116.294
 30
0.0
 11
3.50711
 21
116.153
 31
0.0
  0
LINE
  8
0
 62
     0
 10
3.50711
 20
116.153
 30
0.0
 11
3.28386
 21
115.93
 31
0.0
  0
LINE
  8
0
 62
     0
 10
3.28386
 20
115.93
 30
0.0
 11
3.14331
 21
115.653
 31
0.0
  0
LINE
  8
0
 62
     0
 10
3.14331
 20
115.653
 30
0.0
 11
3.0937
 21
115.343
 31
0.0
  0
LINE
  8
0
 62
     0
 10
3.0937
 20
115.343
 30
0.0
 11
3.14331
 21
115.033
 31
0.0
  0
LINE
  8
0
 62
     0
 10
3.14331
 20
115.033
 30
0.0
 11
3.28386
 21
114.756
 31
0.0
  0
LINE
  8
0
 62
     0
 10
3.28386
 20
114.756
 30
0.0
 11
3.50711
 21
114.533
 31
0.0
  0
LINE
  8
0
 62
     0
 10
3.50711
 20
114.533
 30
0.0
 11
3.78411
 21
114.391
 31
0.0
  0
LINE
  8
0
 62
     0
 10
3.78411
 20
114.391
 30
0.0
 11
4.09416
 21
114.343
 31
0.0
  0
LINE
  8
0
 62
     0
 10
4.09416
 20
114.343
 30
0.0
 11
4.40422
 21
114.391
 31
0.0
  0
LINE
  8
0
 62
     0
 10
4.40422
 20
114.391
 30
0.0
 11
4.68118
 21
114.533
 31
0.0
  0
LINE
  8
0
 62
     0
 10
4.68118
 20
114.533
 30
0.0
 11
4.90442
 21
114.756
 31
0.0
  0
LINE
  8
0
 62
     0
 10
4.90442
 20
114.756
 30
0.0
 11
5.04638
 21
115.033
 31
0.0
  0
LINE
  8
0
 62
     0
 10
5.04638
 20
115.033
 30
0.0
 11
5.0946
 21
115.343
 31
0.0
  0
LINE
  8
0
 62
     0
 10
5.0946
 20
115.343
 30
0.0
 11
5.04638
 21
115.653
 31
0.0
  0
LINE
  8
0
 62
     0
 10
5.04638
 20
115.653
 30
0.0
 11
4.90442
 21
115.93
 31
0.0
  0
LINE
  8
0
 62
     0
 10
4.90442
 20
115.93
 30
0.0
 11
4.68118
 21
116.153
 31
0.0
  0
LINE
  8
0
 62
     0
 10
4.68118
 20
116.153
 30
0.0
 11
4.40422
 21
116.294
 31
0.0
  0
LINE
  8
0
 62
     0
 10
4.40422
 20
116.294
 30
0.0
 11
4.09416
 21
116.342
 31
0.0
  0
LINE
  8
0
 62
     0
 10
4.09416
 20
116.342
 30
0.0
 11
3.78411
 21
116.294
 31
0.0
  0
ENDSEC
  0
EOF
