G04 #@! TF.GenerationSoftware,KiCad,Pcbnew,5.0.2-bee76a0~70~ubuntu18.04.1*
G04 #@! TF.CreationDate,2019-02-20T11:48:03+01:00*
G04 #@! TF.ProjectId,kai1,6b616931-2e6b-4696-9361-645f70636258,A*
G04 #@! TF.SameCoordinates,Original*
G04 #@! TF.FileFunction,Legend,Top*
G04 #@! TF.FilePolarity,Positive*
%FSLAX46Y46*%
G04 Gerber Fmt 4.6, Leading zero omitted, Abs format (unit mm)*
G04 Created by KiCad (PCBNEW 5.0.2-bee76a0~70~ubuntu18.04.1) date Mi 20 Feb 2019 11:48:03 CET*
%MOMM*%
%LPD*%
G01*
G04 APERTURE LIST*
%ADD10C,0.120000*%
%ADD11C,0.150000*%
G04 APERTURE END LIST*
D10*
G04 #@! TO.C,SW59*
X116175000Y-174395000D02*
X116175000Y-160425000D01*
X130145000Y-174395000D02*
X116175000Y-174395000D01*
X130145000Y-160425000D02*
X130145000Y-174395000D01*
X116175000Y-160425000D02*
X130145000Y-160425000D01*
G04 #@! TO.C,SW60*
X139925000Y-160475000D02*
X153895000Y-160475000D01*
X153895000Y-160475000D02*
X153895000Y-174445000D01*
X153895000Y-174445000D02*
X139925000Y-174445000D01*
X139925000Y-174445000D02*
X139925000Y-160475000D01*
G04 #@! TO.C,SW63*
X220925000Y-174445000D02*
X220925000Y-160475000D01*
X234895000Y-174445000D02*
X220925000Y-174445000D01*
X234895000Y-160475000D02*
X234895000Y-174445000D01*
X220925000Y-160475000D02*
X234895000Y-160475000D01*
G04 #@! TO.C,SW64*
X244675000Y-160475000D02*
X258645000Y-160475000D01*
X258645000Y-160475000D02*
X258645000Y-174445000D01*
X258645000Y-174445000D02*
X244675000Y-174445000D01*
X244675000Y-174445000D02*
X244675000Y-160475000D01*
G04 #@! TO.C,SW62*
X194675000Y-174445000D02*
X194675000Y-160475000D01*
X208645000Y-174445000D02*
X194675000Y-174445000D01*
X208645000Y-160475000D02*
X208645000Y-174445000D01*
X194675000Y-160475000D02*
X208645000Y-160475000D01*
G04 #@! TO.C,SW61*
X166175000Y-160475000D02*
X180145000Y-160475000D01*
X180145000Y-160475000D02*
X180145000Y-174445000D01*
X180145000Y-174445000D02*
X166175000Y-174445000D01*
X166175000Y-174445000D02*
X166175000Y-160475000D01*
G04 #@! TO.C,SW67*
X304275000Y-174395000D02*
X304275000Y-160425000D01*
X318245000Y-174395000D02*
X304275000Y-174395000D01*
X318245000Y-160425000D02*
X318245000Y-174395000D01*
X304275000Y-160425000D02*
X318245000Y-160425000D01*
G04 #@! TO.C,SW66*
X285225000Y-160425000D02*
X299195000Y-160425000D01*
X299195000Y-160425000D02*
X299195000Y-174395000D01*
X299195000Y-174395000D02*
X285225000Y-174395000D01*
X285225000Y-174395000D02*
X285225000Y-160425000D01*
G04 #@! TO.C,SW65*
X266175000Y-174445000D02*
X266175000Y-160475000D01*
X280145000Y-174445000D02*
X266175000Y-174445000D01*
X280145000Y-160475000D02*
X280145000Y-174445000D01*
X266175000Y-160475000D02*
X280145000Y-160475000D01*
G04 #@! TO.C,SW52*
X247125000Y-155345000D02*
X247125000Y-141375000D01*
X261095000Y-155345000D02*
X247125000Y-155345000D01*
X261095000Y-141375000D02*
X261095000Y-155345000D01*
X247125000Y-141375000D02*
X261095000Y-141375000D01*
G04 #@! TO.C,SW68*
X323325000Y-174395000D02*
X323325000Y-160425000D01*
X337295000Y-174395000D02*
X323325000Y-174395000D01*
X337295000Y-160425000D02*
X337295000Y-174395000D01*
X323325000Y-160425000D02*
X337295000Y-160425000D01*
G04 #@! TO.C,SW58*
X94725000Y-160425000D02*
X108695000Y-160425000D01*
X108695000Y-160425000D02*
X108695000Y-174395000D01*
X108695000Y-174395000D02*
X94725000Y-174395000D01*
X94725000Y-174395000D02*
X94725000Y-160425000D01*
G04 #@! TO.C,SW57*
X75675000Y-174395000D02*
X75675000Y-160425000D01*
X89645000Y-174395000D02*
X75675000Y-174395000D01*
X89645000Y-160425000D02*
X89645000Y-174395000D01*
X75675000Y-160425000D02*
X89645000Y-160425000D01*
G04 #@! TO.C,SW56*
X323325000Y-141375000D02*
X337295000Y-141375000D01*
X337295000Y-141375000D02*
X337295000Y-155345000D01*
X337295000Y-155345000D02*
X323325000Y-155345000D01*
X323325000Y-155345000D02*
X323325000Y-141375000D01*
G04 #@! TO.C,SW55*
X304275000Y-155345000D02*
X304275000Y-141375000D01*
X318245000Y-155345000D02*
X304275000Y-155345000D01*
X318245000Y-141375000D02*
X318245000Y-155345000D01*
X304275000Y-141375000D02*
X318245000Y-141375000D01*
G04 #@! TO.C,SW54*
X285225000Y-141375000D02*
X299195000Y-141375000D01*
X299195000Y-141375000D02*
X299195000Y-155345000D01*
X299195000Y-155345000D02*
X285225000Y-155345000D01*
X285225000Y-155345000D02*
X285225000Y-141375000D01*
G04 #@! TO.C,SW53*
X266175000Y-155345000D02*
X266175000Y-141375000D01*
X280145000Y-155345000D02*
X266175000Y-155345000D01*
X280145000Y-141375000D02*
X280145000Y-155345000D01*
X266175000Y-141375000D02*
X280145000Y-141375000D01*
G04 #@! TO.C,SW42*
X323325000Y-136295000D02*
X323325000Y-122325000D01*
X337295000Y-136295000D02*
X323325000Y-136295000D01*
X337295000Y-122325000D02*
X337295000Y-136295000D01*
X323325000Y-122325000D02*
X337295000Y-122325000D01*
G04 #@! TO.C,SW50*
X209025000Y-141375000D02*
X222995000Y-141375000D01*
X222995000Y-141375000D02*
X222995000Y-155345000D01*
X222995000Y-155345000D02*
X209025000Y-155345000D01*
X209025000Y-155345000D02*
X209025000Y-141375000D01*
G04 #@! TO.C,SW49*
X189975000Y-155345000D02*
X189975000Y-141375000D01*
X203945000Y-155345000D02*
X189975000Y-155345000D01*
X203945000Y-141375000D02*
X203945000Y-155345000D01*
X189975000Y-141375000D02*
X203945000Y-141375000D01*
G04 #@! TO.C,SW48*
X170925000Y-141375000D02*
X184895000Y-141375000D01*
X184895000Y-141375000D02*
X184895000Y-155345000D01*
X184895000Y-155345000D02*
X170925000Y-155345000D01*
X170925000Y-155345000D02*
X170925000Y-141375000D01*
G04 #@! TO.C,SW47*
X151875000Y-155345000D02*
X151875000Y-141375000D01*
X165845000Y-155345000D02*
X151875000Y-155345000D01*
X165845000Y-141375000D02*
X165845000Y-155345000D01*
X151875000Y-141375000D02*
X165845000Y-141375000D01*
G04 #@! TO.C,SW46*
X132825000Y-141375000D02*
X146795000Y-141375000D01*
X146795000Y-141375000D02*
X146795000Y-155345000D01*
X146795000Y-155345000D02*
X132825000Y-155345000D01*
X132825000Y-155345000D02*
X132825000Y-141375000D01*
G04 #@! TO.C,SW45*
X113775000Y-155345000D02*
X113775000Y-141375000D01*
X127745000Y-155345000D02*
X113775000Y-155345000D01*
X127745000Y-141375000D02*
X127745000Y-155345000D01*
X113775000Y-141375000D02*
X127745000Y-141375000D01*
G04 #@! TO.C,SW35*
X189975000Y-122325000D02*
X203945000Y-122325000D01*
X203945000Y-122325000D02*
X203945000Y-136295000D01*
X203945000Y-136295000D02*
X189975000Y-136295000D01*
X189975000Y-136295000D02*
X189975000Y-122325000D01*
G04 #@! TO.C,SW43*
X75675000Y-155345000D02*
X75675000Y-141375000D01*
X89645000Y-155345000D02*
X75675000Y-155345000D01*
X89645000Y-141375000D02*
X89645000Y-155345000D01*
X75675000Y-141375000D02*
X89645000Y-141375000D01*
G04 #@! TO.C,SW51*
X228075000Y-141375000D02*
X242045000Y-141375000D01*
X242045000Y-141375000D02*
X242045000Y-155345000D01*
X242045000Y-155345000D02*
X228075000Y-155345000D01*
X228075000Y-155345000D02*
X228075000Y-141375000D01*
G04 #@! TO.C,SW41*
X304275000Y-136295000D02*
X304275000Y-122325000D01*
X318245000Y-136295000D02*
X304275000Y-136295000D01*
X318245000Y-122325000D02*
X318245000Y-136295000D01*
X304275000Y-122325000D02*
X318245000Y-122325000D01*
G04 #@! TO.C,SW40*
X285225000Y-122325000D02*
X299195000Y-122325000D01*
X299195000Y-122325000D02*
X299195000Y-136295000D01*
X299195000Y-136295000D02*
X285225000Y-136295000D01*
X285225000Y-136295000D02*
X285225000Y-122325000D01*
G04 #@! TO.C,SW39*
X266175000Y-136295000D02*
X266175000Y-122325000D01*
X280145000Y-136295000D02*
X266175000Y-136295000D01*
X280145000Y-122325000D02*
X280145000Y-136295000D01*
X266175000Y-122325000D02*
X280145000Y-122325000D01*
G04 #@! TO.C,SW38*
X247125000Y-122325000D02*
X261095000Y-122325000D01*
X261095000Y-122325000D02*
X261095000Y-136295000D01*
X261095000Y-136295000D02*
X247125000Y-136295000D01*
X247125000Y-136295000D02*
X247125000Y-122325000D01*
G04 #@! TO.C,SW37*
X228075000Y-136295000D02*
X228075000Y-122325000D01*
X242045000Y-136295000D02*
X228075000Y-136295000D01*
X242045000Y-122325000D02*
X242045000Y-136295000D01*
X228075000Y-122325000D02*
X242045000Y-122325000D01*
G04 #@! TO.C,SW36*
X209025000Y-122325000D02*
X222995000Y-122325000D01*
X222995000Y-122325000D02*
X222995000Y-136295000D01*
X222995000Y-136295000D02*
X209025000Y-136295000D01*
X209025000Y-136295000D02*
X209025000Y-122325000D01*
G04 #@! TO.C,SW44*
X94725000Y-155345000D02*
X94725000Y-141375000D01*
X108695000Y-155345000D02*
X94725000Y-155345000D01*
X108695000Y-141375000D02*
X108695000Y-155345000D01*
X94725000Y-141375000D02*
X108695000Y-141375000D01*
G04 #@! TO.C,SW33*
X151875000Y-122325000D02*
X165845000Y-122325000D01*
X165845000Y-122325000D02*
X165845000Y-136295000D01*
X165845000Y-136295000D02*
X151875000Y-136295000D01*
X151875000Y-136295000D02*
X151875000Y-122325000D01*
G04 #@! TO.C,SW32*
X132825000Y-136295000D02*
X132825000Y-122325000D01*
X146795000Y-136295000D02*
X132825000Y-136295000D01*
X146795000Y-122325000D02*
X146795000Y-136295000D01*
X132825000Y-122325000D02*
X146795000Y-122325000D01*
G04 #@! TO.C,SW31*
X113775000Y-122325000D02*
X127745000Y-122325000D01*
X127745000Y-122325000D02*
X127745000Y-136295000D01*
X127745000Y-136295000D02*
X113775000Y-136295000D01*
X113775000Y-136295000D02*
X113775000Y-122325000D01*
G04 #@! TO.C,SW30*
X94725000Y-136295000D02*
X94725000Y-122325000D01*
X108695000Y-136295000D02*
X94725000Y-136295000D01*
X108695000Y-122325000D02*
X108695000Y-136295000D01*
X94725000Y-122325000D02*
X108695000Y-122325000D01*
G04 #@! TO.C,SW29*
X75675000Y-122325000D02*
X89645000Y-122325000D01*
X89645000Y-122325000D02*
X89645000Y-136295000D01*
X89645000Y-136295000D02*
X75675000Y-136295000D01*
X75675000Y-136295000D02*
X75675000Y-122325000D01*
G04 #@! TO.C,SW28*
X323325000Y-117245000D02*
X323325000Y-103275000D01*
X337295000Y-117245000D02*
X323325000Y-117245000D01*
X337295000Y-103275000D02*
X337295000Y-117245000D01*
X323325000Y-103275000D02*
X337295000Y-103275000D01*
G04 #@! TO.C,SW27*
X304275000Y-103275000D02*
X318245000Y-103275000D01*
X318245000Y-103275000D02*
X318245000Y-117245000D01*
X318245000Y-117245000D02*
X304275000Y-117245000D01*
X304275000Y-117245000D02*
X304275000Y-103275000D01*
G04 #@! TO.C,SW25*
X266175000Y-117245000D02*
X266175000Y-103275000D01*
X280145000Y-117245000D02*
X266175000Y-117245000D01*
X280145000Y-103275000D02*
X280145000Y-117245000D01*
X266175000Y-103275000D02*
X280145000Y-103275000D01*
G04 #@! TO.C,SW34*
X170925000Y-122325000D02*
X184895000Y-122325000D01*
X184895000Y-122325000D02*
X184895000Y-136295000D01*
X184895000Y-136295000D02*
X170925000Y-136295000D01*
X170925000Y-136295000D02*
X170925000Y-122325000D01*
G04 #@! TO.C,SW24*
X247125000Y-117245000D02*
X247125000Y-103275000D01*
X261095000Y-117245000D02*
X247125000Y-117245000D01*
X261095000Y-103275000D02*
X261095000Y-117245000D01*
X247125000Y-103275000D02*
X261095000Y-103275000D01*
G04 #@! TO.C,SW23*
X228075000Y-103275000D02*
X242045000Y-103275000D01*
X242045000Y-103275000D02*
X242045000Y-117245000D01*
X242045000Y-117245000D02*
X228075000Y-117245000D01*
X228075000Y-117245000D02*
X228075000Y-103275000D01*
G04 #@! TO.C,SW22*
X209025000Y-117245000D02*
X209025000Y-103275000D01*
X222995000Y-117245000D02*
X209025000Y-117245000D01*
X222995000Y-103275000D02*
X222995000Y-117245000D01*
X209025000Y-103275000D02*
X222995000Y-103275000D01*
G04 #@! TO.C,SW21*
X189975000Y-103275000D02*
X203945000Y-103275000D01*
X203945000Y-103275000D02*
X203945000Y-117245000D01*
X203945000Y-117245000D02*
X189975000Y-117245000D01*
X189975000Y-117245000D02*
X189975000Y-103275000D01*
G04 #@! TO.C,SW20*
X170925000Y-117245000D02*
X170925000Y-103275000D01*
X184895000Y-117245000D02*
X170925000Y-117245000D01*
X184895000Y-103275000D02*
X184895000Y-117245000D01*
X170925000Y-103275000D02*
X184895000Y-103275000D01*
G04 #@! TO.C,SW19*
X151875000Y-103275000D02*
X165845000Y-103275000D01*
X165845000Y-103275000D02*
X165845000Y-117245000D01*
X165845000Y-117245000D02*
X151875000Y-117245000D01*
X151875000Y-117245000D02*
X151875000Y-103275000D01*
G04 #@! TO.C,SW18*
X132825000Y-117245000D02*
X132825000Y-103275000D01*
X146795000Y-117245000D02*
X132825000Y-117245000D01*
X146795000Y-103275000D02*
X146795000Y-117245000D01*
X132825000Y-103275000D02*
X146795000Y-103275000D01*
G04 #@! TO.C,SW26*
X285225000Y-103275000D02*
X299195000Y-103275000D01*
X299195000Y-103275000D02*
X299195000Y-117245000D01*
X299195000Y-117245000D02*
X285225000Y-117245000D01*
X285225000Y-117245000D02*
X285225000Y-103275000D01*
G04 #@! TO.C,SW8*
X209025000Y-98195000D02*
X209025000Y-84225000D01*
X222995000Y-98195000D02*
X209025000Y-98195000D01*
X222995000Y-84225000D02*
X222995000Y-98195000D01*
X209025000Y-84225000D02*
X222995000Y-84225000D01*
G04 #@! TO.C,SW16*
X94725000Y-103275000D02*
X108695000Y-103275000D01*
X108695000Y-103275000D02*
X108695000Y-117245000D01*
X108695000Y-117245000D02*
X94725000Y-117245000D01*
X94725000Y-117245000D02*
X94725000Y-103275000D01*
G04 #@! TO.C,SW15*
X75675000Y-117245000D02*
X75675000Y-103275000D01*
X89645000Y-117245000D02*
X75675000Y-117245000D01*
X89645000Y-103275000D02*
X89645000Y-117245000D01*
X75675000Y-103275000D02*
X89645000Y-103275000D01*
G04 #@! TO.C,SW14*
X323325000Y-84225000D02*
X337295000Y-84225000D01*
X337295000Y-84225000D02*
X337295000Y-98195000D01*
X337295000Y-98195000D02*
X323325000Y-98195000D01*
X323325000Y-98195000D02*
X323325000Y-84225000D01*
G04 #@! TO.C,SW13*
X304275000Y-98195000D02*
X304275000Y-84225000D01*
X318245000Y-98195000D02*
X304275000Y-98195000D01*
X318245000Y-84225000D02*
X318245000Y-98195000D01*
X304275000Y-84225000D02*
X318245000Y-84225000D01*
G04 #@! TO.C,SW12*
X285225000Y-84225000D02*
X299195000Y-84225000D01*
X299195000Y-84225000D02*
X299195000Y-98195000D01*
X299195000Y-98195000D02*
X285225000Y-98195000D01*
X285225000Y-98195000D02*
X285225000Y-84225000D01*
G04 #@! TO.C,SW11*
X266175000Y-98195000D02*
X266175000Y-84225000D01*
X280145000Y-98195000D02*
X266175000Y-98195000D01*
X280145000Y-84225000D02*
X280145000Y-98195000D01*
X266175000Y-84225000D02*
X280145000Y-84225000D01*
G04 #@! TO.C,SW10*
X247125000Y-84225000D02*
X261095000Y-84225000D01*
X261095000Y-84225000D02*
X261095000Y-98195000D01*
X261095000Y-98195000D02*
X247125000Y-98195000D01*
X247125000Y-98195000D02*
X247125000Y-84225000D01*
G04 #@! TO.C,SW9*
X228075000Y-98195000D02*
X228075000Y-84225000D01*
X242045000Y-98195000D02*
X228075000Y-98195000D01*
X242045000Y-84225000D02*
X242045000Y-98195000D01*
X228075000Y-84225000D02*
X242045000Y-84225000D01*
G04 #@! TO.C,SW17*
X113775000Y-103275000D02*
X127745000Y-103275000D01*
X127745000Y-103275000D02*
X127745000Y-117245000D01*
X127745000Y-117245000D02*
X113775000Y-117245000D01*
X113775000Y-117245000D02*
X113775000Y-103275000D01*
G04 #@! TO.C,SW7*
X189975000Y-98195000D02*
X189975000Y-84225000D01*
X203945000Y-98195000D02*
X189975000Y-98195000D01*
X203945000Y-84225000D02*
X203945000Y-98195000D01*
X189975000Y-84225000D02*
X203945000Y-84225000D01*
G04 #@! TO.C,SW6*
X170925000Y-84225000D02*
X184895000Y-84225000D01*
X184895000Y-84225000D02*
X184895000Y-98195000D01*
X184895000Y-98195000D02*
X170925000Y-98195000D01*
X170925000Y-98195000D02*
X170925000Y-84225000D01*
G04 #@! TO.C,SW5*
X151875000Y-98195000D02*
X151875000Y-84225000D01*
X165845000Y-98195000D02*
X151875000Y-98195000D01*
X165845000Y-84225000D02*
X165845000Y-98195000D01*
X151875000Y-84225000D02*
X165845000Y-84225000D01*
G04 #@! TO.C,SW4*
X132825000Y-84225000D02*
X146795000Y-84225000D01*
X146795000Y-84225000D02*
X146795000Y-98195000D01*
X146795000Y-98195000D02*
X132825000Y-98195000D01*
X132825000Y-98195000D02*
X132825000Y-84225000D01*
G04 #@! TO.C,SW3*
X113775000Y-98195000D02*
X113775000Y-84225000D01*
X127745000Y-98195000D02*
X113775000Y-98195000D01*
X127745000Y-84225000D02*
X127745000Y-98195000D01*
X113775000Y-84225000D02*
X127745000Y-84225000D01*
G04 #@! TO.C,SW2*
X94725000Y-84225000D02*
X108695000Y-84225000D01*
X108695000Y-84225000D02*
X108695000Y-98195000D01*
X108695000Y-98195000D02*
X94725000Y-98195000D01*
X94725000Y-98195000D02*
X94725000Y-84225000D01*
G04 #@! TO.C,SW1*
X75675000Y-84225000D02*
X89645000Y-84225000D01*
X89645000Y-84225000D02*
X89645000Y-98195000D01*
X89645000Y-98195000D02*
X75675000Y-98195000D01*
X75675000Y-98195000D02*
X75675000Y-84225000D01*
G04 #@! TO.C,SW59*
D11*
X121350476Y-159940761D02*
X121493333Y-159988380D01*
X121731428Y-159988380D01*
X121826666Y-159940761D01*
X121874285Y-159893142D01*
X121921904Y-159797904D01*
X121921904Y-159702666D01*
X121874285Y-159607428D01*
X121826666Y-159559809D01*
X121731428Y-159512190D01*
X121540952Y-159464571D01*
X121445714Y-159416952D01*
X121398095Y-159369333D01*
X121350476Y-159274095D01*
X121350476Y-159178857D01*
X121398095Y-159083619D01*
X121445714Y-159036000D01*
X121540952Y-158988380D01*
X121779047Y-158988380D01*
X121921904Y-159036000D01*
X122255238Y-158988380D02*
X122493333Y-159988380D01*
X122683809Y-159274095D01*
X122874285Y-159988380D01*
X123112380Y-158988380D01*
X123969523Y-158988380D02*
X123493333Y-158988380D01*
X123445714Y-159464571D01*
X123493333Y-159416952D01*
X123588571Y-159369333D01*
X123826666Y-159369333D01*
X123921904Y-159416952D01*
X123969523Y-159464571D01*
X124017142Y-159559809D01*
X124017142Y-159797904D01*
X123969523Y-159893142D01*
X123921904Y-159940761D01*
X123826666Y-159988380D01*
X123588571Y-159988380D01*
X123493333Y-159940761D01*
X123445714Y-159893142D01*
X124493333Y-159988380D02*
X124683809Y-159988380D01*
X124779047Y-159940761D01*
X124826666Y-159893142D01*
X124921904Y-159750285D01*
X124969523Y-159559809D01*
X124969523Y-159178857D01*
X124921904Y-159083619D01*
X124874285Y-159036000D01*
X124779047Y-158988380D01*
X124588571Y-158988380D01*
X124493333Y-159036000D01*
X124445714Y-159083619D01*
X124398095Y-159178857D01*
X124398095Y-159416952D01*
X124445714Y-159512190D01*
X124493333Y-159559809D01*
X124588571Y-159607428D01*
X124779047Y-159607428D01*
X124874285Y-159559809D01*
X124921904Y-159512190D01*
X124969523Y-159416952D01*
G04 #@! TO.C,SW60*
X145100476Y-159990761D02*
X145243333Y-160038380D01*
X145481428Y-160038380D01*
X145576666Y-159990761D01*
X145624285Y-159943142D01*
X145671904Y-159847904D01*
X145671904Y-159752666D01*
X145624285Y-159657428D01*
X145576666Y-159609809D01*
X145481428Y-159562190D01*
X145290952Y-159514571D01*
X145195714Y-159466952D01*
X145148095Y-159419333D01*
X145100476Y-159324095D01*
X145100476Y-159228857D01*
X145148095Y-159133619D01*
X145195714Y-159086000D01*
X145290952Y-159038380D01*
X145529047Y-159038380D01*
X145671904Y-159086000D01*
X146005238Y-159038380D02*
X146243333Y-160038380D01*
X146433809Y-159324095D01*
X146624285Y-160038380D01*
X146862380Y-159038380D01*
X147671904Y-159038380D02*
X147481428Y-159038380D01*
X147386190Y-159086000D01*
X147338571Y-159133619D01*
X147243333Y-159276476D01*
X147195714Y-159466952D01*
X147195714Y-159847904D01*
X147243333Y-159943142D01*
X147290952Y-159990761D01*
X147386190Y-160038380D01*
X147576666Y-160038380D01*
X147671904Y-159990761D01*
X147719523Y-159943142D01*
X147767142Y-159847904D01*
X147767142Y-159609809D01*
X147719523Y-159514571D01*
X147671904Y-159466952D01*
X147576666Y-159419333D01*
X147386190Y-159419333D01*
X147290952Y-159466952D01*
X147243333Y-159514571D01*
X147195714Y-159609809D01*
X148386190Y-159038380D02*
X148481428Y-159038380D01*
X148576666Y-159086000D01*
X148624285Y-159133619D01*
X148671904Y-159228857D01*
X148719523Y-159419333D01*
X148719523Y-159657428D01*
X148671904Y-159847904D01*
X148624285Y-159943142D01*
X148576666Y-159990761D01*
X148481428Y-160038380D01*
X148386190Y-160038380D01*
X148290952Y-159990761D01*
X148243333Y-159943142D01*
X148195714Y-159847904D01*
X148148095Y-159657428D01*
X148148095Y-159419333D01*
X148195714Y-159228857D01*
X148243333Y-159133619D01*
X148290952Y-159086000D01*
X148386190Y-159038380D01*
G04 #@! TO.C,SW63*
X226100476Y-159990761D02*
X226243333Y-160038380D01*
X226481428Y-160038380D01*
X226576666Y-159990761D01*
X226624285Y-159943142D01*
X226671904Y-159847904D01*
X226671904Y-159752666D01*
X226624285Y-159657428D01*
X226576666Y-159609809D01*
X226481428Y-159562190D01*
X226290952Y-159514571D01*
X226195714Y-159466952D01*
X226148095Y-159419333D01*
X226100476Y-159324095D01*
X226100476Y-159228857D01*
X226148095Y-159133619D01*
X226195714Y-159086000D01*
X226290952Y-159038380D01*
X226529047Y-159038380D01*
X226671904Y-159086000D01*
X227005238Y-159038380D02*
X227243333Y-160038380D01*
X227433809Y-159324095D01*
X227624285Y-160038380D01*
X227862380Y-159038380D01*
X228671904Y-159038380D02*
X228481428Y-159038380D01*
X228386190Y-159086000D01*
X228338571Y-159133619D01*
X228243333Y-159276476D01*
X228195714Y-159466952D01*
X228195714Y-159847904D01*
X228243333Y-159943142D01*
X228290952Y-159990761D01*
X228386190Y-160038380D01*
X228576666Y-160038380D01*
X228671904Y-159990761D01*
X228719523Y-159943142D01*
X228767142Y-159847904D01*
X228767142Y-159609809D01*
X228719523Y-159514571D01*
X228671904Y-159466952D01*
X228576666Y-159419333D01*
X228386190Y-159419333D01*
X228290952Y-159466952D01*
X228243333Y-159514571D01*
X228195714Y-159609809D01*
X229100476Y-159038380D02*
X229719523Y-159038380D01*
X229386190Y-159419333D01*
X229529047Y-159419333D01*
X229624285Y-159466952D01*
X229671904Y-159514571D01*
X229719523Y-159609809D01*
X229719523Y-159847904D01*
X229671904Y-159943142D01*
X229624285Y-159990761D01*
X229529047Y-160038380D01*
X229243333Y-160038380D01*
X229148095Y-159990761D01*
X229100476Y-159943142D01*
G04 #@! TO.C,SW64*
X249850476Y-159990761D02*
X249993333Y-160038380D01*
X250231428Y-160038380D01*
X250326666Y-159990761D01*
X250374285Y-159943142D01*
X250421904Y-159847904D01*
X250421904Y-159752666D01*
X250374285Y-159657428D01*
X250326666Y-159609809D01*
X250231428Y-159562190D01*
X250040952Y-159514571D01*
X249945714Y-159466952D01*
X249898095Y-159419333D01*
X249850476Y-159324095D01*
X249850476Y-159228857D01*
X249898095Y-159133619D01*
X249945714Y-159086000D01*
X250040952Y-159038380D01*
X250279047Y-159038380D01*
X250421904Y-159086000D01*
X250755238Y-159038380D02*
X250993333Y-160038380D01*
X251183809Y-159324095D01*
X251374285Y-160038380D01*
X251612380Y-159038380D01*
X252421904Y-159038380D02*
X252231428Y-159038380D01*
X252136190Y-159086000D01*
X252088571Y-159133619D01*
X251993333Y-159276476D01*
X251945714Y-159466952D01*
X251945714Y-159847904D01*
X251993333Y-159943142D01*
X252040952Y-159990761D01*
X252136190Y-160038380D01*
X252326666Y-160038380D01*
X252421904Y-159990761D01*
X252469523Y-159943142D01*
X252517142Y-159847904D01*
X252517142Y-159609809D01*
X252469523Y-159514571D01*
X252421904Y-159466952D01*
X252326666Y-159419333D01*
X252136190Y-159419333D01*
X252040952Y-159466952D01*
X251993333Y-159514571D01*
X251945714Y-159609809D01*
X253374285Y-159371714D02*
X253374285Y-160038380D01*
X253136190Y-158990761D02*
X252898095Y-159705047D01*
X253517142Y-159705047D01*
G04 #@! TO.C,SW62*
X199850476Y-159990761D02*
X199993333Y-160038380D01*
X200231428Y-160038380D01*
X200326666Y-159990761D01*
X200374285Y-159943142D01*
X200421904Y-159847904D01*
X200421904Y-159752666D01*
X200374285Y-159657428D01*
X200326666Y-159609809D01*
X200231428Y-159562190D01*
X200040952Y-159514571D01*
X199945714Y-159466952D01*
X199898095Y-159419333D01*
X199850476Y-159324095D01*
X199850476Y-159228857D01*
X199898095Y-159133619D01*
X199945714Y-159086000D01*
X200040952Y-159038380D01*
X200279047Y-159038380D01*
X200421904Y-159086000D01*
X200755238Y-159038380D02*
X200993333Y-160038380D01*
X201183809Y-159324095D01*
X201374285Y-160038380D01*
X201612380Y-159038380D01*
X202421904Y-159038380D02*
X202231428Y-159038380D01*
X202136190Y-159086000D01*
X202088571Y-159133619D01*
X201993333Y-159276476D01*
X201945714Y-159466952D01*
X201945714Y-159847904D01*
X201993333Y-159943142D01*
X202040952Y-159990761D01*
X202136190Y-160038380D01*
X202326666Y-160038380D01*
X202421904Y-159990761D01*
X202469523Y-159943142D01*
X202517142Y-159847904D01*
X202517142Y-159609809D01*
X202469523Y-159514571D01*
X202421904Y-159466952D01*
X202326666Y-159419333D01*
X202136190Y-159419333D01*
X202040952Y-159466952D01*
X201993333Y-159514571D01*
X201945714Y-159609809D01*
X202898095Y-159133619D02*
X202945714Y-159086000D01*
X203040952Y-159038380D01*
X203279047Y-159038380D01*
X203374285Y-159086000D01*
X203421904Y-159133619D01*
X203469523Y-159228857D01*
X203469523Y-159324095D01*
X203421904Y-159466952D01*
X202850476Y-160038380D01*
X203469523Y-160038380D01*
G04 #@! TO.C,SW61*
X171350476Y-159990761D02*
X171493333Y-160038380D01*
X171731428Y-160038380D01*
X171826666Y-159990761D01*
X171874285Y-159943142D01*
X171921904Y-159847904D01*
X171921904Y-159752666D01*
X171874285Y-159657428D01*
X171826666Y-159609809D01*
X171731428Y-159562190D01*
X171540952Y-159514571D01*
X171445714Y-159466952D01*
X171398095Y-159419333D01*
X171350476Y-159324095D01*
X171350476Y-159228857D01*
X171398095Y-159133619D01*
X171445714Y-159086000D01*
X171540952Y-159038380D01*
X171779047Y-159038380D01*
X171921904Y-159086000D01*
X172255238Y-159038380D02*
X172493333Y-160038380D01*
X172683809Y-159324095D01*
X172874285Y-160038380D01*
X173112380Y-159038380D01*
X173921904Y-159038380D02*
X173731428Y-159038380D01*
X173636190Y-159086000D01*
X173588571Y-159133619D01*
X173493333Y-159276476D01*
X173445714Y-159466952D01*
X173445714Y-159847904D01*
X173493333Y-159943142D01*
X173540952Y-159990761D01*
X173636190Y-160038380D01*
X173826666Y-160038380D01*
X173921904Y-159990761D01*
X173969523Y-159943142D01*
X174017142Y-159847904D01*
X174017142Y-159609809D01*
X173969523Y-159514571D01*
X173921904Y-159466952D01*
X173826666Y-159419333D01*
X173636190Y-159419333D01*
X173540952Y-159466952D01*
X173493333Y-159514571D01*
X173445714Y-159609809D01*
X174969523Y-160038380D02*
X174398095Y-160038380D01*
X174683809Y-160038380D02*
X174683809Y-159038380D01*
X174588571Y-159181238D01*
X174493333Y-159276476D01*
X174398095Y-159324095D01*
G04 #@! TO.C,SW67*
X309450476Y-159940761D02*
X309593333Y-159988380D01*
X309831428Y-159988380D01*
X309926666Y-159940761D01*
X309974285Y-159893142D01*
X310021904Y-159797904D01*
X310021904Y-159702666D01*
X309974285Y-159607428D01*
X309926666Y-159559809D01*
X309831428Y-159512190D01*
X309640952Y-159464571D01*
X309545714Y-159416952D01*
X309498095Y-159369333D01*
X309450476Y-159274095D01*
X309450476Y-159178857D01*
X309498095Y-159083619D01*
X309545714Y-159036000D01*
X309640952Y-158988380D01*
X309879047Y-158988380D01*
X310021904Y-159036000D01*
X310355238Y-158988380D02*
X310593333Y-159988380D01*
X310783809Y-159274095D01*
X310974285Y-159988380D01*
X311212380Y-158988380D01*
X312021904Y-158988380D02*
X311831428Y-158988380D01*
X311736190Y-159036000D01*
X311688571Y-159083619D01*
X311593333Y-159226476D01*
X311545714Y-159416952D01*
X311545714Y-159797904D01*
X311593333Y-159893142D01*
X311640952Y-159940761D01*
X311736190Y-159988380D01*
X311926666Y-159988380D01*
X312021904Y-159940761D01*
X312069523Y-159893142D01*
X312117142Y-159797904D01*
X312117142Y-159559809D01*
X312069523Y-159464571D01*
X312021904Y-159416952D01*
X311926666Y-159369333D01*
X311736190Y-159369333D01*
X311640952Y-159416952D01*
X311593333Y-159464571D01*
X311545714Y-159559809D01*
X312450476Y-158988380D02*
X313117142Y-158988380D01*
X312688571Y-159988380D01*
G04 #@! TO.C,SW66*
X290400476Y-159940761D02*
X290543333Y-159988380D01*
X290781428Y-159988380D01*
X290876666Y-159940761D01*
X290924285Y-159893142D01*
X290971904Y-159797904D01*
X290971904Y-159702666D01*
X290924285Y-159607428D01*
X290876666Y-159559809D01*
X290781428Y-159512190D01*
X290590952Y-159464571D01*
X290495714Y-159416952D01*
X290448095Y-159369333D01*
X290400476Y-159274095D01*
X290400476Y-159178857D01*
X290448095Y-159083619D01*
X290495714Y-159036000D01*
X290590952Y-158988380D01*
X290829047Y-158988380D01*
X290971904Y-159036000D01*
X291305238Y-158988380D02*
X291543333Y-159988380D01*
X291733809Y-159274095D01*
X291924285Y-159988380D01*
X292162380Y-158988380D01*
X292971904Y-158988380D02*
X292781428Y-158988380D01*
X292686190Y-159036000D01*
X292638571Y-159083619D01*
X292543333Y-159226476D01*
X292495714Y-159416952D01*
X292495714Y-159797904D01*
X292543333Y-159893142D01*
X292590952Y-159940761D01*
X292686190Y-159988380D01*
X292876666Y-159988380D01*
X292971904Y-159940761D01*
X293019523Y-159893142D01*
X293067142Y-159797904D01*
X293067142Y-159559809D01*
X293019523Y-159464571D01*
X292971904Y-159416952D01*
X292876666Y-159369333D01*
X292686190Y-159369333D01*
X292590952Y-159416952D01*
X292543333Y-159464571D01*
X292495714Y-159559809D01*
X293924285Y-158988380D02*
X293733809Y-158988380D01*
X293638571Y-159036000D01*
X293590952Y-159083619D01*
X293495714Y-159226476D01*
X293448095Y-159416952D01*
X293448095Y-159797904D01*
X293495714Y-159893142D01*
X293543333Y-159940761D01*
X293638571Y-159988380D01*
X293829047Y-159988380D01*
X293924285Y-159940761D01*
X293971904Y-159893142D01*
X294019523Y-159797904D01*
X294019523Y-159559809D01*
X293971904Y-159464571D01*
X293924285Y-159416952D01*
X293829047Y-159369333D01*
X293638571Y-159369333D01*
X293543333Y-159416952D01*
X293495714Y-159464571D01*
X293448095Y-159559809D01*
G04 #@! TO.C,SW65*
X271350476Y-159990761D02*
X271493333Y-160038380D01*
X271731428Y-160038380D01*
X271826666Y-159990761D01*
X271874285Y-159943142D01*
X271921904Y-159847904D01*
X271921904Y-159752666D01*
X271874285Y-159657428D01*
X271826666Y-159609809D01*
X271731428Y-159562190D01*
X271540952Y-159514571D01*
X271445714Y-159466952D01*
X271398095Y-159419333D01*
X271350476Y-159324095D01*
X271350476Y-159228857D01*
X271398095Y-159133619D01*
X271445714Y-159086000D01*
X271540952Y-159038380D01*
X271779047Y-159038380D01*
X271921904Y-159086000D01*
X272255238Y-159038380D02*
X272493333Y-160038380D01*
X272683809Y-159324095D01*
X272874285Y-160038380D01*
X273112380Y-159038380D01*
X273921904Y-159038380D02*
X273731428Y-159038380D01*
X273636190Y-159086000D01*
X273588571Y-159133619D01*
X273493333Y-159276476D01*
X273445714Y-159466952D01*
X273445714Y-159847904D01*
X273493333Y-159943142D01*
X273540952Y-159990761D01*
X273636190Y-160038380D01*
X273826666Y-160038380D01*
X273921904Y-159990761D01*
X273969523Y-159943142D01*
X274017142Y-159847904D01*
X274017142Y-159609809D01*
X273969523Y-159514571D01*
X273921904Y-159466952D01*
X273826666Y-159419333D01*
X273636190Y-159419333D01*
X273540952Y-159466952D01*
X273493333Y-159514571D01*
X273445714Y-159609809D01*
X274921904Y-159038380D02*
X274445714Y-159038380D01*
X274398095Y-159514571D01*
X274445714Y-159466952D01*
X274540952Y-159419333D01*
X274779047Y-159419333D01*
X274874285Y-159466952D01*
X274921904Y-159514571D01*
X274969523Y-159609809D01*
X274969523Y-159847904D01*
X274921904Y-159943142D01*
X274874285Y-159990761D01*
X274779047Y-160038380D01*
X274540952Y-160038380D01*
X274445714Y-159990761D01*
X274398095Y-159943142D01*
G04 #@! TO.C,SW52*
X252300476Y-140890761D02*
X252443333Y-140938380D01*
X252681428Y-140938380D01*
X252776666Y-140890761D01*
X252824285Y-140843142D01*
X252871904Y-140747904D01*
X252871904Y-140652666D01*
X252824285Y-140557428D01*
X252776666Y-140509809D01*
X252681428Y-140462190D01*
X252490952Y-140414571D01*
X252395714Y-140366952D01*
X252348095Y-140319333D01*
X252300476Y-140224095D01*
X252300476Y-140128857D01*
X252348095Y-140033619D01*
X252395714Y-139986000D01*
X252490952Y-139938380D01*
X252729047Y-139938380D01*
X252871904Y-139986000D01*
X253205238Y-139938380D02*
X253443333Y-140938380D01*
X253633809Y-140224095D01*
X253824285Y-140938380D01*
X254062380Y-139938380D01*
X254919523Y-139938380D02*
X254443333Y-139938380D01*
X254395714Y-140414571D01*
X254443333Y-140366952D01*
X254538571Y-140319333D01*
X254776666Y-140319333D01*
X254871904Y-140366952D01*
X254919523Y-140414571D01*
X254967142Y-140509809D01*
X254967142Y-140747904D01*
X254919523Y-140843142D01*
X254871904Y-140890761D01*
X254776666Y-140938380D01*
X254538571Y-140938380D01*
X254443333Y-140890761D01*
X254395714Y-140843142D01*
X255348095Y-140033619D02*
X255395714Y-139986000D01*
X255490952Y-139938380D01*
X255729047Y-139938380D01*
X255824285Y-139986000D01*
X255871904Y-140033619D01*
X255919523Y-140128857D01*
X255919523Y-140224095D01*
X255871904Y-140366952D01*
X255300476Y-140938380D01*
X255919523Y-140938380D01*
G04 #@! TO.C,SW68*
X328500476Y-159940761D02*
X328643333Y-159988380D01*
X328881428Y-159988380D01*
X328976666Y-159940761D01*
X329024285Y-159893142D01*
X329071904Y-159797904D01*
X329071904Y-159702666D01*
X329024285Y-159607428D01*
X328976666Y-159559809D01*
X328881428Y-159512190D01*
X328690952Y-159464571D01*
X328595714Y-159416952D01*
X328548095Y-159369333D01*
X328500476Y-159274095D01*
X328500476Y-159178857D01*
X328548095Y-159083619D01*
X328595714Y-159036000D01*
X328690952Y-158988380D01*
X328929047Y-158988380D01*
X329071904Y-159036000D01*
X329405238Y-158988380D02*
X329643333Y-159988380D01*
X329833809Y-159274095D01*
X330024285Y-159988380D01*
X330262380Y-158988380D01*
X331071904Y-158988380D02*
X330881428Y-158988380D01*
X330786190Y-159036000D01*
X330738571Y-159083619D01*
X330643333Y-159226476D01*
X330595714Y-159416952D01*
X330595714Y-159797904D01*
X330643333Y-159893142D01*
X330690952Y-159940761D01*
X330786190Y-159988380D01*
X330976666Y-159988380D01*
X331071904Y-159940761D01*
X331119523Y-159893142D01*
X331167142Y-159797904D01*
X331167142Y-159559809D01*
X331119523Y-159464571D01*
X331071904Y-159416952D01*
X330976666Y-159369333D01*
X330786190Y-159369333D01*
X330690952Y-159416952D01*
X330643333Y-159464571D01*
X330595714Y-159559809D01*
X331738571Y-159416952D02*
X331643333Y-159369333D01*
X331595714Y-159321714D01*
X331548095Y-159226476D01*
X331548095Y-159178857D01*
X331595714Y-159083619D01*
X331643333Y-159036000D01*
X331738571Y-158988380D01*
X331929047Y-158988380D01*
X332024285Y-159036000D01*
X332071904Y-159083619D01*
X332119523Y-159178857D01*
X332119523Y-159226476D01*
X332071904Y-159321714D01*
X332024285Y-159369333D01*
X331929047Y-159416952D01*
X331738571Y-159416952D01*
X331643333Y-159464571D01*
X331595714Y-159512190D01*
X331548095Y-159607428D01*
X331548095Y-159797904D01*
X331595714Y-159893142D01*
X331643333Y-159940761D01*
X331738571Y-159988380D01*
X331929047Y-159988380D01*
X332024285Y-159940761D01*
X332071904Y-159893142D01*
X332119523Y-159797904D01*
X332119523Y-159607428D01*
X332071904Y-159512190D01*
X332024285Y-159464571D01*
X331929047Y-159416952D01*
G04 #@! TO.C,SW58*
X99900476Y-159940761D02*
X100043333Y-159988380D01*
X100281428Y-159988380D01*
X100376666Y-159940761D01*
X100424285Y-159893142D01*
X100471904Y-159797904D01*
X100471904Y-159702666D01*
X100424285Y-159607428D01*
X100376666Y-159559809D01*
X100281428Y-159512190D01*
X100090952Y-159464571D01*
X99995714Y-159416952D01*
X99948095Y-159369333D01*
X99900476Y-159274095D01*
X99900476Y-159178857D01*
X99948095Y-159083619D01*
X99995714Y-159036000D01*
X100090952Y-158988380D01*
X100329047Y-158988380D01*
X100471904Y-159036000D01*
X100805238Y-158988380D02*
X101043333Y-159988380D01*
X101233809Y-159274095D01*
X101424285Y-159988380D01*
X101662380Y-158988380D01*
X102519523Y-158988380D02*
X102043333Y-158988380D01*
X101995714Y-159464571D01*
X102043333Y-159416952D01*
X102138571Y-159369333D01*
X102376666Y-159369333D01*
X102471904Y-159416952D01*
X102519523Y-159464571D01*
X102567142Y-159559809D01*
X102567142Y-159797904D01*
X102519523Y-159893142D01*
X102471904Y-159940761D01*
X102376666Y-159988380D01*
X102138571Y-159988380D01*
X102043333Y-159940761D01*
X101995714Y-159893142D01*
X103138571Y-159416952D02*
X103043333Y-159369333D01*
X102995714Y-159321714D01*
X102948095Y-159226476D01*
X102948095Y-159178857D01*
X102995714Y-159083619D01*
X103043333Y-159036000D01*
X103138571Y-158988380D01*
X103329047Y-158988380D01*
X103424285Y-159036000D01*
X103471904Y-159083619D01*
X103519523Y-159178857D01*
X103519523Y-159226476D01*
X103471904Y-159321714D01*
X103424285Y-159369333D01*
X103329047Y-159416952D01*
X103138571Y-159416952D01*
X103043333Y-159464571D01*
X102995714Y-159512190D01*
X102948095Y-159607428D01*
X102948095Y-159797904D01*
X102995714Y-159893142D01*
X103043333Y-159940761D01*
X103138571Y-159988380D01*
X103329047Y-159988380D01*
X103424285Y-159940761D01*
X103471904Y-159893142D01*
X103519523Y-159797904D01*
X103519523Y-159607428D01*
X103471904Y-159512190D01*
X103424285Y-159464571D01*
X103329047Y-159416952D01*
G04 #@! TO.C,SW57*
X80850476Y-159940761D02*
X80993333Y-159988380D01*
X81231428Y-159988380D01*
X81326666Y-159940761D01*
X81374285Y-159893142D01*
X81421904Y-159797904D01*
X81421904Y-159702666D01*
X81374285Y-159607428D01*
X81326666Y-159559809D01*
X81231428Y-159512190D01*
X81040952Y-159464571D01*
X80945714Y-159416952D01*
X80898095Y-159369333D01*
X80850476Y-159274095D01*
X80850476Y-159178857D01*
X80898095Y-159083619D01*
X80945714Y-159036000D01*
X81040952Y-158988380D01*
X81279047Y-158988380D01*
X81421904Y-159036000D01*
X81755238Y-158988380D02*
X81993333Y-159988380D01*
X82183809Y-159274095D01*
X82374285Y-159988380D01*
X82612380Y-158988380D01*
X83469523Y-158988380D02*
X82993333Y-158988380D01*
X82945714Y-159464571D01*
X82993333Y-159416952D01*
X83088571Y-159369333D01*
X83326666Y-159369333D01*
X83421904Y-159416952D01*
X83469523Y-159464571D01*
X83517142Y-159559809D01*
X83517142Y-159797904D01*
X83469523Y-159893142D01*
X83421904Y-159940761D01*
X83326666Y-159988380D01*
X83088571Y-159988380D01*
X82993333Y-159940761D01*
X82945714Y-159893142D01*
X83850476Y-158988380D02*
X84517142Y-158988380D01*
X84088571Y-159988380D01*
G04 #@! TO.C,SW56*
X328500476Y-140890761D02*
X328643333Y-140938380D01*
X328881428Y-140938380D01*
X328976666Y-140890761D01*
X329024285Y-140843142D01*
X329071904Y-140747904D01*
X329071904Y-140652666D01*
X329024285Y-140557428D01*
X328976666Y-140509809D01*
X328881428Y-140462190D01*
X328690952Y-140414571D01*
X328595714Y-140366952D01*
X328548095Y-140319333D01*
X328500476Y-140224095D01*
X328500476Y-140128857D01*
X328548095Y-140033619D01*
X328595714Y-139986000D01*
X328690952Y-139938380D01*
X328929047Y-139938380D01*
X329071904Y-139986000D01*
X329405238Y-139938380D02*
X329643333Y-140938380D01*
X329833809Y-140224095D01*
X330024285Y-140938380D01*
X330262380Y-139938380D01*
X331119523Y-139938380D02*
X330643333Y-139938380D01*
X330595714Y-140414571D01*
X330643333Y-140366952D01*
X330738571Y-140319333D01*
X330976666Y-140319333D01*
X331071904Y-140366952D01*
X331119523Y-140414571D01*
X331167142Y-140509809D01*
X331167142Y-140747904D01*
X331119523Y-140843142D01*
X331071904Y-140890761D01*
X330976666Y-140938380D01*
X330738571Y-140938380D01*
X330643333Y-140890761D01*
X330595714Y-140843142D01*
X332024285Y-139938380D02*
X331833809Y-139938380D01*
X331738571Y-139986000D01*
X331690952Y-140033619D01*
X331595714Y-140176476D01*
X331548095Y-140366952D01*
X331548095Y-140747904D01*
X331595714Y-140843142D01*
X331643333Y-140890761D01*
X331738571Y-140938380D01*
X331929047Y-140938380D01*
X332024285Y-140890761D01*
X332071904Y-140843142D01*
X332119523Y-140747904D01*
X332119523Y-140509809D01*
X332071904Y-140414571D01*
X332024285Y-140366952D01*
X331929047Y-140319333D01*
X331738571Y-140319333D01*
X331643333Y-140366952D01*
X331595714Y-140414571D01*
X331548095Y-140509809D01*
G04 #@! TO.C,SW55*
X309450476Y-140890761D02*
X309593333Y-140938380D01*
X309831428Y-140938380D01*
X309926666Y-140890761D01*
X309974285Y-140843142D01*
X310021904Y-140747904D01*
X310021904Y-140652666D01*
X309974285Y-140557428D01*
X309926666Y-140509809D01*
X309831428Y-140462190D01*
X309640952Y-140414571D01*
X309545714Y-140366952D01*
X309498095Y-140319333D01*
X309450476Y-140224095D01*
X309450476Y-140128857D01*
X309498095Y-140033619D01*
X309545714Y-139986000D01*
X309640952Y-139938380D01*
X309879047Y-139938380D01*
X310021904Y-139986000D01*
X310355238Y-139938380D02*
X310593333Y-140938380D01*
X310783809Y-140224095D01*
X310974285Y-140938380D01*
X311212380Y-139938380D01*
X312069523Y-139938380D02*
X311593333Y-139938380D01*
X311545714Y-140414571D01*
X311593333Y-140366952D01*
X311688571Y-140319333D01*
X311926666Y-140319333D01*
X312021904Y-140366952D01*
X312069523Y-140414571D01*
X312117142Y-140509809D01*
X312117142Y-140747904D01*
X312069523Y-140843142D01*
X312021904Y-140890761D01*
X311926666Y-140938380D01*
X311688571Y-140938380D01*
X311593333Y-140890761D01*
X311545714Y-140843142D01*
X313021904Y-139938380D02*
X312545714Y-139938380D01*
X312498095Y-140414571D01*
X312545714Y-140366952D01*
X312640952Y-140319333D01*
X312879047Y-140319333D01*
X312974285Y-140366952D01*
X313021904Y-140414571D01*
X313069523Y-140509809D01*
X313069523Y-140747904D01*
X313021904Y-140843142D01*
X312974285Y-140890761D01*
X312879047Y-140938380D01*
X312640952Y-140938380D01*
X312545714Y-140890761D01*
X312498095Y-140843142D01*
G04 #@! TO.C,SW54*
X290400476Y-140890761D02*
X290543333Y-140938380D01*
X290781428Y-140938380D01*
X290876666Y-140890761D01*
X290924285Y-140843142D01*
X290971904Y-140747904D01*
X290971904Y-140652666D01*
X290924285Y-140557428D01*
X290876666Y-140509809D01*
X290781428Y-140462190D01*
X290590952Y-140414571D01*
X290495714Y-140366952D01*
X290448095Y-140319333D01*
X290400476Y-140224095D01*
X290400476Y-140128857D01*
X290448095Y-140033619D01*
X290495714Y-139986000D01*
X290590952Y-139938380D01*
X290829047Y-139938380D01*
X290971904Y-139986000D01*
X291305238Y-139938380D02*
X291543333Y-140938380D01*
X291733809Y-140224095D01*
X291924285Y-140938380D01*
X292162380Y-139938380D01*
X293019523Y-139938380D02*
X292543333Y-139938380D01*
X292495714Y-140414571D01*
X292543333Y-140366952D01*
X292638571Y-140319333D01*
X292876666Y-140319333D01*
X292971904Y-140366952D01*
X293019523Y-140414571D01*
X293067142Y-140509809D01*
X293067142Y-140747904D01*
X293019523Y-140843142D01*
X292971904Y-140890761D01*
X292876666Y-140938380D01*
X292638571Y-140938380D01*
X292543333Y-140890761D01*
X292495714Y-140843142D01*
X293924285Y-140271714D02*
X293924285Y-140938380D01*
X293686190Y-139890761D02*
X293448095Y-140605047D01*
X294067142Y-140605047D01*
G04 #@! TO.C,SW53*
X271350476Y-140890761D02*
X271493333Y-140938380D01*
X271731428Y-140938380D01*
X271826666Y-140890761D01*
X271874285Y-140843142D01*
X271921904Y-140747904D01*
X271921904Y-140652666D01*
X271874285Y-140557428D01*
X271826666Y-140509809D01*
X271731428Y-140462190D01*
X271540952Y-140414571D01*
X271445714Y-140366952D01*
X271398095Y-140319333D01*
X271350476Y-140224095D01*
X271350476Y-140128857D01*
X271398095Y-140033619D01*
X271445714Y-139986000D01*
X271540952Y-139938380D01*
X271779047Y-139938380D01*
X271921904Y-139986000D01*
X272255238Y-139938380D02*
X272493333Y-140938380D01*
X272683809Y-140224095D01*
X272874285Y-140938380D01*
X273112380Y-139938380D01*
X273969523Y-139938380D02*
X273493333Y-139938380D01*
X273445714Y-140414571D01*
X273493333Y-140366952D01*
X273588571Y-140319333D01*
X273826666Y-140319333D01*
X273921904Y-140366952D01*
X273969523Y-140414571D01*
X274017142Y-140509809D01*
X274017142Y-140747904D01*
X273969523Y-140843142D01*
X273921904Y-140890761D01*
X273826666Y-140938380D01*
X273588571Y-140938380D01*
X273493333Y-140890761D01*
X273445714Y-140843142D01*
X274350476Y-139938380D02*
X274969523Y-139938380D01*
X274636190Y-140319333D01*
X274779047Y-140319333D01*
X274874285Y-140366952D01*
X274921904Y-140414571D01*
X274969523Y-140509809D01*
X274969523Y-140747904D01*
X274921904Y-140843142D01*
X274874285Y-140890761D01*
X274779047Y-140938380D01*
X274493333Y-140938380D01*
X274398095Y-140890761D01*
X274350476Y-140843142D01*
G04 #@! TO.C,SW42*
X328500476Y-121840761D02*
X328643333Y-121888380D01*
X328881428Y-121888380D01*
X328976666Y-121840761D01*
X329024285Y-121793142D01*
X329071904Y-121697904D01*
X329071904Y-121602666D01*
X329024285Y-121507428D01*
X328976666Y-121459809D01*
X328881428Y-121412190D01*
X328690952Y-121364571D01*
X328595714Y-121316952D01*
X328548095Y-121269333D01*
X328500476Y-121174095D01*
X328500476Y-121078857D01*
X328548095Y-120983619D01*
X328595714Y-120936000D01*
X328690952Y-120888380D01*
X328929047Y-120888380D01*
X329071904Y-120936000D01*
X329405238Y-120888380D02*
X329643333Y-121888380D01*
X329833809Y-121174095D01*
X330024285Y-121888380D01*
X330262380Y-120888380D01*
X331071904Y-121221714D02*
X331071904Y-121888380D01*
X330833809Y-120840761D02*
X330595714Y-121555047D01*
X331214761Y-121555047D01*
X331548095Y-120983619D02*
X331595714Y-120936000D01*
X331690952Y-120888380D01*
X331929047Y-120888380D01*
X332024285Y-120936000D01*
X332071904Y-120983619D01*
X332119523Y-121078857D01*
X332119523Y-121174095D01*
X332071904Y-121316952D01*
X331500476Y-121888380D01*
X332119523Y-121888380D01*
G04 #@! TO.C,SW50*
X214200476Y-140890761D02*
X214343333Y-140938380D01*
X214581428Y-140938380D01*
X214676666Y-140890761D01*
X214724285Y-140843142D01*
X214771904Y-140747904D01*
X214771904Y-140652666D01*
X214724285Y-140557428D01*
X214676666Y-140509809D01*
X214581428Y-140462190D01*
X214390952Y-140414571D01*
X214295714Y-140366952D01*
X214248095Y-140319333D01*
X214200476Y-140224095D01*
X214200476Y-140128857D01*
X214248095Y-140033619D01*
X214295714Y-139986000D01*
X214390952Y-139938380D01*
X214629047Y-139938380D01*
X214771904Y-139986000D01*
X215105238Y-139938380D02*
X215343333Y-140938380D01*
X215533809Y-140224095D01*
X215724285Y-140938380D01*
X215962380Y-139938380D01*
X216819523Y-139938380D02*
X216343333Y-139938380D01*
X216295714Y-140414571D01*
X216343333Y-140366952D01*
X216438571Y-140319333D01*
X216676666Y-140319333D01*
X216771904Y-140366952D01*
X216819523Y-140414571D01*
X216867142Y-140509809D01*
X216867142Y-140747904D01*
X216819523Y-140843142D01*
X216771904Y-140890761D01*
X216676666Y-140938380D01*
X216438571Y-140938380D01*
X216343333Y-140890761D01*
X216295714Y-140843142D01*
X217486190Y-139938380D02*
X217581428Y-139938380D01*
X217676666Y-139986000D01*
X217724285Y-140033619D01*
X217771904Y-140128857D01*
X217819523Y-140319333D01*
X217819523Y-140557428D01*
X217771904Y-140747904D01*
X217724285Y-140843142D01*
X217676666Y-140890761D01*
X217581428Y-140938380D01*
X217486190Y-140938380D01*
X217390952Y-140890761D01*
X217343333Y-140843142D01*
X217295714Y-140747904D01*
X217248095Y-140557428D01*
X217248095Y-140319333D01*
X217295714Y-140128857D01*
X217343333Y-140033619D01*
X217390952Y-139986000D01*
X217486190Y-139938380D01*
G04 #@! TO.C,SW49*
X195150476Y-140890761D02*
X195293333Y-140938380D01*
X195531428Y-140938380D01*
X195626666Y-140890761D01*
X195674285Y-140843142D01*
X195721904Y-140747904D01*
X195721904Y-140652666D01*
X195674285Y-140557428D01*
X195626666Y-140509809D01*
X195531428Y-140462190D01*
X195340952Y-140414571D01*
X195245714Y-140366952D01*
X195198095Y-140319333D01*
X195150476Y-140224095D01*
X195150476Y-140128857D01*
X195198095Y-140033619D01*
X195245714Y-139986000D01*
X195340952Y-139938380D01*
X195579047Y-139938380D01*
X195721904Y-139986000D01*
X196055238Y-139938380D02*
X196293333Y-140938380D01*
X196483809Y-140224095D01*
X196674285Y-140938380D01*
X196912380Y-139938380D01*
X197721904Y-140271714D02*
X197721904Y-140938380D01*
X197483809Y-139890761D02*
X197245714Y-140605047D01*
X197864761Y-140605047D01*
X198293333Y-140938380D02*
X198483809Y-140938380D01*
X198579047Y-140890761D01*
X198626666Y-140843142D01*
X198721904Y-140700285D01*
X198769523Y-140509809D01*
X198769523Y-140128857D01*
X198721904Y-140033619D01*
X198674285Y-139986000D01*
X198579047Y-139938380D01*
X198388571Y-139938380D01*
X198293333Y-139986000D01*
X198245714Y-140033619D01*
X198198095Y-140128857D01*
X198198095Y-140366952D01*
X198245714Y-140462190D01*
X198293333Y-140509809D01*
X198388571Y-140557428D01*
X198579047Y-140557428D01*
X198674285Y-140509809D01*
X198721904Y-140462190D01*
X198769523Y-140366952D01*
G04 #@! TO.C,SW48*
X176100476Y-140890761D02*
X176243333Y-140938380D01*
X176481428Y-140938380D01*
X176576666Y-140890761D01*
X176624285Y-140843142D01*
X176671904Y-140747904D01*
X176671904Y-140652666D01*
X176624285Y-140557428D01*
X176576666Y-140509809D01*
X176481428Y-140462190D01*
X176290952Y-140414571D01*
X176195714Y-140366952D01*
X176148095Y-140319333D01*
X176100476Y-140224095D01*
X176100476Y-140128857D01*
X176148095Y-140033619D01*
X176195714Y-139986000D01*
X176290952Y-139938380D01*
X176529047Y-139938380D01*
X176671904Y-139986000D01*
X177005238Y-139938380D02*
X177243333Y-140938380D01*
X177433809Y-140224095D01*
X177624285Y-140938380D01*
X177862380Y-139938380D01*
X178671904Y-140271714D02*
X178671904Y-140938380D01*
X178433809Y-139890761D02*
X178195714Y-140605047D01*
X178814761Y-140605047D01*
X179338571Y-140366952D02*
X179243333Y-140319333D01*
X179195714Y-140271714D01*
X179148095Y-140176476D01*
X179148095Y-140128857D01*
X179195714Y-140033619D01*
X179243333Y-139986000D01*
X179338571Y-139938380D01*
X179529047Y-139938380D01*
X179624285Y-139986000D01*
X179671904Y-140033619D01*
X179719523Y-140128857D01*
X179719523Y-140176476D01*
X179671904Y-140271714D01*
X179624285Y-140319333D01*
X179529047Y-140366952D01*
X179338571Y-140366952D01*
X179243333Y-140414571D01*
X179195714Y-140462190D01*
X179148095Y-140557428D01*
X179148095Y-140747904D01*
X179195714Y-140843142D01*
X179243333Y-140890761D01*
X179338571Y-140938380D01*
X179529047Y-140938380D01*
X179624285Y-140890761D01*
X179671904Y-140843142D01*
X179719523Y-140747904D01*
X179719523Y-140557428D01*
X179671904Y-140462190D01*
X179624285Y-140414571D01*
X179529047Y-140366952D01*
G04 #@! TO.C,SW47*
X157050476Y-140890761D02*
X157193333Y-140938380D01*
X157431428Y-140938380D01*
X157526666Y-140890761D01*
X157574285Y-140843142D01*
X157621904Y-140747904D01*
X157621904Y-140652666D01*
X157574285Y-140557428D01*
X157526666Y-140509809D01*
X157431428Y-140462190D01*
X157240952Y-140414571D01*
X157145714Y-140366952D01*
X157098095Y-140319333D01*
X157050476Y-140224095D01*
X157050476Y-140128857D01*
X157098095Y-140033619D01*
X157145714Y-139986000D01*
X157240952Y-139938380D01*
X157479047Y-139938380D01*
X157621904Y-139986000D01*
X157955238Y-139938380D02*
X158193333Y-140938380D01*
X158383809Y-140224095D01*
X158574285Y-140938380D01*
X158812380Y-139938380D01*
X159621904Y-140271714D02*
X159621904Y-140938380D01*
X159383809Y-139890761D02*
X159145714Y-140605047D01*
X159764761Y-140605047D01*
X160050476Y-139938380D02*
X160717142Y-139938380D01*
X160288571Y-140938380D01*
G04 #@! TO.C,SW46*
X138000476Y-140890761D02*
X138143333Y-140938380D01*
X138381428Y-140938380D01*
X138476666Y-140890761D01*
X138524285Y-140843142D01*
X138571904Y-140747904D01*
X138571904Y-140652666D01*
X138524285Y-140557428D01*
X138476666Y-140509809D01*
X138381428Y-140462190D01*
X138190952Y-140414571D01*
X138095714Y-140366952D01*
X138048095Y-140319333D01*
X138000476Y-140224095D01*
X138000476Y-140128857D01*
X138048095Y-140033619D01*
X138095714Y-139986000D01*
X138190952Y-139938380D01*
X138429047Y-139938380D01*
X138571904Y-139986000D01*
X138905238Y-139938380D02*
X139143333Y-140938380D01*
X139333809Y-140224095D01*
X139524285Y-140938380D01*
X139762380Y-139938380D01*
X140571904Y-140271714D02*
X140571904Y-140938380D01*
X140333809Y-139890761D02*
X140095714Y-140605047D01*
X140714761Y-140605047D01*
X141524285Y-139938380D02*
X141333809Y-139938380D01*
X141238571Y-139986000D01*
X141190952Y-140033619D01*
X141095714Y-140176476D01*
X141048095Y-140366952D01*
X141048095Y-140747904D01*
X141095714Y-140843142D01*
X141143333Y-140890761D01*
X141238571Y-140938380D01*
X141429047Y-140938380D01*
X141524285Y-140890761D01*
X141571904Y-140843142D01*
X141619523Y-140747904D01*
X141619523Y-140509809D01*
X141571904Y-140414571D01*
X141524285Y-140366952D01*
X141429047Y-140319333D01*
X141238571Y-140319333D01*
X141143333Y-140366952D01*
X141095714Y-140414571D01*
X141048095Y-140509809D01*
G04 #@! TO.C,SW45*
X118950476Y-140890761D02*
X119093333Y-140938380D01*
X119331428Y-140938380D01*
X119426666Y-140890761D01*
X119474285Y-140843142D01*
X119521904Y-140747904D01*
X119521904Y-140652666D01*
X119474285Y-140557428D01*
X119426666Y-140509809D01*
X119331428Y-140462190D01*
X119140952Y-140414571D01*
X119045714Y-140366952D01*
X118998095Y-140319333D01*
X118950476Y-140224095D01*
X118950476Y-140128857D01*
X118998095Y-140033619D01*
X119045714Y-139986000D01*
X119140952Y-139938380D01*
X119379047Y-139938380D01*
X119521904Y-139986000D01*
X119855238Y-139938380D02*
X120093333Y-140938380D01*
X120283809Y-140224095D01*
X120474285Y-140938380D01*
X120712380Y-139938380D01*
X121521904Y-140271714D02*
X121521904Y-140938380D01*
X121283809Y-139890761D02*
X121045714Y-140605047D01*
X121664761Y-140605047D01*
X122521904Y-139938380D02*
X122045714Y-139938380D01*
X121998095Y-140414571D01*
X122045714Y-140366952D01*
X122140952Y-140319333D01*
X122379047Y-140319333D01*
X122474285Y-140366952D01*
X122521904Y-140414571D01*
X122569523Y-140509809D01*
X122569523Y-140747904D01*
X122521904Y-140843142D01*
X122474285Y-140890761D01*
X122379047Y-140938380D01*
X122140952Y-140938380D01*
X122045714Y-140890761D01*
X121998095Y-140843142D01*
G04 #@! TO.C,SW35*
X195150476Y-121840761D02*
X195293333Y-121888380D01*
X195531428Y-121888380D01*
X195626666Y-121840761D01*
X195674285Y-121793142D01*
X195721904Y-121697904D01*
X195721904Y-121602666D01*
X195674285Y-121507428D01*
X195626666Y-121459809D01*
X195531428Y-121412190D01*
X195340952Y-121364571D01*
X195245714Y-121316952D01*
X195198095Y-121269333D01*
X195150476Y-121174095D01*
X195150476Y-121078857D01*
X195198095Y-120983619D01*
X195245714Y-120936000D01*
X195340952Y-120888380D01*
X195579047Y-120888380D01*
X195721904Y-120936000D01*
X196055238Y-120888380D02*
X196293333Y-121888380D01*
X196483809Y-121174095D01*
X196674285Y-121888380D01*
X196912380Y-120888380D01*
X197198095Y-120888380D02*
X197817142Y-120888380D01*
X197483809Y-121269333D01*
X197626666Y-121269333D01*
X197721904Y-121316952D01*
X197769523Y-121364571D01*
X197817142Y-121459809D01*
X197817142Y-121697904D01*
X197769523Y-121793142D01*
X197721904Y-121840761D01*
X197626666Y-121888380D01*
X197340952Y-121888380D01*
X197245714Y-121840761D01*
X197198095Y-121793142D01*
X198721904Y-120888380D02*
X198245714Y-120888380D01*
X198198095Y-121364571D01*
X198245714Y-121316952D01*
X198340952Y-121269333D01*
X198579047Y-121269333D01*
X198674285Y-121316952D01*
X198721904Y-121364571D01*
X198769523Y-121459809D01*
X198769523Y-121697904D01*
X198721904Y-121793142D01*
X198674285Y-121840761D01*
X198579047Y-121888380D01*
X198340952Y-121888380D01*
X198245714Y-121840761D01*
X198198095Y-121793142D01*
G04 #@! TO.C,SW43*
X80850476Y-140890761D02*
X80993333Y-140938380D01*
X81231428Y-140938380D01*
X81326666Y-140890761D01*
X81374285Y-140843142D01*
X81421904Y-140747904D01*
X81421904Y-140652666D01*
X81374285Y-140557428D01*
X81326666Y-140509809D01*
X81231428Y-140462190D01*
X81040952Y-140414571D01*
X80945714Y-140366952D01*
X80898095Y-140319333D01*
X80850476Y-140224095D01*
X80850476Y-140128857D01*
X80898095Y-140033619D01*
X80945714Y-139986000D01*
X81040952Y-139938380D01*
X81279047Y-139938380D01*
X81421904Y-139986000D01*
X81755238Y-139938380D02*
X81993333Y-140938380D01*
X82183809Y-140224095D01*
X82374285Y-140938380D01*
X82612380Y-139938380D01*
X83421904Y-140271714D02*
X83421904Y-140938380D01*
X83183809Y-139890761D02*
X82945714Y-140605047D01*
X83564761Y-140605047D01*
X83850476Y-139938380D02*
X84469523Y-139938380D01*
X84136190Y-140319333D01*
X84279047Y-140319333D01*
X84374285Y-140366952D01*
X84421904Y-140414571D01*
X84469523Y-140509809D01*
X84469523Y-140747904D01*
X84421904Y-140843142D01*
X84374285Y-140890761D01*
X84279047Y-140938380D01*
X83993333Y-140938380D01*
X83898095Y-140890761D01*
X83850476Y-140843142D01*
G04 #@! TO.C,SW51*
X233250476Y-140890761D02*
X233393333Y-140938380D01*
X233631428Y-140938380D01*
X233726666Y-140890761D01*
X233774285Y-140843142D01*
X233821904Y-140747904D01*
X233821904Y-140652666D01*
X233774285Y-140557428D01*
X233726666Y-140509809D01*
X233631428Y-140462190D01*
X233440952Y-140414571D01*
X233345714Y-140366952D01*
X233298095Y-140319333D01*
X233250476Y-140224095D01*
X233250476Y-140128857D01*
X233298095Y-140033619D01*
X233345714Y-139986000D01*
X233440952Y-139938380D01*
X233679047Y-139938380D01*
X233821904Y-139986000D01*
X234155238Y-139938380D02*
X234393333Y-140938380D01*
X234583809Y-140224095D01*
X234774285Y-140938380D01*
X235012380Y-139938380D01*
X235869523Y-139938380D02*
X235393333Y-139938380D01*
X235345714Y-140414571D01*
X235393333Y-140366952D01*
X235488571Y-140319333D01*
X235726666Y-140319333D01*
X235821904Y-140366952D01*
X235869523Y-140414571D01*
X235917142Y-140509809D01*
X235917142Y-140747904D01*
X235869523Y-140843142D01*
X235821904Y-140890761D01*
X235726666Y-140938380D01*
X235488571Y-140938380D01*
X235393333Y-140890761D01*
X235345714Y-140843142D01*
X236869523Y-140938380D02*
X236298095Y-140938380D01*
X236583809Y-140938380D02*
X236583809Y-139938380D01*
X236488571Y-140081238D01*
X236393333Y-140176476D01*
X236298095Y-140224095D01*
G04 #@! TO.C,SW41*
X309450476Y-121840761D02*
X309593333Y-121888380D01*
X309831428Y-121888380D01*
X309926666Y-121840761D01*
X309974285Y-121793142D01*
X310021904Y-121697904D01*
X310021904Y-121602666D01*
X309974285Y-121507428D01*
X309926666Y-121459809D01*
X309831428Y-121412190D01*
X309640952Y-121364571D01*
X309545714Y-121316952D01*
X309498095Y-121269333D01*
X309450476Y-121174095D01*
X309450476Y-121078857D01*
X309498095Y-120983619D01*
X309545714Y-120936000D01*
X309640952Y-120888380D01*
X309879047Y-120888380D01*
X310021904Y-120936000D01*
X310355238Y-120888380D02*
X310593333Y-121888380D01*
X310783809Y-121174095D01*
X310974285Y-121888380D01*
X311212380Y-120888380D01*
X312021904Y-121221714D02*
X312021904Y-121888380D01*
X311783809Y-120840761D02*
X311545714Y-121555047D01*
X312164761Y-121555047D01*
X313069523Y-121888380D02*
X312498095Y-121888380D01*
X312783809Y-121888380D02*
X312783809Y-120888380D01*
X312688571Y-121031238D01*
X312593333Y-121126476D01*
X312498095Y-121174095D01*
G04 #@! TO.C,SW40*
X290400476Y-121840761D02*
X290543333Y-121888380D01*
X290781428Y-121888380D01*
X290876666Y-121840761D01*
X290924285Y-121793142D01*
X290971904Y-121697904D01*
X290971904Y-121602666D01*
X290924285Y-121507428D01*
X290876666Y-121459809D01*
X290781428Y-121412190D01*
X290590952Y-121364571D01*
X290495714Y-121316952D01*
X290448095Y-121269333D01*
X290400476Y-121174095D01*
X290400476Y-121078857D01*
X290448095Y-120983619D01*
X290495714Y-120936000D01*
X290590952Y-120888380D01*
X290829047Y-120888380D01*
X290971904Y-120936000D01*
X291305238Y-120888380D02*
X291543333Y-121888380D01*
X291733809Y-121174095D01*
X291924285Y-121888380D01*
X292162380Y-120888380D01*
X292971904Y-121221714D02*
X292971904Y-121888380D01*
X292733809Y-120840761D02*
X292495714Y-121555047D01*
X293114761Y-121555047D01*
X293686190Y-120888380D02*
X293781428Y-120888380D01*
X293876666Y-120936000D01*
X293924285Y-120983619D01*
X293971904Y-121078857D01*
X294019523Y-121269333D01*
X294019523Y-121507428D01*
X293971904Y-121697904D01*
X293924285Y-121793142D01*
X293876666Y-121840761D01*
X293781428Y-121888380D01*
X293686190Y-121888380D01*
X293590952Y-121840761D01*
X293543333Y-121793142D01*
X293495714Y-121697904D01*
X293448095Y-121507428D01*
X293448095Y-121269333D01*
X293495714Y-121078857D01*
X293543333Y-120983619D01*
X293590952Y-120936000D01*
X293686190Y-120888380D01*
G04 #@! TO.C,SW39*
X271350476Y-121840761D02*
X271493333Y-121888380D01*
X271731428Y-121888380D01*
X271826666Y-121840761D01*
X271874285Y-121793142D01*
X271921904Y-121697904D01*
X271921904Y-121602666D01*
X271874285Y-121507428D01*
X271826666Y-121459809D01*
X271731428Y-121412190D01*
X271540952Y-121364571D01*
X271445714Y-121316952D01*
X271398095Y-121269333D01*
X271350476Y-121174095D01*
X271350476Y-121078857D01*
X271398095Y-120983619D01*
X271445714Y-120936000D01*
X271540952Y-120888380D01*
X271779047Y-120888380D01*
X271921904Y-120936000D01*
X272255238Y-120888380D02*
X272493333Y-121888380D01*
X272683809Y-121174095D01*
X272874285Y-121888380D01*
X273112380Y-120888380D01*
X273398095Y-120888380D02*
X274017142Y-120888380D01*
X273683809Y-121269333D01*
X273826666Y-121269333D01*
X273921904Y-121316952D01*
X273969523Y-121364571D01*
X274017142Y-121459809D01*
X274017142Y-121697904D01*
X273969523Y-121793142D01*
X273921904Y-121840761D01*
X273826666Y-121888380D01*
X273540952Y-121888380D01*
X273445714Y-121840761D01*
X273398095Y-121793142D01*
X274493333Y-121888380D02*
X274683809Y-121888380D01*
X274779047Y-121840761D01*
X274826666Y-121793142D01*
X274921904Y-121650285D01*
X274969523Y-121459809D01*
X274969523Y-121078857D01*
X274921904Y-120983619D01*
X274874285Y-120936000D01*
X274779047Y-120888380D01*
X274588571Y-120888380D01*
X274493333Y-120936000D01*
X274445714Y-120983619D01*
X274398095Y-121078857D01*
X274398095Y-121316952D01*
X274445714Y-121412190D01*
X274493333Y-121459809D01*
X274588571Y-121507428D01*
X274779047Y-121507428D01*
X274874285Y-121459809D01*
X274921904Y-121412190D01*
X274969523Y-121316952D01*
G04 #@! TO.C,SW38*
X252300476Y-121840761D02*
X252443333Y-121888380D01*
X252681428Y-121888380D01*
X252776666Y-121840761D01*
X252824285Y-121793142D01*
X252871904Y-121697904D01*
X252871904Y-121602666D01*
X252824285Y-121507428D01*
X252776666Y-121459809D01*
X252681428Y-121412190D01*
X252490952Y-121364571D01*
X252395714Y-121316952D01*
X252348095Y-121269333D01*
X252300476Y-121174095D01*
X252300476Y-121078857D01*
X252348095Y-120983619D01*
X252395714Y-120936000D01*
X252490952Y-120888380D01*
X252729047Y-120888380D01*
X252871904Y-120936000D01*
X253205238Y-120888380D02*
X253443333Y-121888380D01*
X253633809Y-121174095D01*
X253824285Y-121888380D01*
X254062380Y-120888380D01*
X254348095Y-120888380D02*
X254967142Y-120888380D01*
X254633809Y-121269333D01*
X254776666Y-121269333D01*
X254871904Y-121316952D01*
X254919523Y-121364571D01*
X254967142Y-121459809D01*
X254967142Y-121697904D01*
X254919523Y-121793142D01*
X254871904Y-121840761D01*
X254776666Y-121888380D01*
X254490952Y-121888380D01*
X254395714Y-121840761D01*
X254348095Y-121793142D01*
X255538571Y-121316952D02*
X255443333Y-121269333D01*
X255395714Y-121221714D01*
X255348095Y-121126476D01*
X255348095Y-121078857D01*
X255395714Y-120983619D01*
X255443333Y-120936000D01*
X255538571Y-120888380D01*
X255729047Y-120888380D01*
X255824285Y-120936000D01*
X255871904Y-120983619D01*
X255919523Y-121078857D01*
X255919523Y-121126476D01*
X255871904Y-121221714D01*
X255824285Y-121269333D01*
X255729047Y-121316952D01*
X255538571Y-121316952D01*
X255443333Y-121364571D01*
X255395714Y-121412190D01*
X255348095Y-121507428D01*
X255348095Y-121697904D01*
X255395714Y-121793142D01*
X255443333Y-121840761D01*
X255538571Y-121888380D01*
X255729047Y-121888380D01*
X255824285Y-121840761D01*
X255871904Y-121793142D01*
X255919523Y-121697904D01*
X255919523Y-121507428D01*
X255871904Y-121412190D01*
X255824285Y-121364571D01*
X255729047Y-121316952D01*
G04 #@! TO.C,SW37*
X233250476Y-121840761D02*
X233393333Y-121888380D01*
X233631428Y-121888380D01*
X233726666Y-121840761D01*
X233774285Y-121793142D01*
X233821904Y-121697904D01*
X233821904Y-121602666D01*
X233774285Y-121507428D01*
X233726666Y-121459809D01*
X233631428Y-121412190D01*
X233440952Y-121364571D01*
X233345714Y-121316952D01*
X233298095Y-121269333D01*
X233250476Y-121174095D01*
X233250476Y-121078857D01*
X233298095Y-120983619D01*
X233345714Y-120936000D01*
X233440952Y-120888380D01*
X233679047Y-120888380D01*
X233821904Y-120936000D01*
X234155238Y-120888380D02*
X234393333Y-121888380D01*
X234583809Y-121174095D01*
X234774285Y-121888380D01*
X235012380Y-120888380D01*
X235298095Y-120888380D02*
X235917142Y-120888380D01*
X235583809Y-121269333D01*
X235726666Y-121269333D01*
X235821904Y-121316952D01*
X235869523Y-121364571D01*
X235917142Y-121459809D01*
X235917142Y-121697904D01*
X235869523Y-121793142D01*
X235821904Y-121840761D01*
X235726666Y-121888380D01*
X235440952Y-121888380D01*
X235345714Y-121840761D01*
X235298095Y-121793142D01*
X236250476Y-120888380D02*
X236917142Y-120888380D01*
X236488571Y-121888380D01*
G04 #@! TO.C,SW36*
X214200476Y-121840761D02*
X214343333Y-121888380D01*
X214581428Y-121888380D01*
X214676666Y-121840761D01*
X214724285Y-121793142D01*
X214771904Y-121697904D01*
X214771904Y-121602666D01*
X214724285Y-121507428D01*
X214676666Y-121459809D01*
X214581428Y-121412190D01*
X214390952Y-121364571D01*
X214295714Y-121316952D01*
X214248095Y-121269333D01*
X214200476Y-121174095D01*
X214200476Y-121078857D01*
X214248095Y-120983619D01*
X214295714Y-120936000D01*
X214390952Y-120888380D01*
X214629047Y-120888380D01*
X214771904Y-120936000D01*
X215105238Y-120888380D02*
X215343333Y-121888380D01*
X215533809Y-121174095D01*
X215724285Y-121888380D01*
X215962380Y-120888380D01*
X216248095Y-120888380D02*
X216867142Y-120888380D01*
X216533809Y-121269333D01*
X216676666Y-121269333D01*
X216771904Y-121316952D01*
X216819523Y-121364571D01*
X216867142Y-121459809D01*
X216867142Y-121697904D01*
X216819523Y-121793142D01*
X216771904Y-121840761D01*
X216676666Y-121888380D01*
X216390952Y-121888380D01*
X216295714Y-121840761D01*
X216248095Y-121793142D01*
X217724285Y-120888380D02*
X217533809Y-120888380D01*
X217438571Y-120936000D01*
X217390952Y-120983619D01*
X217295714Y-121126476D01*
X217248095Y-121316952D01*
X217248095Y-121697904D01*
X217295714Y-121793142D01*
X217343333Y-121840761D01*
X217438571Y-121888380D01*
X217629047Y-121888380D01*
X217724285Y-121840761D01*
X217771904Y-121793142D01*
X217819523Y-121697904D01*
X217819523Y-121459809D01*
X217771904Y-121364571D01*
X217724285Y-121316952D01*
X217629047Y-121269333D01*
X217438571Y-121269333D01*
X217343333Y-121316952D01*
X217295714Y-121364571D01*
X217248095Y-121459809D01*
G04 #@! TO.C,SW44*
X99900476Y-140890761D02*
X100043333Y-140938380D01*
X100281428Y-140938380D01*
X100376666Y-140890761D01*
X100424285Y-140843142D01*
X100471904Y-140747904D01*
X100471904Y-140652666D01*
X100424285Y-140557428D01*
X100376666Y-140509809D01*
X100281428Y-140462190D01*
X100090952Y-140414571D01*
X99995714Y-140366952D01*
X99948095Y-140319333D01*
X99900476Y-140224095D01*
X99900476Y-140128857D01*
X99948095Y-140033619D01*
X99995714Y-139986000D01*
X100090952Y-139938380D01*
X100329047Y-139938380D01*
X100471904Y-139986000D01*
X100805238Y-139938380D02*
X101043333Y-140938380D01*
X101233809Y-140224095D01*
X101424285Y-140938380D01*
X101662380Y-139938380D01*
X102471904Y-140271714D02*
X102471904Y-140938380D01*
X102233809Y-139890761D02*
X101995714Y-140605047D01*
X102614761Y-140605047D01*
X103424285Y-140271714D02*
X103424285Y-140938380D01*
X103186190Y-139890761D02*
X102948095Y-140605047D01*
X103567142Y-140605047D01*
G04 #@! TO.C,SW33*
X157050476Y-121840761D02*
X157193333Y-121888380D01*
X157431428Y-121888380D01*
X157526666Y-121840761D01*
X157574285Y-121793142D01*
X157621904Y-121697904D01*
X157621904Y-121602666D01*
X157574285Y-121507428D01*
X157526666Y-121459809D01*
X157431428Y-121412190D01*
X157240952Y-121364571D01*
X157145714Y-121316952D01*
X157098095Y-121269333D01*
X157050476Y-121174095D01*
X157050476Y-121078857D01*
X157098095Y-120983619D01*
X157145714Y-120936000D01*
X157240952Y-120888380D01*
X157479047Y-120888380D01*
X157621904Y-120936000D01*
X157955238Y-120888380D02*
X158193333Y-121888380D01*
X158383809Y-121174095D01*
X158574285Y-121888380D01*
X158812380Y-120888380D01*
X159098095Y-120888380D02*
X159717142Y-120888380D01*
X159383809Y-121269333D01*
X159526666Y-121269333D01*
X159621904Y-121316952D01*
X159669523Y-121364571D01*
X159717142Y-121459809D01*
X159717142Y-121697904D01*
X159669523Y-121793142D01*
X159621904Y-121840761D01*
X159526666Y-121888380D01*
X159240952Y-121888380D01*
X159145714Y-121840761D01*
X159098095Y-121793142D01*
X160050476Y-120888380D02*
X160669523Y-120888380D01*
X160336190Y-121269333D01*
X160479047Y-121269333D01*
X160574285Y-121316952D01*
X160621904Y-121364571D01*
X160669523Y-121459809D01*
X160669523Y-121697904D01*
X160621904Y-121793142D01*
X160574285Y-121840761D01*
X160479047Y-121888380D01*
X160193333Y-121888380D01*
X160098095Y-121840761D01*
X160050476Y-121793142D01*
G04 #@! TO.C,SW32*
X138000476Y-121840761D02*
X138143333Y-121888380D01*
X138381428Y-121888380D01*
X138476666Y-121840761D01*
X138524285Y-121793142D01*
X138571904Y-121697904D01*
X138571904Y-121602666D01*
X138524285Y-121507428D01*
X138476666Y-121459809D01*
X138381428Y-121412190D01*
X138190952Y-121364571D01*
X138095714Y-121316952D01*
X138048095Y-121269333D01*
X138000476Y-121174095D01*
X138000476Y-121078857D01*
X138048095Y-120983619D01*
X138095714Y-120936000D01*
X138190952Y-120888380D01*
X138429047Y-120888380D01*
X138571904Y-120936000D01*
X138905238Y-120888380D02*
X139143333Y-121888380D01*
X139333809Y-121174095D01*
X139524285Y-121888380D01*
X139762380Y-120888380D01*
X140048095Y-120888380D02*
X140667142Y-120888380D01*
X140333809Y-121269333D01*
X140476666Y-121269333D01*
X140571904Y-121316952D01*
X140619523Y-121364571D01*
X140667142Y-121459809D01*
X140667142Y-121697904D01*
X140619523Y-121793142D01*
X140571904Y-121840761D01*
X140476666Y-121888380D01*
X140190952Y-121888380D01*
X140095714Y-121840761D01*
X140048095Y-121793142D01*
X141048095Y-120983619D02*
X141095714Y-120936000D01*
X141190952Y-120888380D01*
X141429047Y-120888380D01*
X141524285Y-120936000D01*
X141571904Y-120983619D01*
X141619523Y-121078857D01*
X141619523Y-121174095D01*
X141571904Y-121316952D01*
X141000476Y-121888380D01*
X141619523Y-121888380D01*
G04 #@! TO.C,SW31*
X118950476Y-121840761D02*
X119093333Y-121888380D01*
X119331428Y-121888380D01*
X119426666Y-121840761D01*
X119474285Y-121793142D01*
X119521904Y-121697904D01*
X119521904Y-121602666D01*
X119474285Y-121507428D01*
X119426666Y-121459809D01*
X119331428Y-121412190D01*
X119140952Y-121364571D01*
X119045714Y-121316952D01*
X118998095Y-121269333D01*
X118950476Y-121174095D01*
X118950476Y-121078857D01*
X118998095Y-120983619D01*
X119045714Y-120936000D01*
X119140952Y-120888380D01*
X119379047Y-120888380D01*
X119521904Y-120936000D01*
X119855238Y-120888380D02*
X120093333Y-121888380D01*
X120283809Y-121174095D01*
X120474285Y-121888380D01*
X120712380Y-120888380D01*
X120998095Y-120888380D02*
X121617142Y-120888380D01*
X121283809Y-121269333D01*
X121426666Y-121269333D01*
X121521904Y-121316952D01*
X121569523Y-121364571D01*
X121617142Y-121459809D01*
X121617142Y-121697904D01*
X121569523Y-121793142D01*
X121521904Y-121840761D01*
X121426666Y-121888380D01*
X121140952Y-121888380D01*
X121045714Y-121840761D01*
X120998095Y-121793142D01*
X122569523Y-121888380D02*
X121998095Y-121888380D01*
X122283809Y-121888380D02*
X122283809Y-120888380D01*
X122188571Y-121031238D01*
X122093333Y-121126476D01*
X121998095Y-121174095D01*
G04 #@! TO.C,SW30*
X99900476Y-121840761D02*
X100043333Y-121888380D01*
X100281428Y-121888380D01*
X100376666Y-121840761D01*
X100424285Y-121793142D01*
X100471904Y-121697904D01*
X100471904Y-121602666D01*
X100424285Y-121507428D01*
X100376666Y-121459809D01*
X100281428Y-121412190D01*
X100090952Y-121364571D01*
X99995714Y-121316952D01*
X99948095Y-121269333D01*
X99900476Y-121174095D01*
X99900476Y-121078857D01*
X99948095Y-120983619D01*
X99995714Y-120936000D01*
X100090952Y-120888380D01*
X100329047Y-120888380D01*
X100471904Y-120936000D01*
X100805238Y-120888380D02*
X101043333Y-121888380D01*
X101233809Y-121174095D01*
X101424285Y-121888380D01*
X101662380Y-120888380D01*
X101948095Y-120888380D02*
X102567142Y-120888380D01*
X102233809Y-121269333D01*
X102376666Y-121269333D01*
X102471904Y-121316952D01*
X102519523Y-121364571D01*
X102567142Y-121459809D01*
X102567142Y-121697904D01*
X102519523Y-121793142D01*
X102471904Y-121840761D01*
X102376666Y-121888380D01*
X102090952Y-121888380D01*
X101995714Y-121840761D01*
X101948095Y-121793142D01*
X103186190Y-120888380D02*
X103281428Y-120888380D01*
X103376666Y-120936000D01*
X103424285Y-120983619D01*
X103471904Y-121078857D01*
X103519523Y-121269333D01*
X103519523Y-121507428D01*
X103471904Y-121697904D01*
X103424285Y-121793142D01*
X103376666Y-121840761D01*
X103281428Y-121888380D01*
X103186190Y-121888380D01*
X103090952Y-121840761D01*
X103043333Y-121793142D01*
X102995714Y-121697904D01*
X102948095Y-121507428D01*
X102948095Y-121269333D01*
X102995714Y-121078857D01*
X103043333Y-120983619D01*
X103090952Y-120936000D01*
X103186190Y-120888380D01*
G04 #@! TO.C,SW29*
X80850476Y-121840761D02*
X80993333Y-121888380D01*
X81231428Y-121888380D01*
X81326666Y-121840761D01*
X81374285Y-121793142D01*
X81421904Y-121697904D01*
X81421904Y-121602666D01*
X81374285Y-121507428D01*
X81326666Y-121459809D01*
X81231428Y-121412190D01*
X81040952Y-121364571D01*
X80945714Y-121316952D01*
X80898095Y-121269333D01*
X80850476Y-121174095D01*
X80850476Y-121078857D01*
X80898095Y-120983619D01*
X80945714Y-120936000D01*
X81040952Y-120888380D01*
X81279047Y-120888380D01*
X81421904Y-120936000D01*
X81755238Y-120888380D02*
X81993333Y-121888380D01*
X82183809Y-121174095D01*
X82374285Y-121888380D01*
X82612380Y-120888380D01*
X82945714Y-120983619D02*
X82993333Y-120936000D01*
X83088571Y-120888380D01*
X83326666Y-120888380D01*
X83421904Y-120936000D01*
X83469523Y-120983619D01*
X83517142Y-121078857D01*
X83517142Y-121174095D01*
X83469523Y-121316952D01*
X82898095Y-121888380D01*
X83517142Y-121888380D01*
X83993333Y-121888380D02*
X84183809Y-121888380D01*
X84279047Y-121840761D01*
X84326666Y-121793142D01*
X84421904Y-121650285D01*
X84469523Y-121459809D01*
X84469523Y-121078857D01*
X84421904Y-120983619D01*
X84374285Y-120936000D01*
X84279047Y-120888380D01*
X84088571Y-120888380D01*
X83993333Y-120936000D01*
X83945714Y-120983619D01*
X83898095Y-121078857D01*
X83898095Y-121316952D01*
X83945714Y-121412190D01*
X83993333Y-121459809D01*
X84088571Y-121507428D01*
X84279047Y-121507428D01*
X84374285Y-121459809D01*
X84421904Y-121412190D01*
X84469523Y-121316952D01*
G04 #@! TO.C,SW28*
X328500476Y-102790761D02*
X328643333Y-102838380D01*
X328881428Y-102838380D01*
X328976666Y-102790761D01*
X329024285Y-102743142D01*
X329071904Y-102647904D01*
X329071904Y-102552666D01*
X329024285Y-102457428D01*
X328976666Y-102409809D01*
X328881428Y-102362190D01*
X328690952Y-102314571D01*
X328595714Y-102266952D01*
X328548095Y-102219333D01*
X328500476Y-102124095D01*
X328500476Y-102028857D01*
X328548095Y-101933619D01*
X328595714Y-101886000D01*
X328690952Y-101838380D01*
X328929047Y-101838380D01*
X329071904Y-101886000D01*
X329405238Y-101838380D02*
X329643333Y-102838380D01*
X329833809Y-102124095D01*
X330024285Y-102838380D01*
X330262380Y-101838380D01*
X330595714Y-101933619D02*
X330643333Y-101886000D01*
X330738571Y-101838380D01*
X330976666Y-101838380D01*
X331071904Y-101886000D01*
X331119523Y-101933619D01*
X331167142Y-102028857D01*
X331167142Y-102124095D01*
X331119523Y-102266952D01*
X330548095Y-102838380D01*
X331167142Y-102838380D01*
X331738571Y-102266952D02*
X331643333Y-102219333D01*
X331595714Y-102171714D01*
X331548095Y-102076476D01*
X331548095Y-102028857D01*
X331595714Y-101933619D01*
X331643333Y-101886000D01*
X331738571Y-101838380D01*
X331929047Y-101838380D01*
X332024285Y-101886000D01*
X332071904Y-101933619D01*
X332119523Y-102028857D01*
X332119523Y-102076476D01*
X332071904Y-102171714D01*
X332024285Y-102219333D01*
X331929047Y-102266952D01*
X331738571Y-102266952D01*
X331643333Y-102314571D01*
X331595714Y-102362190D01*
X331548095Y-102457428D01*
X331548095Y-102647904D01*
X331595714Y-102743142D01*
X331643333Y-102790761D01*
X331738571Y-102838380D01*
X331929047Y-102838380D01*
X332024285Y-102790761D01*
X332071904Y-102743142D01*
X332119523Y-102647904D01*
X332119523Y-102457428D01*
X332071904Y-102362190D01*
X332024285Y-102314571D01*
X331929047Y-102266952D01*
G04 #@! TO.C,SW27*
X309450476Y-102790761D02*
X309593333Y-102838380D01*
X309831428Y-102838380D01*
X309926666Y-102790761D01*
X309974285Y-102743142D01*
X310021904Y-102647904D01*
X310021904Y-102552666D01*
X309974285Y-102457428D01*
X309926666Y-102409809D01*
X309831428Y-102362190D01*
X309640952Y-102314571D01*
X309545714Y-102266952D01*
X309498095Y-102219333D01*
X309450476Y-102124095D01*
X309450476Y-102028857D01*
X309498095Y-101933619D01*
X309545714Y-101886000D01*
X309640952Y-101838380D01*
X309879047Y-101838380D01*
X310021904Y-101886000D01*
X310355238Y-101838380D02*
X310593333Y-102838380D01*
X310783809Y-102124095D01*
X310974285Y-102838380D01*
X311212380Y-101838380D01*
X311545714Y-101933619D02*
X311593333Y-101886000D01*
X311688571Y-101838380D01*
X311926666Y-101838380D01*
X312021904Y-101886000D01*
X312069523Y-101933619D01*
X312117142Y-102028857D01*
X312117142Y-102124095D01*
X312069523Y-102266952D01*
X311498095Y-102838380D01*
X312117142Y-102838380D01*
X312450476Y-101838380D02*
X313117142Y-101838380D01*
X312688571Y-102838380D01*
G04 #@! TO.C,SW25*
X271350476Y-102790761D02*
X271493333Y-102838380D01*
X271731428Y-102838380D01*
X271826666Y-102790761D01*
X271874285Y-102743142D01*
X271921904Y-102647904D01*
X271921904Y-102552666D01*
X271874285Y-102457428D01*
X271826666Y-102409809D01*
X271731428Y-102362190D01*
X271540952Y-102314571D01*
X271445714Y-102266952D01*
X271398095Y-102219333D01*
X271350476Y-102124095D01*
X271350476Y-102028857D01*
X271398095Y-101933619D01*
X271445714Y-101886000D01*
X271540952Y-101838380D01*
X271779047Y-101838380D01*
X271921904Y-101886000D01*
X272255238Y-101838380D02*
X272493333Y-102838380D01*
X272683809Y-102124095D01*
X272874285Y-102838380D01*
X273112380Y-101838380D01*
X273445714Y-101933619D02*
X273493333Y-101886000D01*
X273588571Y-101838380D01*
X273826666Y-101838380D01*
X273921904Y-101886000D01*
X273969523Y-101933619D01*
X274017142Y-102028857D01*
X274017142Y-102124095D01*
X273969523Y-102266952D01*
X273398095Y-102838380D01*
X274017142Y-102838380D01*
X274921904Y-101838380D02*
X274445714Y-101838380D01*
X274398095Y-102314571D01*
X274445714Y-102266952D01*
X274540952Y-102219333D01*
X274779047Y-102219333D01*
X274874285Y-102266952D01*
X274921904Y-102314571D01*
X274969523Y-102409809D01*
X274969523Y-102647904D01*
X274921904Y-102743142D01*
X274874285Y-102790761D01*
X274779047Y-102838380D01*
X274540952Y-102838380D01*
X274445714Y-102790761D01*
X274398095Y-102743142D01*
G04 #@! TO.C,SW34*
X176100476Y-121840761D02*
X176243333Y-121888380D01*
X176481428Y-121888380D01*
X176576666Y-121840761D01*
X176624285Y-121793142D01*
X176671904Y-121697904D01*
X176671904Y-121602666D01*
X176624285Y-121507428D01*
X176576666Y-121459809D01*
X176481428Y-121412190D01*
X176290952Y-121364571D01*
X176195714Y-121316952D01*
X176148095Y-121269333D01*
X176100476Y-121174095D01*
X176100476Y-121078857D01*
X176148095Y-120983619D01*
X176195714Y-120936000D01*
X176290952Y-120888380D01*
X176529047Y-120888380D01*
X176671904Y-120936000D01*
X177005238Y-120888380D02*
X177243333Y-121888380D01*
X177433809Y-121174095D01*
X177624285Y-121888380D01*
X177862380Y-120888380D01*
X178148095Y-120888380D02*
X178767142Y-120888380D01*
X178433809Y-121269333D01*
X178576666Y-121269333D01*
X178671904Y-121316952D01*
X178719523Y-121364571D01*
X178767142Y-121459809D01*
X178767142Y-121697904D01*
X178719523Y-121793142D01*
X178671904Y-121840761D01*
X178576666Y-121888380D01*
X178290952Y-121888380D01*
X178195714Y-121840761D01*
X178148095Y-121793142D01*
X179624285Y-121221714D02*
X179624285Y-121888380D01*
X179386190Y-120840761D02*
X179148095Y-121555047D01*
X179767142Y-121555047D01*
G04 #@! TO.C,SW24*
X252300476Y-102790761D02*
X252443333Y-102838380D01*
X252681428Y-102838380D01*
X252776666Y-102790761D01*
X252824285Y-102743142D01*
X252871904Y-102647904D01*
X252871904Y-102552666D01*
X252824285Y-102457428D01*
X252776666Y-102409809D01*
X252681428Y-102362190D01*
X252490952Y-102314571D01*
X252395714Y-102266952D01*
X252348095Y-102219333D01*
X252300476Y-102124095D01*
X252300476Y-102028857D01*
X252348095Y-101933619D01*
X252395714Y-101886000D01*
X252490952Y-101838380D01*
X252729047Y-101838380D01*
X252871904Y-101886000D01*
X253205238Y-101838380D02*
X253443333Y-102838380D01*
X253633809Y-102124095D01*
X253824285Y-102838380D01*
X254062380Y-101838380D01*
X254395714Y-101933619D02*
X254443333Y-101886000D01*
X254538571Y-101838380D01*
X254776666Y-101838380D01*
X254871904Y-101886000D01*
X254919523Y-101933619D01*
X254967142Y-102028857D01*
X254967142Y-102124095D01*
X254919523Y-102266952D01*
X254348095Y-102838380D01*
X254967142Y-102838380D01*
X255824285Y-102171714D02*
X255824285Y-102838380D01*
X255586190Y-101790761D02*
X255348095Y-102505047D01*
X255967142Y-102505047D01*
G04 #@! TO.C,SW23*
X233250476Y-102790761D02*
X233393333Y-102838380D01*
X233631428Y-102838380D01*
X233726666Y-102790761D01*
X233774285Y-102743142D01*
X233821904Y-102647904D01*
X233821904Y-102552666D01*
X233774285Y-102457428D01*
X233726666Y-102409809D01*
X233631428Y-102362190D01*
X233440952Y-102314571D01*
X233345714Y-102266952D01*
X233298095Y-102219333D01*
X233250476Y-102124095D01*
X233250476Y-102028857D01*
X233298095Y-101933619D01*
X233345714Y-101886000D01*
X233440952Y-101838380D01*
X233679047Y-101838380D01*
X233821904Y-101886000D01*
X234155238Y-101838380D02*
X234393333Y-102838380D01*
X234583809Y-102124095D01*
X234774285Y-102838380D01*
X235012380Y-101838380D01*
X235345714Y-101933619D02*
X235393333Y-101886000D01*
X235488571Y-101838380D01*
X235726666Y-101838380D01*
X235821904Y-101886000D01*
X235869523Y-101933619D01*
X235917142Y-102028857D01*
X235917142Y-102124095D01*
X235869523Y-102266952D01*
X235298095Y-102838380D01*
X235917142Y-102838380D01*
X236250476Y-101838380D02*
X236869523Y-101838380D01*
X236536190Y-102219333D01*
X236679047Y-102219333D01*
X236774285Y-102266952D01*
X236821904Y-102314571D01*
X236869523Y-102409809D01*
X236869523Y-102647904D01*
X236821904Y-102743142D01*
X236774285Y-102790761D01*
X236679047Y-102838380D01*
X236393333Y-102838380D01*
X236298095Y-102790761D01*
X236250476Y-102743142D01*
G04 #@! TO.C,SW22*
X214200476Y-102790761D02*
X214343333Y-102838380D01*
X214581428Y-102838380D01*
X214676666Y-102790761D01*
X214724285Y-102743142D01*
X214771904Y-102647904D01*
X214771904Y-102552666D01*
X214724285Y-102457428D01*
X214676666Y-102409809D01*
X214581428Y-102362190D01*
X214390952Y-102314571D01*
X214295714Y-102266952D01*
X214248095Y-102219333D01*
X214200476Y-102124095D01*
X214200476Y-102028857D01*
X214248095Y-101933619D01*
X214295714Y-101886000D01*
X214390952Y-101838380D01*
X214629047Y-101838380D01*
X214771904Y-101886000D01*
X215105238Y-101838380D02*
X215343333Y-102838380D01*
X215533809Y-102124095D01*
X215724285Y-102838380D01*
X215962380Y-101838380D01*
X216295714Y-101933619D02*
X216343333Y-101886000D01*
X216438571Y-101838380D01*
X216676666Y-101838380D01*
X216771904Y-101886000D01*
X216819523Y-101933619D01*
X216867142Y-102028857D01*
X216867142Y-102124095D01*
X216819523Y-102266952D01*
X216248095Y-102838380D01*
X216867142Y-102838380D01*
X217248095Y-101933619D02*
X217295714Y-101886000D01*
X217390952Y-101838380D01*
X217629047Y-101838380D01*
X217724285Y-101886000D01*
X217771904Y-101933619D01*
X217819523Y-102028857D01*
X217819523Y-102124095D01*
X217771904Y-102266952D01*
X217200476Y-102838380D01*
X217819523Y-102838380D01*
G04 #@! TO.C,SW21*
X195150476Y-102790761D02*
X195293333Y-102838380D01*
X195531428Y-102838380D01*
X195626666Y-102790761D01*
X195674285Y-102743142D01*
X195721904Y-102647904D01*
X195721904Y-102552666D01*
X195674285Y-102457428D01*
X195626666Y-102409809D01*
X195531428Y-102362190D01*
X195340952Y-102314571D01*
X195245714Y-102266952D01*
X195198095Y-102219333D01*
X195150476Y-102124095D01*
X195150476Y-102028857D01*
X195198095Y-101933619D01*
X195245714Y-101886000D01*
X195340952Y-101838380D01*
X195579047Y-101838380D01*
X195721904Y-101886000D01*
X196055238Y-101838380D02*
X196293333Y-102838380D01*
X196483809Y-102124095D01*
X196674285Y-102838380D01*
X196912380Y-101838380D01*
X197245714Y-101933619D02*
X197293333Y-101886000D01*
X197388571Y-101838380D01*
X197626666Y-101838380D01*
X197721904Y-101886000D01*
X197769523Y-101933619D01*
X197817142Y-102028857D01*
X197817142Y-102124095D01*
X197769523Y-102266952D01*
X197198095Y-102838380D01*
X197817142Y-102838380D01*
X198769523Y-102838380D02*
X198198095Y-102838380D01*
X198483809Y-102838380D02*
X198483809Y-101838380D01*
X198388571Y-101981238D01*
X198293333Y-102076476D01*
X198198095Y-102124095D01*
G04 #@! TO.C,SW20*
X176100476Y-102790761D02*
X176243333Y-102838380D01*
X176481428Y-102838380D01*
X176576666Y-102790761D01*
X176624285Y-102743142D01*
X176671904Y-102647904D01*
X176671904Y-102552666D01*
X176624285Y-102457428D01*
X176576666Y-102409809D01*
X176481428Y-102362190D01*
X176290952Y-102314571D01*
X176195714Y-102266952D01*
X176148095Y-102219333D01*
X176100476Y-102124095D01*
X176100476Y-102028857D01*
X176148095Y-101933619D01*
X176195714Y-101886000D01*
X176290952Y-101838380D01*
X176529047Y-101838380D01*
X176671904Y-101886000D01*
X177005238Y-101838380D02*
X177243333Y-102838380D01*
X177433809Y-102124095D01*
X177624285Y-102838380D01*
X177862380Y-101838380D01*
X178195714Y-101933619D02*
X178243333Y-101886000D01*
X178338571Y-101838380D01*
X178576666Y-101838380D01*
X178671904Y-101886000D01*
X178719523Y-101933619D01*
X178767142Y-102028857D01*
X178767142Y-102124095D01*
X178719523Y-102266952D01*
X178148095Y-102838380D01*
X178767142Y-102838380D01*
X179386190Y-101838380D02*
X179481428Y-101838380D01*
X179576666Y-101886000D01*
X179624285Y-101933619D01*
X179671904Y-102028857D01*
X179719523Y-102219333D01*
X179719523Y-102457428D01*
X179671904Y-102647904D01*
X179624285Y-102743142D01*
X179576666Y-102790761D01*
X179481428Y-102838380D01*
X179386190Y-102838380D01*
X179290952Y-102790761D01*
X179243333Y-102743142D01*
X179195714Y-102647904D01*
X179148095Y-102457428D01*
X179148095Y-102219333D01*
X179195714Y-102028857D01*
X179243333Y-101933619D01*
X179290952Y-101886000D01*
X179386190Y-101838380D01*
G04 #@! TO.C,SW19*
X157050476Y-102790761D02*
X157193333Y-102838380D01*
X157431428Y-102838380D01*
X157526666Y-102790761D01*
X157574285Y-102743142D01*
X157621904Y-102647904D01*
X157621904Y-102552666D01*
X157574285Y-102457428D01*
X157526666Y-102409809D01*
X157431428Y-102362190D01*
X157240952Y-102314571D01*
X157145714Y-102266952D01*
X157098095Y-102219333D01*
X157050476Y-102124095D01*
X157050476Y-102028857D01*
X157098095Y-101933619D01*
X157145714Y-101886000D01*
X157240952Y-101838380D01*
X157479047Y-101838380D01*
X157621904Y-101886000D01*
X157955238Y-101838380D02*
X158193333Y-102838380D01*
X158383809Y-102124095D01*
X158574285Y-102838380D01*
X158812380Y-101838380D01*
X159717142Y-102838380D02*
X159145714Y-102838380D01*
X159431428Y-102838380D02*
X159431428Y-101838380D01*
X159336190Y-101981238D01*
X159240952Y-102076476D01*
X159145714Y-102124095D01*
X160193333Y-102838380D02*
X160383809Y-102838380D01*
X160479047Y-102790761D01*
X160526666Y-102743142D01*
X160621904Y-102600285D01*
X160669523Y-102409809D01*
X160669523Y-102028857D01*
X160621904Y-101933619D01*
X160574285Y-101886000D01*
X160479047Y-101838380D01*
X160288571Y-101838380D01*
X160193333Y-101886000D01*
X160145714Y-101933619D01*
X160098095Y-102028857D01*
X160098095Y-102266952D01*
X160145714Y-102362190D01*
X160193333Y-102409809D01*
X160288571Y-102457428D01*
X160479047Y-102457428D01*
X160574285Y-102409809D01*
X160621904Y-102362190D01*
X160669523Y-102266952D01*
G04 #@! TO.C,SW18*
X138000476Y-102790761D02*
X138143333Y-102838380D01*
X138381428Y-102838380D01*
X138476666Y-102790761D01*
X138524285Y-102743142D01*
X138571904Y-102647904D01*
X138571904Y-102552666D01*
X138524285Y-102457428D01*
X138476666Y-102409809D01*
X138381428Y-102362190D01*
X138190952Y-102314571D01*
X138095714Y-102266952D01*
X138048095Y-102219333D01*
X138000476Y-102124095D01*
X138000476Y-102028857D01*
X138048095Y-101933619D01*
X138095714Y-101886000D01*
X138190952Y-101838380D01*
X138429047Y-101838380D01*
X138571904Y-101886000D01*
X138905238Y-101838380D02*
X139143333Y-102838380D01*
X139333809Y-102124095D01*
X139524285Y-102838380D01*
X139762380Y-101838380D01*
X140667142Y-102838380D02*
X140095714Y-102838380D01*
X140381428Y-102838380D02*
X140381428Y-101838380D01*
X140286190Y-101981238D01*
X140190952Y-102076476D01*
X140095714Y-102124095D01*
X141238571Y-102266952D02*
X141143333Y-102219333D01*
X141095714Y-102171714D01*
X141048095Y-102076476D01*
X141048095Y-102028857D01*
X141095714Y-101933619D01*
X141143333Y-101886000D01*
X141238571Y-101838380D01*
X141429047Y-101838380D01*
X141524285Y-101886000D01*
X141571904Y-101933619D01*
X141619523Y-102028857D01*
X141619523Y-102076476D01*
X141571904Y-102171714D01*
X141524285Y-102219333D01*
X141429047Y-102266952D01*
X141238571Y-102266952D01*
X141143333Y-102314571D01*
X141095714Y-102362190D01*
X141048095Y-102457428D01*
X141048095Y-102647904D01*
X141095714Y-102743142D01*
X141143333Y-102790761D01*
X141238571Y-102838380D01*
X141429047Y-102838380D01*
X141524285Y-102790761D01*
X141571904Y-102743142D01*
X141619523Y-102647904D01*
X141619523Y-102457428D01*
X141571904Y-102362190D01*
X141524285Y-102314571D01*
X141429047Y-102266952D01*
G04 #@! TO.C,SW26*
X290400476Y-102790761D02*
X290543333Y-102838380D01*
X290781428Y-102838380D01*
X290876666Y-102790761D01*
X290924285Y-102743142D01*
X290971904Y-102647904D01*
X290971904Y-102552666D01*
X290924285Y-102457428D01*
X290876666Y-102409809D01*
X290781428Y-102362190D01*
X290590952Y-102314571D01*
X290495714Y-102266952D01*
X290448095Y-102219333D01*
X290400476Y-102124095D01*
X290400476Y-102028857D01*
X290448095Y-101933619D01*
X290495714Y-101886000D01*
X290590952Y-101838380D01*
X290829047Y-101838380D01*
X290971904Y-101886000D01*
X291305238Y-101838380D02*
X291543333Y-102838380D01*
X291733809Y-102124095D01*
X291924285Y-102838380D01*
X292162380Y-101838380D01*
X292495714Y-101933619D02*
X292543333Y-101886000D01*
X292638571Y-101838380D01*
X292876666Y-101838380D01*
X292971904Y-101886000D01*
X293019523Y-101933619D01*
X293067142Y-102028857D01*
X293067142Y-102124095D01*
X293019523Y-102266952D01*
X292448095Y-102838380D01*
X293067142Y-102838380D01*
X293924285Y-101838380D02*
X293733809Y-101838380D01*
X293638571Y-101886000D01*
X293590952Y-101933619D01*
X293495714Y-102076476D01*
X293448095Y-102266952D01*
X293448095Y-102647904D01*
X293495714Y-102743142D01*
X293543333Y-102790761D01*
X293638571Y-102838380D01*
X293829047Y-102838380D01*
X293924285Y-102790761D01*
X293971904Y-102743142D01*
X294019523Y-102647904D01*
X294019523Y-102409809D01*
X293971904Y-102314571D01*
X293924285Y-102266952D01*
X293829047Y-102219333D01*
X293638571Y-102219333D01*
X293543333Y-102266952D01*
X293495714Y-102314571D01*
X293448095Y-102409809D01*
G04 #@! TO.C,SW8*
X214676666Y-83740761D02*
X214819523Y-83788380D01*
X215057619Y-83788380D01*
X215152857Y-83740761D01*
X215200476Y-83693142D01*
X215248095Y-83597904D01*
X215248095Y-83502666D01*
X215200476Y-83407428D01*
X215152857Y-83359809D01*
X215057619Y-83312190D01*
X214867142Y-83264571D01*
X214771904Y-83216952D01*
X214724285Y-83169333D01*
X214676666Y-83074095D01*
X214676666Y-82978857D01*
X214724285Y-82883619D01*
X214771904Y-82836000D01*
X214867142Y-82788380D01*
X215105238Y-82788380D01*
X215248095Y-82836000D01*
X215581428Y-82788380D02*
X215819523Y-83788380D01*
X216010000Y-83074095D01*
X216200476Y-83788380D01*
X216438571Y-82788380D01*
X216962380Y-83216952D02*
X216867142Y-83169333D01*
X216819523Y-83121714D01*
X216771904Y-83026476D01*
X216771904Y-82978857D01*
X216819523Y-82883619D01*
X216867142Y-82836000D01*
X216962380Y-82788380D01*
X217152857Y-82788380D01*
X217248095Y-82836000D01*
X217295714Y-82883619D01*
X217343333Y-82978857D01*
X217343333Y-83026476D01*
X217295714Y-83121714D01*
X217248095Y-83169333D01*
X217152857Y-83216952D01*
X216962380Y-83216952D01*
X216867142Y-83264571D01*
X216819523Y-83312190D01*
X216771904Y-83407428D01*
X216771904Y-83597904D01*
X216819523Y-83693142D01*
X216867142Y-83740761D01*
X216962380Y-83788380D01*
X217152857Y-83788380D01*
X217248095Y-83740761D01*
X217295714Y-83693142D01*
X217343333Y-83597904D01*
X217343333Y-83407428D01*
X217295714Y-83312190D01*
X217248095Y-83264571D01*
X217152857Y-83216952D01*
G04 #@! TO.C,SW16*
X99900476Y-102790761D02*
X100043333Y-102838380D01*
X100281428Y-102838380D01*
X100376666Y-102790761D01*
X100424285Y-102743142D01*
X100471904Y-102647904D01*
X100471904Y-102552666D01*
X100424285Y-102457428D01*
X100376666Y-102409809D01*
X100281428Y-102362190D01*
X100090952Y-102314571D01*
X99995714Y-102266952D01*
X99948095Y-102219333D01*
X99900476Y-102124095D01*
X99900476Y-102028857D01*
X99948095Y-101933619D01*
X99995714Y-101886000D01*
X100090952Y-101838380D01*
X100329047Y-101838380D01*
X100471904Y-101886000D01*
X100805238Y-101838380D02*
X101043333Y-102838380D01*
X101233809Y-102124095D01*
X101424285Y-102838380D01*
X101662380Y-101838380D01*
X102567142Y-102838380D02*
X101995714Y-102838380D01*
X102281428Y-102838380D02*
X102281428Y-101838380D01*
X102186190Y-101981238D01*
X102090952Y-102076476D01*
X101995714Y-102124095D01*
X103424285Y-101838380D02*
X103233809Y-101838380D01*
X103138571Y-101886000D01*
X103090952Y-101933619D01*
X102995714Y-102076476D01*
X102948095Y-102266952D01*
X102948095Y-102647904D01*
X102995714Y-102743142D01*
X103043333Y-102790761D01*
X103138571Y-102838380D01*
X103329047Y-102838380D01*
X103424285Y-102790761D01*
X103471904Y-102743142D01*
X103519523Y-102647904D01*
X103519523Y-102409809D01*
X103471904Y-102314571D01*
X103424285Y-102266952D01*
X103329047Y-102219333D01*
X103138571Y-102219333D01*
X103043333Y-102266952D01*
X102995714Y-102314571D01*
X102948095Y-102409809D01*
G04 #@! TO.C,SW15*
X80850476Y-102790761D02*
X80993333Y-102838380D01*
X81231428Y-102838380D01*
X81326666Y-102790761D01*
X81374285Y-102743142D01*
X81421904Y-102647904D01*
X81421904Y-102552666D01*
X81374285Y-102457428D01*
X81326666Y-102409809D01*
X81231428Y-102362190D01*
X81040952Y-102314571D01*
X80945714Y-102266952D01*
X80898095Y-102219333D01*
X80850476Y-102124095D01*
X80850476Y-102028857D01*
X80898095Y-101933619D01*
X80945714Y-101886000D01*
X81040952Y-101838380D01*
X81279047Y-101838380D01*
X81421904Y-101886000D01*
X81755238Y-101838380D02*
X81993333Y-102838380D01*
X82183809Y-102124095D01*
X82374285Y-102838380D01*
X82612380Y-101838380D01*
X83517142Y-102838380D02*
X82945714Y-102838380D01*
X83231428Y-102838380D02*
X83231428Y-101838380D01*
X83136190Y-101981238D01*
X83040952Y-102076476D01*
X82945714Y-102124095D01*
X84421904Y-101838380D02*
X83945714Y-101838380D01*
X83898095Y-102314571D01*
X83945714Y-102266952D01*
X84040952Y-102219333D01*
X84279047Y-102219333D01*
X84374285Y-102266952D01*
X84421904Y-102314571D01*
X84469523Y-102409809D01*
X84469523Y-102647904D01*
X84421904Y-102743142D01*
X84374285Y-102790761D01*
X84279047Y-102838380D01*
X84040952Y-102838380D01*
X83945714Y-102790761D01*
X83898095Y-102743142D01*
G04 #@! TO.C,SW14*
X328500476Y-83740761D02*
X328643333Y-83788380D01*
X328881428Y-83788380D01*
X328976666Y-83740761D01*
X329024285Y-83693142D01*
X329071904Y-83597904D01*
X329071904Y-83502666D01*
X329024285Y-83407428D01*
X328976666Y-83359809D01*
X328881428Y-83312190D01*
X328690952Y-83264571D01*
X328595714Y-83216952D01*
X328548095Y-83169333D01*
X328500476Y-83074095D01*
X328500476Y-82978857D01*
X328548095Y-82883619D01*
X328595714Y-82836000D01*
X328690952Y-82788380D01*
X328929047Y-82788380D01*
X329071904Y-82836000D01*
X329405238Y-82788380D02*
X329643333Y-83788380D01*
X329833809Y-83074095D01*
X330024285Y-83788380D01*
X330262380Y-82788380D01*
X331167142Y-83788380D02*
X330595714Y-83788380D01*
X330881428Y-83788380D02*
X330881428Y-82788380D01*
X330786190Y-82931238D01*
X330690952Y-83026476D01*
X330595714Y-83074095D01*
X332024285Y-83121714D02*
X332024285Y-83788380D01*
X331786190Y-82740761D02*
X331548095Y-83455047D01*
X332167142Y-83455047D01*
G04 #@! TO.C,SW13*
X309450476Y-83740761D02*
X309593333Y-83788380D01*
X309831428Y-83788380D01*
X309926666Y-83740761D01*
X309974285Y-83693142D01*
X310021904Y-83597904D01*
X310021904Y-83502666D01*
X309974285Y-83407428D01*
X309926666Y-83359809D01*
X309831428Y-83312190D01*
X309640952Y-83264571D01*
X309545714Y-83216952D01*
X309498095Y-83169333D01*
X309450476Y-83074095D01*
X309450476Y-82978857D01*
X309498095Y-82883619D01*
X309545714Y-82836000D01*
X309640952Y-82788380D01*
X309879047Y-82788380D01*
X310021904Y-82836000D01*
X310355238Y-82788380D02*
X310593333Y-83788380D01*
X310783809Y-83074095D01*
X310974285Y-83788380D01*
X311212380Y-82788380D01*
X312117142Y-83788380D02*
X311545714Y-83788380D01*
X311831428Y-83788380D02*
X311831428Y-82788380D01*
X311736190Y-82931238D01*
X311640952Y-83026476D01*
X311545714Y-83074095D01*
X312450476Y-82788380D02*
X313069523Y-82788380D01*
X312736190Y-83169333D01*
X312879047Y-83169333D01*
X312974285Y-83216952D01*
X313021904Y-83264571D01*
X313069523Y-83359809D01*
X313069523Y-83597904D01*
X313021904Y-83693142D01*
X312974285Y-83740761D01*
X312879047Y-83788380D01*
X312593333Y-83788380D01*
X312498095Y-83740761D01*
X312450476Y-83693142D01*
G04 #@! TO.C,SW12*
X290400476Y-83740761D02*
X290543333Y-83788380D01*
X290781428Y-83788380D01*
X290876666Y-83740761D01*
X290924285Y-83693142D01*
X290971904Y-83597904D01*
X290971904Y-83502666D01*
X290924285Y-83407428D01*
X290876666Y-83359809D01*
X290781428Y-83312190D01*
X290590952Y-83264571D01*
X290495714Y-83216952D01*
X290448095Y-83169333D01*
X290400476Y-83074095D01*
X290400476Y-82978857D01*
X290448095Y-82883619D01*
X290495714Y-82836000D01*
X290590952Y-82788380D01*
X290829047Y-82788380D01*
X290971904Y-82836000D01*
X291305238Y-82788380D02*
X291543333Y-83788380D01*
X291733809Y-83074095D01*
X291924285Y-83788380D01*
X292162380Y-82788380D01*
X293067142Y-83788380D02*
X292495714Y-83788380D01*
X292781428Y-83788380D02*
X292781428Y-82788380D01*
X292686190Y-82931238D01*
X292590952Y-83026476D01*
X292495714Y-83074095D01*
X293448095Y-82883619D02*
X293495714Y-82836000D01*
X293590952Y-82788380D01*
X293829047Y-82788380D01*
X293924285Y-82836000D01*
X293971904Y-82883619D01*
X294019523Y-82978857D01*
X294019523Y-83074095D01*
X293971904Y-83216952D01*
X293400476Y-83788380D01*
X294019523Y-83788380D01*
G04 #@! TO.C,SW11*
X271350476Y-83740761D02*
X271493333Y-83788380D01*
X271731428Y-83788380D01*
X271826666Y-83740761D01*
X271874285Y-83693142D01*
X271921904Y-83597904D01*
X271921904Y-83502666D01*
X271874285Y-83407428D01*
X271826666Y-83359809D01*
X271731428Y-83312190D01*
X271540952Y-83264571D01*
X271445714Y-83216952D01*
X271398095Y-83169333D01*
X271350476Y-83074095D01*
X271350476Y-82978857D01*
X271398095Y-82883619D01*
X271445714Y-82836000D01*
X271540952Y-82788380D01*
X271779047Y-82788380D01*
X271921904Y-82836000D01*
X272255238Y-82788380D02*
X272493333Y-83788380D01*
X272683809Y-83074095D01*
X272874285Y-83788380D01*
X273112380Y-82788380D01*
X274017142Y-83788380D02*
X273445714Y-83788380D01*
X273731428Y-83788380D02*
X273731428Y-82788380D01*
X273636190Y-82931238D01*
X273540952Y-83026476D01*
X273445714Y-83074095D01*
X274969523Y-83788380D02*
X274398095Y-83788380D01*
X274683809Y-83788380D02*
X274683809Y-82788380D01*
X274588571Y-82931238D01*
X274493333Y-83026476D01*
X274398095Y-83074095D01*
G04 #@! TO.C,SW10*
X252300476Y-83740761D02*
X252443333Y-83788380D01*
X252681428Y-83788380D01*
X252776666Y-83740761D01*
X252824285Y-83693142D01*
X252871904Y-83597904D01*
X252871904Y-83502666D01*
X252824285Y-83407428D01*
X252776666Y-83359809D01*
X252681428Y-83312190D01*
X252490952Y-83264571D01*
X252395714Y-83216952D01*
X252348095Y-83169333D01*
X252300476Y-83074095D01*
X252300476Y-82978857D01*
X252348095Y-82883619D01*
X252395714Y-82836000D01*
X252490952Y-82788380D01*
X252729047Y-82788380D01*
X252871904Y-82836000D01*
X253205238Y-82788380D02*
X253443333Y-83788380D01*
X253633809Y-83074095D01*
X253824285Y-83788380D01*
X254062380Y-82788380D01*
X254967142Y-83788380D02*
X254395714Y-83788380D01*
X254681428Y-83788380D02*
X254681428Y-82788380D01*
X254586190Y-82931238D01*
X254490952Y-83026476D01*
X254395714Y-83074095D01*
X255586190Y-82788380D02*
X255681428Y-82788380D01*
X255776666Y-82836000D01*
X255824285Y-82883619D01*
X255871904Y-82978857D01*
X255919523Y-83169333D01*
X255919523Y-83407428D01*
X255871904Y-83597904D01*
X255824285Y-83693142D01*
X255776666Y-83740761D01*
X255681428Y-83788380D01*
X255586190Y-83788380D01*
X255490952Y-83740761D01*
X255443333Y-83693142D01*
X255395714Y-83597904D01*
X255348095Y-83407428D01*
X255348095Y-83169333D01*
X255395714Y-82978857D01*
X255443333Y-82883619D01*
X255490952Y-82836000D01*
X255586190Y-82788380D01*
G04 #@! TO.C,SW9*
X233726666Y-83740761D02*
X233869523Y-83788380D01*
X234107619Y-83788380D01*
X234202857Y-83740761D01*
X234250476Y-83693142D01*
X234298095Y-83597904D01*
X234298095Y-83502666D01*
X234250476Y-83407428D01*
X234202857Y-83359809D01*
X234107619Y-83312190D01*
X233917142Y-83264571D01*
X233821904Y-83216952D01*
X233774285Y-83169333D01*
X233726666Y-83074095D01*
X233726666Y-82978857D01*
X233774285Y-82883619D01*
X233821904Y-82836000D01*
X233917142Y-82788380D01*
X234155238Y-82788380D01*
X234298095Y-82836000D01*
X234631428Y-82788380D02*
X234869523Y-83788380D01*
X235060000Y-83074095D01*
X235250476Y-83788380D01*
X235488571Y-82788380D01*
X235917142Y-83788380D02*
X236107619Y-83788380D01*
X236202857Y-83740761D01*
X236250476Y-83693142D01*
X236345714Y-83550285D01*
X236393333Y-83359809D01*
X236393333Y-82978857D01*
X236345714Y-82883619D01*
X236298095Y-82836000D01*
X236202857Y-82788380D01*
X236012380Y-82788380D01*
X235917142Y-82836000D01*
X235869523Y-82883619D01*
X235821904Y-82978857D01*
X235821904Y-83216952D01*
X235869523Y-83312190D01*
X235917142Y-83359809D01*
X236012380Y-83407428D01*
X236202857Y-83407428D01*
X236298095Y-83359809D01*
X236345714Y-83312190D01*
X236393333Y-83216952D01*
G04 #@! TO.C,SW17*
X118950476Y-102790761D02*
X119093333Y-102838380D01*
X119331428Y-102838380D01*
X119426666Y-102790761D01*
X119474285Y-102743142D01*
X119521904Y-102647904D01*
X119521904Y-102552666D01*
X119474285Y-102457428D01*
X119426666Y-102409809D01*
X119331428Y-102362190D01*
X119140952Y-102314571D01*
X119045714Y-102266952D01*
X118998095Y-102219333D01*
X118950476Y-102124095D01*
X118950476Y-102028857D01*
X118998095Y-101933619D01*
X119045714Y-101886000D01*
X119140952Y-101838380D01*
X119379047Y-101838380D01*
X119521904Y-101886000D01*
X119855238Y-101838380D02*
X120093333Y-102838380D01*
X120283809Y-102124095D01*
X120474285Y-102838380D01*
X120712380Y-101838380D01*
X121617142Y-102838380D02*
X121045714Y-102838380D01*
X121331428Y-102838380D02*
X121331428Y-101838380D01*
X121236190Y-101981238D01*
X121140952Y-102076476D01*
X121045714Y-102124095D01*
X121950476Y-101838380D02*
X122617142Y-101838380D01*
X122188571Y-102838380D01*
G04 #@! TO.C,SW7*
X195626666Y-83740761D02*
X195769523Y-83788380D01*
X196007619Y-83788380D01*
X196102857Y-83740761D01*
X196150476Y-83693142D01*
X196198095Y-83597904D01*
X196198095Y-83502666D01*
X196150476Y-83407428D01*
X196102857Y-83359809D01*
X196007619Y-83312190D01*
X195817142Y-83264571D01*
X195721904Y-83216952D01*
X195674285Y-83169333D01*
X195626666Y-83074095D01*
X195626666Y-82978857D01*
X195674285Y-82883619D01*
X195721904Y-82836000D01*
X195817142Y-82788380D01*
X196055238Y-82788380D01*
X196198095Y-82836000D01*
X196531428Y-82788380D02*
X196769523Y-83788380D01*
X196960000Y-83074095D01*
X197150476Y-83788380D01*
X197388571Y-82788380D01*
X197674285Y-82788380D02*
X198340952Y-82788380D01*
X197912380Y-83788380D01*
G04 #@! TO.C,SW6*
X176576666Y-83740761D02*
X176719523Y-83788380D01*
X176957619Y-83788380D01*
X177052857Y-83740761D01*
X177100476Y-83693142D01*
X177148095Y-83597904D01*
X177148095Y-83502666D01*
X177100476Y-83407428D01*
X177052857Y-83359809D01*
X176957619Y-83312190D01*
X176767142Y-83264571D01*
X176671904Y-83216952D01*
X176624285Y-83169333D01*
X176576666Y-83074095D01*
X176576666Y-82978857D01*
X176624285Y-82883619D01*
X176671904Y-82836000D01*
X176767142Y-82788380D01*
X177005238Y-82788380D01*
X177148095Y-82836000D01*
X177481428Y-82788380D02*
X177719523Y-83788380D01*
X177910000Y-83074095D01*
X178100476Y-83788380D01*
X178338571Y-82788380D01*
X179148095Y-82788380D02*
X178957619Y-82788380D01*
X178862380Y-82836000D01*
X178814761Y-82883619D01*
X178719523Y-83026476D01*
X178671904Y-83216952D01*
X178671904Y-83597904D01*
X178719523Y-83693142D01*
X178767142Y-83740761D01*
X178862380Y-83788380D01*
X179052857Y-83788380D01*
X179148095Y-83740761D01*
X179195714Y-83693142D01*
X179243333Y-83597904D01*
X179243333Y-83359809D01*
X179195714Y-83264571D01*
X179148095Y-83216952D01*
X179052857Y-83169333D01*
X178862380Y-83169333D01*
X178767142Y-83216952D01*
X178719523Y-83264571D01*
X178671904Y-83359809D01*
G04 #@! TO.C,SW5*
X157526666Y-83740761D02*
X157669523Y-83788380D01*
X157907619Y-83788380D01*
X158002857Y-83740761D01*
X158050476Y-83693142D01*
X158098095Y-83597904D01*
X158098095Y-83502666D01*
X158050476Y-83407428D01*
X158002857Y-83359809D01*
X157907619Y-83312190D01*
X157717142Y-83264571D01*
X157621904Y-83216952D01*
X157574285Y-83169333D01*
X157526666Y-83074095D01*
X157526666Y-82978857D01*
X157574285Y-82883619D01*
X157621904Y-82836000D01*
X157717142Y-82788380D01*
X157955238Y-82788380D01*
X158098095Y-82836000D01*
X158431428Y-82788380D02*
X158669523Y-83788380D01*
X158860000Y-83074095D01*
X159050476Y-83788380D01*
X159288571Y-82788380D01*
X160145714Y-82788380D02*
X159669523Y-82788380D01*
X159621904Y-83264571D01*
X159669523Y-83216952D01*
X159764761Y-83169333D01*
X160002857Y-83169333D01*
X160098095Y-83216952D01*
X160145714Y-83264571D01*
X160193333Y-83359809D01*
X160193333Y-83597904D01*
X160145714Y-83693142D01*
X160098095Y-83740761D01*
X160002857Y-83788380D01*
X159764761Y-83788380D01*
X159669523Y-83740761D01*
X159621904Y-83693142D01*
G04 #@! TO.C,SW4*
X138476666Y-83740761D02*
X138619523Y-83788380D01*
X138857619Y-83788380D01*
X138952857Y-83740761D01*
X139000476Y-83693142D01*
X139048095Y-83597904D01*
X139048095Y-83502666D01*
X139000476Y-83407428D01*
X138952857Y-83359809D01*
X138857619Y-83312190D01*
X138667142Y-83264571D01*
X138571904Y-83216952D01*
X138524285Y-83169333D01*
X138476666Y-83074095D01*
X138476666Y-82978857D01*
X138524285Y-82883619D01*
X138571904Y-82836000D01*
X138667142Y-82788380D01*
X138905238Y-82788380D01*
X139048095Y-82836000D01*
X139381428Y-82788380D02*
X139619523Y-83788380D01*
X139810000Y-83074095D01*
X140000476Y-83788380D01*
X140238571Y-82788380D01*
X141048095Y-83121714D02*
X141048095Y-83788380D01*
X140810000Y-82740761D02*
X140571904Y-83455047D01*
X141190952Y-83455047D01*
G04 #@! TO.C,SW3*
X119426666Y-83740761D02*
X119569523Y-83788380D01*
X119807619Y-83788380D01*
X119902857Y-83740761D01*
X119950476Y-83693142D01*
X119998095Y-83597904D01*
X119998095Y-83502666D01*
X119950476Y-83407428D01*
X119902857Y-83359809D01*
X119807619Y-83312190D01*
X119617142Y-83264571D01*
X119521904Y-83216952D01*
X119474285Y-83169333D01*
X119426666Y-83074095D01*
X119426666Y-82978857D01*
X119474285Y-82883619D01*
X119521904Y-82836000D01*
X119617142Y-82788380D01*
X119855238Y-82788380D01*
X119998095Y-82836000D01*
X120331428Y-82788380D02*
X120569523Y-83788380D01*
X120760000Y-83074095D01*
X120950476Y-83788380D01*
X121188571Y-82788380D01*
X121474285Y-82788380D02*
X122093333Y-82788380D01*
X121760000Y-83169333D01*
X121902857Y-83169333D01*
X121998095Y-83216952D01*
X122045714Y-83264571D01*
X122093333Y-83359809D01*
X122093333Y-83597904D01*
X122045714Y-83693142D01*
X121998095Y-83740761D01*
X121902857Y-83788380D01*
X121617142Y-83788380D01*
X121521904Y-83740761D01*
X121474285Y-83693142D01*
G04 #@! TO.C,SW2*
X100376666Y-83740761D02*
X100519523Y-83788380D01*
X100757619Y-83788380D01*
X100852857Y-83740761D01*
X100900476Y-83693142D01*
X100948095Y-83597904D01*
X100948095Y-83502666D01*
X100900476Y-83407428D01*
X100852857Y-83359809D01*
X100757619Y-83312190D01*
X100567142Y-83264571D01*
X100471904Y-83216952D01*
X100424285Y-83169333D01*
X100376666Y-83074095D01*
X100376666Y-82978857D01*
X100424285Y-82883619D01*
X100471904Y-82836000D01*
X100567142Y-82788380D01*
X100805238Y-82788380D01*
X100948095Y-82836000D01*
X101281428Y-82788380D02*
X101519523Y-83788380D01*
X101710000Y-83074095D01*
X101900476Y-83788380D01*
X102138571Y-82788380D01*
X102471904Y-82883619D02*
X102519523Y-82836000D01*
X102614761Y-82788380D01*
X102852857Y-82788380D01*
X102948095Y-82836000D01*
X102995714Y-82883619D01*
X103043333Y-82978857D01*
X103043333Y-83074095D01*
X102995714Y-83216952D01*
X102424285Y-83788380D01*
X103043333Y-83788380D01*
G04 #@! TO.C,SW1*
X81326666Y-83740761D02*
X81469523Y-83788380D01*
X81707619Y-83788380D01*
X81802857Y-83740761D01*
X81850476Y-83693142D01*
X81898095Y-83597904D01*
X81898095Y-83502666D01*
X81850476Y-83407428D01*
X81802857Y-83359809D01*
X81707619Y-83312190D01*
X81517142Y-83264571D01*
X81421904Y-83216952D01*
X81374285Y-83169333D01*
X81326666Y-83074095D01*
X81326666Y-82978857D01*
X81374285Y-82883619D01*
X81421904Y-82836000D01*
X81517142Y-82788380D01*
X81755238Y-82788380D01*
X81898095Y-82836000D01*
X82231428Y-82788380D02*
X82469523Y-83788380D01*
X82660000Y-83074095D01*
X82850476Y-83788380D01*
X83088571Y-82788380D01*
X83993333Y-83788380D02*
X83421904Y-83788380D01*
X83707619Y-83788380D02*
X83707619Y-82788380D01*
X83612380Y-82931238D01*
X83517142Y-83026476D01*
X83421904Y-83074095D01*
G04 #@! TD*
M02*
