M48
;DRILL file {KiCad 5.0.2-bee76a0~70~ubuntu18.04.1} date Mi 20 Feb 2019 11:48:58 CET
;FORMAT={-:-/ absolute / inch / decimal}
FMAT,2
INCH,TZ
T1C0.0315
T2C0.0433
T3C0.0591
%
G90
G05
T1
X11.1287Y-5.6402
X11.1287Y-5.9402
X3.6283Y-4.1374
X3.6283Y-4.4374
X5.1287Y-4.1402
X5.1287Y-4.4402
X11.1287Y-4.1402
X11.1287Y-4.4402
X12.6287Y-3.3902
X12.6287Y-3.6902
X11.1287Y-3.3902
X11.1287Y-3.6902
X7.3787Y-6.3921
X7.3787Y-6.6921
X4.3787Y-5.6402
X4.3787Y-5.9402
X6.6287Y-5.6402
X6.6287Y-5.9402
X4.3787Y-4.1402
X4.3787Y-4.4402
X5.1287Y-3.3902
X5.1287Y-3.6902
X10.3787Y-6.3902
X10.3787Y-6.6902
X6.6287Y-4.1402
X6.6287Y-4.4402
X4.3787Y-3.3902
X4.3787Y-3.6902
X8.8787Y-5.6402
X8.8787Y-5.9402
X8.1287Y-4.8902
X8.1287Y-5.1902
X7.3787Y-5.6402
X7.3787Y-5.9402
X9.6287Y-5.6402
X9.6287Y-5.9402
X13.3787Y-4.1402
X13.3787Y-4.4402
X11.8787Y-5.6402
X11.8787Y-5.9402
X9.6287Y-4.8902
X9.6287Y-5.1902
X8.8787Y-4.8902
X8.8787Y-5.1902
X8.1287Y-5.6402
X8.1287Y-5.9402
X6.6287Y-4.8902
X6.6287Y-5.1902
X5.1287Y-4.8902
X5.1287Y-5.1902
X3.6287Y-4.8902
X3.6287Y-5.1902
X12.6287Y-5.6402
X12.6287Y-5.9402
X6.2469Y-6.3921
X6.2469Y-6.6921
X10.3787Y-4.8902
X10.3787Y-5.1902
X9.6287Y-3.3902
X9.6287Y-3.6902
X5.8787Y-4.8902
X5.8787Y-5.1902
X12.6287Y-6.3902
X12.6287Y-6.6902
X4.3787Y-4.8902
X4.3787Y-5.1902
X13.3787Y-5.6402
X13.3787Y-5.9402
X11.1287Y-4.8902
X11.1287Y-5.1902
X13.3787Y-6.3902
X13.3787Y-6.6902
X11.8787Y-4.1402
X11.8787Y-4.4402
X3.6287Y-6.3902
X3.6287Y-6.6902
X9.4358Y-6.3921
X9.4358Y-6.6921
X11.8787Y-4.8902
X11.8787Y-5.1902
X9.6287Y-4.1402
X9.6287Y-4.4402
X8.8787Y-4.1402
X8.8787Y-4.4402
X6.6287Y-3.3902
X6.6287Y-3.6902
X11.8787Y-6.3902
X11.8787Y-6.6902
X4.3787Y-6.3902
X4.3787Y-6.6902
X12.6287Y-4.8902
X12.6287Y-5.1902
X8.1287Y-4.1402
X8.1287Y-4.4402
X8.8787Y-3.3902
X8.8787Y-3.6902
X7.3787Y-3.3902
X7.3787Y-3.6902
X8.5008Y-6.3921
X8.5008Y-6.6921
X5.8787Y-3.3902
X5.8787Y-3.6902
X5.3118Y-6.3921
X5.3118Y-6.6921
X13.3787Y-4.8902
X13.3787Y-5.1902
X7.3787Y-4.1402
X7.3787Y-4.4402
X7.3787Y-4.8902
X7.3787Y-5.1902
X8.1287Y-3.3902
X8.1287Y-3.6902
X12.6287Y-4.1402
X12.6287Y-4.4402
X10.3787Y-5.6402
X10.3787Y-5.9402
X5.1287Y-5.6402
X5.1287Y-5.9402
X11.1287Y-6.3902
X11.1287Y-6.6902
X3.6287Y-5.6402
X3.6287Y-5.9402
X13.3787Y-3.3902
X13.3787Y-3.6902
X3.6287Y-3.3902
X3.6287Y-3.6902
X5.8787Y-4.1402
X5.8787Y-4.4402
X11.8787Y-3.3902
X11.8787Y-3.6902
X10.3787Y-3.3902
X10.3787Y-3.6902
X10.3787Y-4.1402
X10.3787Y-4.4402
X5.8787Y-5.6402
X5.8787Y-5.9402
T2
X7.5807Y-4.0398
X7.5807Y-4.6398
X7.6807Y-4.0398
X7.6807Y-4.6398
X7.7807Y-4.0398
X7.7807Y-4.6398
X7.8807Y-4.0398
X7.8807Y-4.6398
X7.9807Y-4.0398
X7.9807Y-4.6398
X8.0807Y-4.0398
X8.0807Y-4.6398
X8.1807Y-4.0398
X8.1807Y-4.6398
X8.2807Y-4.0398
X8.2807Y-4.6398
X8.3807Y-4.0398
X8.3807Y-4.6398
X8.4807Y-4.0398
X8.4807Y-4.6398
X8.5807Y-4.0398
X8.5807Y-4.6398
X8.6807Y-4.0398
X8.6807Y-4.6398
T3
X7.6043Y-4.2409
X7.8543Y-4.1409
X9.8543Y-3.4909
X10.1043Y-3.3909
X12.8543Y-4.2409
X13.1043Y-4.1409
X10.6043Y-4.9909
X10.8543Y-4.8909
X9.7579Y-6.4929
X10.0079Y-6.3929
X6.1043Y-5.7409
X6.3543Y-5.6409
X3.1043Y-5.7409
X3.3543Y-5.6409
X4.6043Y-4.2409
X4.8543Y-4.1409
X9.1043Y-5.7409
X9.3543Y-5.6409
X9.8543Y-5.7409
X10.1043Y-5.6409
X9.1043Y-3.4909
X9.3543Y-3.3909
X12.1043Y-4.2409
X12.3543Y-4.1409
X9.8543Y-4.9909
X10.1043Y-4.8909
X12.1043Y-5.7409
X12.3543Y-5.6409
X9.1043Y-4.9909
X9.3543Y-4.8909
X6.1043Y-4.9909
X6.3543Y-4.8909
X11.3543Y-4.2409
X11.6043Y-4.1409
X12.8543Y-5.7409
X13.1043Y-5.6409
X12.8543Y-6.4909
X13.1043Y-6.3909
X11.3543Y-5.7409
X11.6043Y-5.6409
X8.8228Y-6.4929
X9.0728Y-6.3929
X10.6043Y-4.2409
X10.8543Y-4.1409
X3.8543Y-4.2409
X4.1043Y-4.1409
X3.8543Y-5.7409
X4.1043Y-5.6409
X5.3543Y-4.9909
X5.6043Y-4.8909
X8.3543Y-3.4909
X8.6043Y-3.3909
X6.8543Y-5.7409
X7.1043Y-5.6409
X5.6339Y-6.4929
X5.8839Y-6.3929
X8.3543Y-4.9909
X8.6043Y-4.8909
X6.8543Y-4.9909
X7.1043Y-4.8909
X3.1043Y-4.2409
X3.3543Y-4.1409
X4.6043Y-4.9909
X4.8543Y-4.8909
X10.6043Y-5.7409
X10.8543Y-5.6409
X7.6043Y-3.4909
X7.8543Y-3.3909
X6.8543Y-3.4909
X7.1043Y-3.3909
X12.8543Y-3.4909
X13.1043Y-3.3909
X12.8543Y-4.9909
X13.1043Y-4.8909
X12.1043Y-6.4909
X12.3543Y-6.3909
X7.6043Y-4.9909
X7.8543Y-4.8909
X7.7894Y-6.4929
X8.0394Y-6.3929
X4.6043Y-5.7409
X4.8543Y-5.6409
X4.6988Y-6.4909
X4.9488Y-6.3909
X5.3543Y-3.4909
X5.6043Y-3.3909
X6.1043Y-4.2409
X6.3543Y-4.1409
X12.1043Y-4.9909
X12.3543Y-4.8909
X9.8543Y-4.2409
X10.1043Y-4.1409
X5.3543Y-5.7409
X5.6043Y-5.6409
X8.3543Y-5.7409
X8.6043Y-5.6409
X8.3543Y-4.2409
X8.6043Y-4.1409
X11.3543Y-3.4909
X11.6043Y-3.3909
X3.8543Y-4.9909
X4.1043Y-4.8909
X3.1043Y-3.4909
X3.3543Y-3.3909
X10.6043Y-6.4929
X10.8543Y-6.3929
X6.6673Y-6.4929
X6.9173Y-6.3929
X5.3543Y-4.2409
X5.6043Y-4.1409
X11.3543Y-4.9909
X11.6043Y-4.8909
X3.8543Y-3.4909
X4.1043Y-3.3909
X9.1043Y-4.2409
X9.3543Y-4.1409
X12.1043Y-3.4909
X12.3543Y-3.3909
X7.6043Y-5.7409
X7.8543Y-5.6409
X10.6043Y-3.4909
X10.8543Y-3.3909
X4.6043Y-3.4909
X4.8543Y-3.3909
X3.1043Y-4.9909
X3.3543Y-4.8909
X6.8543Y-4.2409
X7.1043Y-4.1409
X3.1043Y-6.4909
X3.3543Y-6.3909
X11.3543Y-6.4909
X11.6043Y-6.3909
X6.1043Y-3.4909
X6.3543Y-3.3909
X3.8543Y-6.4909
X4.1043Y-6.3909
T0
M30
