M48
;DRILL file {KiCad 5.0.2-bee76a0~70~ubuntu18.04.1} date Mi 20 Feb 2019 11:48:58 CET
;FORMAT={-:-/ absolute / inch / decimal}
FMAT,2
INCH,TZ
T1C0.0669
T2C0.1575
%
G90
G05
T1
X3.8043Y-5.8409
X4.2043Y-5.8409
X5.3043Y-5.0909
X5.7043Y-5.0909
X8.3043Y-3.5909
X8.7043Y-3.5909
X6.8043Y-5.8409
X7.2043Y-5.8409
X5.5839Y-6.5929
X5.9839Y-6.5929
X8.3043Y-5.0909
X8.7043Y-5.0909
X6.8043Y-5.0909
X7.2043Y-5.0909
X3.0543Y-4.3409
X3.4543Y-4.3409
X4.5543Y-5.0909
X4.9543Y-5.0909
X10.5543Y-5.8409
X10.9543Y-5.8409
X7.5543Y-3.5909
X7.9543Y-3.5909
X6.8043Y-3.5909
X7.2043Y-3.5909
X12.8043Y-3.5909
X13.2043Y-3.5909
X12.8043Y-5.0909
X13.2043Y-5.0909
X12.0543Y-6.5909
X12.4543Y-6.5909
X7.5543Y-5.0909
X7.9543Y-5.0909
X7.7394Y-6.5929
X8.1394Y-6.5929
X4.5543Y-5.8409
X4.9543Y-5.8409
X4.6488Y-6.5909
X5.0488Y-6.5909
X5.3043Y-3.5909
X5.7043Y-3.5909
X6.0543Y-4.3409
X6.4543Y-4.3409
X12.0543Y-5.0909
X12.4543Y-5.0909
X9.8043Y-4.3409
X10.2043Y-4.3409
X5.3043Y-5.8409
X5.7043Y-5.8409
X8.3043Y-5.8409
X8.7043Y-5.8409
X8.3043Y-4.3409
X8.7043Y-4.3409
X11.3043Y-3.5909
X11.7043Y-3.5909
X3.8043Y-5.0909
X4.2043Y-5.0909
X3.0543Y-3.5909
X3.4543Y-3.5909
X10.5543Y-6.5929
X10.9543Y-6.5929
X6.6173Y-6.5929
X7.0173Y-6.5929
X5.3043Y-4.3409
X5.7043Y-4.3409
X11.3043Y-5.0909
X11.7043Y-5.0909
X3.8043Y-3.5909
X4.2043Y-3.5909
X9.0543Y-4.3409
X9.4543Y-4.3409
X12.0543Y-3.5909
X12.4543Y-3.5909
X7.5543Y-5.8409
X7.9543Y-5.8409
X10.5543Y-3.5909
X10.9543Y-3.5909
X4.5543Y-3.5909
X4.9543Y-3.5909
X3.0543Y-5.0909
X3.4543Y-5.0909
X6.8043Y-4.3409
X7.2043Y-4.3409
X3.0543Y-6.5909
X3.4543Y-6.5909
X11.3043Y-6.5909
X11.7043Y-6.5909
X6.0543Y-3.5909
X6.4543Y-3.5909
X3.8043Y-6.5909
X4.2043Y-6.5909
X7.5543Y-4.3409
X7.9543Y-4.3409
X9.8043Y-3.5909
X10.2043Y-3.5909
X12.8043Y-4.3409
X13.2043Y-4.3409
X10.5543Y-5.0909
X10.9543Y-5.0909
X9.7079Y-6.5929
X10.1079Y-6.5929
X6.0543Y-5.8409
X6.4543Y-5.8409
X3.0543Y-5.8409
X3.4543Y-5.8409
X4.5543Y-4.3409
X4.9543Y-4.3409
X9.0543Y-5.8409
X9.4543Y-5.8409
X9.8043Y-5.8409
X10.2043Y-5.8409
X9.0543Y-3.5909
X9.4543Y-3.5909
X12.0543Y-4.3409
X12.4543Y-4.3409
X9.8043Y-5.0909
X10.2043Y-5.0909
X12.0543Y-5.8409
X12.4543Y-5.8409
X9.0543Y-5.0909
X9.4543Y-5.0909
X6.0543Y-5.0909
X6.4543Y-5.0909
X11.3043Y-4.3409
X11.7043Y-4.3409
X12.8043Y-5.8409
X13.2043Y-5.8409
X12.8043Y-6.5909
X13.2043Y-6.5909
X11.3043Y-5.8409
X11.7043Y-5.8409
X8.7728Y-6.5929
X9.1728Y-6.5929
X10.5543Y-4.3409
X10.9543Y-4.3409
X3.8043Y-4.3409
X4.2043Y-4.3409
T2
X8.9728Y-6.5929
X10.7543Y-4.3409
X4.0043Y-4.3409
X4.0043Y-5.8409
X5.5043Y-5.0909
X8.5043Y-3.5909
X7.0043Y-5.8409
X5.7839Y-6.5929
X8.5043Y-5.0909
X7.0043Y-5.0909
X3.2543Y-4.3409
X4.7543Y-5.0909
X10.7543Y-5.8409
X7.7543Y-3.5909
X7.0043Y-3.5909
X13.0043Y-3.5909
X13.0043Y-5.0909
X12.2543Y-6.5909
X7.7543Y-5.0909
X7.9394Y-6.5929
X4.7543Y-5.8409
X4.8488Y-6.5909
X5.5043Y-3.5909
X6.2543Y-4.3409
X12.2543Y-5.0909
X10.0043Y-4.3409
X5.5043Y-5.8409
X8.5043Y-5.8409
X8.5043Y-4.3409
X11.5043Y-3.5909
X4.0043Y-5.0909
X3.2543Y-3.5909
X10.7543Y-6.5929
X6.8173Y-6.5929
X5.5043Y-4.3409
X11.5043Y-5.0909
X4.0043Y-3.5909
X9.2543Y-4.3409
X12.2543Y-3.5909
X7.7543Y-5.8409
X10.7543Y-3.5909
X4.7543Y-3.5909
X3.2543Y-5.0909
X7.0043Y-4.3409
X3.2543Y-6.5909
X11.5043Y-6.5909
X6.2543Y-3.5909
X4.0043Y-6.5909
X7.7543Y-4.3409
X10.0043Y-3.5909
X13.0043Y-4.3409
X10.7543Y-5.0909
X9.9079Y-6.5929
X6.2543Y-5.8409
X3.2543Y-5.8409
X4.7543Y-4.3409
X9.2543Y-5.8409
X10.0043Y-5.8409
X9.2543Y-3.5909
X12.2543Y-4.3409
X10.0043Y-5.0909
X12.2543Y-5.8409
X9.2543Y-5.0909
X6.2543Y-5.0909
X11.5043Y-4.3409
X13.0043Y-5.8409
X13.0043Y-6.5909
X11.5043Y-5.8409
T0
M30
