<?xml version="1.0" encoding="UTF-8" standalone="no"?>
<!-- Created with Inkscape (http://www.inkscape.org/) -->

<svg
   xmlns:dc="http://purl.org/dc/elements/1.1/"
   xmlns:cc="http://creativecommons.org/ns#"
   xmlns:rdf="http://www.w3.org/1999/02/22-rdf-syntax-ns#"
   xmlns:svg="http://www.w3.org/2000/svg"
   xmlns="http://www.w3.org/2000/svg"
   xmlns:sodipodi="http://sodipodi.sourceforge.net/DTD/sodipodi-0.dtd"
   xmlns:inkscape="http://www.inkscape.org/namespaces/inkscape"
   width="82.98719mm"
   height="68.153725mm"
   viewBox="0 0 82.98719 68.153725"
   version="1.1"
   id="svg1011"
   inkscape:version="0.92.3 (2405546, 2018-03-11)"
   sodipodi:docname="logo.svg"
   inkscape:export-filename="/home/kai/Daten/Projekte/keyboard/kai1/kai1/logo.svg.png"
   inkscape:export-xdpi="1000"
   inkscape:export-ydpi="1000">
  <defs
     id="defs1005" />
  <sodipodi:namedview
     id="base"
     pagecolor="#ffffff"
     bordercolor="#666666"
     borderopacity="1.0"
     inkscape:pageopacity="0.0"
     inkscape:pageshadow="2"
     inkscape:zoom="1.979899"
     inkscape:cx="247.93769"
     inkscape:cy="4.9518498"
     inkscape:document-units="mm"
     inkscape:current-layer="layer2"
     showgrid="false"
     inkscape:window-width="1271"
     inkscape:window-height="2118"
     inkscape:window-x="2"
     inkscape:window-y="34"
     inkscape:window-maximized="0" />
  <metadata
     id="metadata1008">
    <rdf:RDF>
      <cc:Work
         rdf:about="">
        <dc:format>image/svg+xml</dc:format>
        <dc:type
           rdf:resource="http://purl.org/dc/dcmitype/StillImage" />
        <dc:title />
      </cc:Work>
    </rdf:RDF>
  </metadata>
  <g
     inkscape:groupmode="layer"
     id="layer2"
     inkscape:label="bg"
     transform="translate(3.0736005,4.0064368)">
    <rect
       style="fill:#ffffff;stroke:none;stroke-width:0.69765824;stroke-miterlimit:4;stroke-dasharray:none;stroke-opacity:1"
       id="rect836"
       width="82.98719"
       height="68.153725"
       x="-3.0736005"
       y="-4.0064368" />
  </g>
  <g
     inkscape:label="Layer 1"
     inkscape:groupmode="layer"
     id="layer1"
     transform="translate(-94.168963,-54.362823)">
    <path
       style="fill:none;stroke:#000000;stroke-width:1;stroke-miterlimit:4;stroke-dasharray:none;stroke-opacity:1"
       id="path1567"
       sodipodi:type="arc"
       sodipodi:cx="158.86243"
       sodipodi:cy="98.995575"
       sodipodi:rx="7.4305973"
       sodipodi:ry="7.4305973"
       sodipodi:start="0.91106196"
       sodipodi:end="0.91031661"
       d="m 163.41669,104.8669 a 7.4305973,7.4305973 0 0 1 -10.42474,-1.31597 7.4305973,7.4305973 0 0 1 1.31402,-10.424981 7.4305973,7.4305973 0 0 1 10.42523,1.31208 7.4305973,7.4305973 0 0 1 -1.31013,10.425471"
       sodipodi:open="true" />
    <path
       style="fill:none;stroke:#000000;stroke-width:1;stroke-miterlimit:4;stroke-dasharray:none;stroke-opacity:1"
       id="path1567-3"
       sodipodi:type="arc"
       sodipodi:cx="140.45013"
       sodipodi:cy="73.829948"
       sodipodi:rx="7.4305978"
       sodipodi:ry="7.4305978"
       sodipodi:start="0.91106196"
       sodipodi:end="0.91031661"
       d="m 145.0044,79.701273 a 7.4305978,7.4305978 0 0 1 -10.42474,-1.315965 7.4305978,7.4305978 0 0 1 1.31402,-10.424986 7.4305978,7.4305978 0 0 1 10.42523,1.31208 7.4305978,7.4305978 0 0 1 -1.31014,10.425475"
       sodipodi:open="true" />
    <path
       style="fill:none;stroke:#000000;stroke-width:1;stroke-miterlimit:4;stroke-dasharray:none;stroke-opacity:1"
       id="path1567-6"
       sodipodi:type="arc"
       sodipodi:cx="105.17056"
       sodipodi:cy="94.008797"
       sodipodi:rx="7.4305978"
       sodipodi:ry="7.4305978"
       sodipodi:start="0.91106196"
       sodipodi:end="0.91031661"
       d="M 109.72483,99.880121 A 7.4305978,7.4305978 0 0 1 99.300087,98.564156 7.4305978,7.4305978 0 0 1 100.61411,88.13917 7.4305978,7.4305978 0 0 1 111.03934,89.45125 7.4305978,7.4305978 0 0 1 109.7292,99.876725"
       sodipodi:open="true" />
    <path
       style="fill:none;stroke:#000000;stroke-width:1;stroke-miterlimit:4;stroke-dasharray:none;stroke-opacity:1"
       id="path1567-7"
       sodipodi:type="arc"
       sodipodi:cx="113.91454"
       sodipodi:cy="66.297256"
       sodipodi:rx="7.4305978"
       sodipodi:ry="7.4305978"
       sodipodi:start="0.91106196"
       sodipodi:end="0.91031661"
       d="m 118.46881,72.168581 a 7.4305978,7.4305978 0 0 1 -10.42474,-1.315965 7.4305978,7.4305978 0 0 1 1.31402,-10.424986 7.4305978,7.4305978 0 0 1 10.42523,1.31208 7.4305978,7.4305978 0 0 1 -1.31014,10.425475"
       sodipodi:open="true" />
    <path
       style="fill:none;stroke:#000000;stroke-width:1;stroke-miterlimit:4;stroke-dasharray:none;stroke-opacity:1"
       id="path1567-5"
       sodipodi:type="arc"
       sodipodi:cx="133.50113"
       sodipodi:cy="112.18313"
       sodipodi:rx="7.4305978"
       sodipodi:ry="7.4305978"
       sodipodi:start="0.91106196"
       sodipodi:end="0.91031661"
       d="m 138.05539,118.05445 a 7.4305978,7.4305978 0 0 1 -10.42474,-1.31596 7.4305978,7.4305978 0 0 1 1.31403,-10.42499 7.4305978,7.4305978 0 0 1 10.42523,1.31208 7.4305978,7.4305978 0 0 1 -1.31014,10.42548"
       sodipodi:open="true" />
    <path
       style="fill:none;stroke:#000000;stroke-width:1;stroke-miterlimit:4;stroke-dasharray:none;stroke-opacity:1"
       id="path1567-35"
       sodipodi:type="arc"
       sodipodi:cx="168.24615"
       sodipodi:cy="73.696304"
       sodipodi:rx="7.4305978"
       sodipodi:ry="7.4305978"
       sodipodi:start="0.91106196"
       sodipodi:end="0.91031661"
       d="m 172.80042,79.567629 a 7.4305978,7.4305978 0 0 1 -10.42474,-1.315965 7.4305978,7.4305978 0 0 1 1.31402,-10.424987 7.4305978,7.4305978 0 0 1 10.42523,1.312081 7.4305978,7.4305978 0 0 1 -1.31014,10.425475"
       sodipodi:open="true" />
    <path
       style="fill:none;stroke:#000000;stroke-width:1;stroke-miterlimit:4;stroke-dasharray:none;stroke-opacity:1"
       id="path1610"
       sodipodi:type="arc"
       sodipodi:cx="-70.528618"
       sodipodi:cy="116.16982"
       sodipodi:rx="12.027128"
       sodipodi:ry="9.2876167"
       sodipodi:start="0.91106187"
       sodipodi:end="2.9023543"
       sodipodi:open="true"
       d="m -63.157106,123.50848 a 12.027128,9.2876167 0 0 1 -11.336015,1.42988 12.027128,9.2876167 0 0 1 -7.720077,-6.56772"
       transform="rotate(-85.734466)" />
    <path
       style="fill:none;stroke:#000000;stroke-width:1;stroke-miterlimit:4;stroke-dasharray:none;stroke-opacity:1"
       id="path1610-6"
       sodipodi:type="arc"
       sodipodi:cx="-127.20541"
       sodipodi:cy="-68.969696"
       sodipodi:rx="12.027128"
       sodipodi:ry="9.2876167"
       sodipodi:start="0.91106187"
       sodipodi:end="2.9023543"
       sodipodi:open="true"
       d="m -119.83389,-61.631039 a 12.027128,9.2876167 0 0 1 -11.33602,1.429876 12.027128,9.2876167 0 0 1 -7.72008,-6.567714"
       transform="rotate(-179.96645)" />
    <path
       style="fill:none;stroke:#000000;stroke-width:1;stroke-miterlimit:4;stroke-dasharray:none;stroke-opacity:1"
       id="path1610-2"
       sodipodi:type="arc"
       sodipodi:cx="-129.041"
       sodipodi:cy="-110.98708"
       sodipodi:rx="12.027128"
       sodipodi:ry="9.2876167"
       sodipodi:start="0.91106187"
       sodipodi:end="2.9023543"
       sodipodi:open="true"
       d="m -121.66949,-103.64843 a 12.027128,9.2876167 0 0 1 -11.33601,1.42988 12.027128,9.2876167 0 0 1 -7.72008,-6.56771"
       transform="rotate(164.61148)" />
    <path
       style="fill:none;stroke:#000000;stroke-width:1;stroke-miterlimit:4;stroke-dasharray:none;stroke-opacity:1"
       id="path1610-9"
       sodipodi:type="arc"
       sodipodi:cx="-73.862335"
       sodipodi:cy="170.90538"
       sodipodi:rx="12.027128"
       sodipodi:ry="9.2876167"
       sodipodi:start="0.91106187"
       sodipodi:end="2.9023543"
       sodipodi:open="true"
       d="m -66.490823,178.24404 a 12.027128,9.2876167 0 0 1 -11.336016,1.42987 12.027128,9.2876167 0 0 1 -7.720077,-6.56771"
       transform="rotate(-85.734466)" />
    <path
       style="fill:none;stroke:#000000;stroke-width:1;stroke-miterlimit:4;stroke-dasharray:none;stroke-opacity:1"
       id="path1610-1"
       sodipodi:type="arc"
       sodipodi:cx="-40.853352"
       sodipodi:cy="-174.08994"
       sodipodi:rx="12.027128"
       sodipodi:ry="9.2876167"
       sodipodi:start="0.91106187"
       sodipodi:end="2.9023543"
       sodipodi:open="true"
       d="m -33.48184,-166.75128 a 12.027128,9.2876167 0 0 1 -11.336015,1.42988 12.027128,9.2876167 0 0 1 -7.720077,-6.56772"
       transform="rotate(139.41152)" />
    <path
       style="fill:none;stroke:#000000;stroke-width:1;stroke-miterlimit:4;stroke-dasharray:none;stroke-opacity:1"
       id="path1610-27"
       sodipodi:type="arc"
       sodipodi:cx="-139.50549"
       sodipodi:cy="-73.756363"
       sodipodi:rx="12.027128"
       sodipodi:ry="9.2876167"
       sodipodi:start="0.91106187"
       sodipodi:end="2.9023543"
       sodipodi:open="true"
       d="m -132.13398,-66.417706 a 12.027128,9.2876167 0 0 1 -11.33602,1.429876 12.027128,9.2876167 0 0 1 -7.72007,-6.567714"
       transform="rotate(-165.98398)" />
    <text
       xml:space="preserve"
       style="font-style:normal;font-weight:normal;font-size:10.58333302px;line-height:1.25;font-family:sans-serif;letter-spacing:0px;word-spacing:0px;fill:#000000;fill-opacity:1;stroke:none;stroke-width:0.26458332"
       x="120.13765"
       y="92.93972"
       id="text1653"><tspan
         sodipodi:role="line"
         id="tspan1651"
         x="120.13765"
         y="92.93972"
         style="font-style:normal;font-variant:normal;font-weight:normal;font-stretch:normal;font-family:KacstDigital;-inkscape-font-specification:KacstDigital;stroke-width:0.26458332">WISS</tspan></text>
    <text
       xml:space="preserve"
       style="font-style:normal;font-variant:normal;font-weight:bold;font-stretch:normal;font-size:10.58333302px;line-height:1.25;font-family:Purisa;-inkscape-font-specification:'Purisa Bold';letter-spacing:0px;word-spacing:0px;fill:#000000;fill-opacity:1;stroke:none;stroke-width:0.26458332"
       x="121.72028"
       y="122.90451"
       id="text1657"
       inkscape:transform-center-x="-5.3352091"
       inkscape:transform-center-y="1.6516596"
       transform="rotate(-13.338116)"><tspan
         sodipodi:role="line"
         id="tspan1655"
         x="121.72028"
         y="122.90451"
         style="font-style:normal;font-variant:normal;font-weight:bold;font-stretch:normal;font-family:Purisa;-inkscape-font-specification:'Purisa Bold';stroke-width:0.26458332">lab</tspan></text>
  </g>
</svg>
